<?xml version="1.0" standalone="no"?> 
<!DOCTYPE svg PUBLIC "-//W3C//DTD SVG 1.1//EN" "http://www.w3.org/Graphics/SVG/1.1/DTD/svg11.dtd" >
<svg xmlns="http://www.w3.org/2000/svg">
<defs>
  <font id="brand-icons" horiz-adv-x="448">
    <font-face font-family="brand-icons"
      units-per-em="448" ascent="448"
      descent="0" />
    <missing-glyph horiz-adv-x="0" />
    <glyph glyph-name="arrow-down"
      unicode="&#xEA01;"
      horiz-adv-x="32" d=" M32.025 24.851L16.02 8.846L0.018 24.851V23.137L16.02 7.133L32.025 23.137z" />
    <glyph glyph-name="arrow-left"
      unicode="&#xEA02;"
      horiz-adv-x="32" d=" M24.851 -0.025L8.846 15.98L24.851 31.982H23.137L7.133 15.98L23.137 -0.025z" />
    <glyph glyph-name="arrow-right"
      unicode="&#xEA03;"
      horiz-adv-x="32" d=" M7.149 32.025L23.154 16.02L7.149 0.018H8.863L24.867 16.02L8.863 32.025z" />
    <glyph glyph-name="arrow-up"
      unicode="&#xEA04;"
      horiz-adv-x="32" d=" M-0.025 7.149L15.98 23.154L31.982 7.149V8.863L15.98 24.867L-0.025 8.863z" />
    <glyph glyph-name="bulb"
      unicode="&#xEA05;"
      horiz-adv-x="368.5" d=" M60.055 341.5H312.983V27.442H60.055V341.5z M186.357 263.217C149.932 263.217 120.386 233.676 120.386 197.225C120.386 185.227 123.751 174.073 129.181 164.286C145.378 135.088 149.679 118.695 152.326 102.831C154.541 89.535 157.604 86.445 167.644 86.445H186.357H205.07C215.13 86.445 218.193 89.535 220.409 102.831C223.065 118.702 227.355 135.096 243.549 164.286C249 174.073 252.348 185.227 252.348 197.225C252.359 233.68 222.812 263.217 186.357 263.217 M209.962 81.667H162.799C160.836 81.667 159.257 80.089 159.257 78.134V75.771C159.257 73.8249999999999 160.836 72.237 162.799 72.237H209.962C211.895 72.237 213.481 73.825 213.481 75.771V78.134C213.489 80.089 211.895 81.667 209.962 81.667 M209.962 67.521H162.799C160.836 67.521 159.257 65.949 159.257 63.985V61.625C159.257 59.677 160.836 58.097 162.799 58.097H209.962C211.895 58.097 213.481 59.677 213.481 61.625V63.985C213.489 65.949 211.895 67.521 209.962 67.521 M209.962 53.375H162.799C160.836 53.375 159.257 51.795 159.257 49.84V47.478C159.257 45.5239999999999 160.836 43.9429999999999 162.799 43.9429999999999H209.962C211.895 43.9429999999999 213.481 45.5239999999999 213.481 47.478V49.84C213.489 51.795 211.895 53.375 209.962 53.375 M168.688 39.228H204.074C204.074 32.159 194.624 27.443 186.358 27.443C178.123 27.442 168.688 32.158 168.688 39.228 M262.144 309.674C268.159 320.208 251.919 329.664 245.854 319.152C242.675 313.6600000000001 219.696 273.844 219.696 273.844L236.0410000000001 264.415C236.0410000000001 264.415 256.4500000000001 299.811 262.125 309.63C262.137 309.636 262.137 309.644 262.137 309.644L262.144 309.674z M298.928 272.799L298.928 272.799L298.913 272.7870000000001L298.882 272.783C290.594 267.99 255.046 247.466 255.046 247.466L264.463 231.135C264.463 231.135 300.093 251.701 308.382 256.4890000000001C318.925 262.564 309.463 278.822 298.928 272.799 M196.146 332.378V282.081H177.28V332.378C177.279 344.54 196.146 344.54 196.146 332.378 M110.898 309.674C104.886 320.208 121.127 329.664 127.199 319.152C130.369 313.6600000000001 153.345 273.844 153.345 273.844L137.022 264.415C137.022 264.415 116.581 299.811 110.911 309.63V309.644L110.898 309.674z M74.132 272.799L74.132 272.799V272.7870000000001L74.155 272.783C82.467 267.99 117.998 247.466 117.998 247.466L108.566 231.135C108.566 231.135 72.935 251.701 64.647 256.4890000000001C54.116 262.564 63.578 278.822 74.132 272.799" />
    <glyph glyph-name="bulle"
      unicode="&#xEA06;"
      horiz-adv-x="368.5" d=" M320.169 110.411C320.169 96.987 309.287 86.103 295.86 86.103H191.871L120.384 29.985L120.032 86.103H75.719C62.291 86.103 51.41 96.987 51.41 110.411V312.685C51.41 326.108 62.291 336.9940000000001 75.719 336.9940000000001H295.86C309.2870000000001 336.9940000000001 320.1690000000001 326.109 320.1690000000001 312.685V110.411z" />
    <glyph glyph-name="check"
      unicode="&#xEA07;"
      horiz-adv-x="448" d=" M16 448L17 447L17 -1L16 0z M32 448L33 447L33 -1L32 0z M48 448L49 447L49 -1L48 0z M64 448L65 447L65 -1L64 0z M80 448L81 447L81 -1L80 0z M96 448L97 447L97 -1L96 0z M112 448L113 447L113 -1L112 0z M128 448L129 447L129 -1L128 0z M144 448L145 447L145 -1L144 0z M160 448L161 447L161 -1L160 0z M176 448L177 447L177 -1L176 0z M192 448L193 447L193 -1L192 0z M208 448L209 447L209 -1L208 0z M224 448L225 447L225 -1L224 0z M240 448L241 447L241 -1L240 0z M256 448L257 447L257 -1L256 0z M272 448L273 447L273 -1L272 0z M288 448L289 447L289 -1L288 0z M304 448L305 447L305 -1L304 0z M320 448L321 447L321 -1L320 0z M336 448L337 447L337 -1L336 0z M352 448L353 447L353 -1L352 0z M368 448L369 447L369 -1L368 0z M384 448L385 447L385 -1L384 0z M400 448L401 447L401 -1L400 0z M416 448L417 447L417 -1L416 0z M432 448L433 447L433 -1L432 0z M0 432L1 431L449 431L448 432z M0 416L1 415L449 415L448 416z M0 400L1 399L449 399L448 400z M0 384L1 383L449 383L448 384z M0 368L1 367L449 367L448 368z M0 352L1 351L449 351L448 352z M0 336L1 335L449 335L448 336z M0 320L1 319L449 319L448 320z M0 304L1 303L449 303L448 304z M0 288L1 287L449 287L448 288z M0 272L1 271L449 271L448 272z M0 256L1 255L449 255L448 256z M0 240L1 239L449 239L448 240z M0 224L1 223L449 223L448 224z M0 208L1 207L449 207L448 208z M0 192L1 191L449 191L448 192z M0 176L1 175L449 175L448 176z M0 160L1 159L449 159L448 160z M0 144L1 143L449 143L448 144z M0 128L1 127L449 127L448 128z M0 112L1 111L449 111L448 112z M0 96L1 95L449 95L448 96z M0 80L1 79L449 79L448 80z M0 64L1 63L449 63L448 64z M0 48L1 47L449 47L448 48z M0 32L1 31L449 31L448 32z M0 16L1 15L449 15L448 16z M176.496 82.749L42.928 215.231L66.368 238.8950000000001L176.393 129.7570000000001L414.206 367.5030000000001L437.7460000000001 343.9670000000001z" />
    <glyph glyph-name="clock"
      unicode="&#xEA08;"
      horiz-adv-x="368.5" d=" M304.5590000000001 302.211C272.4260000000001 334.352 229.7020000000001 352.052 184.2530000000001 352.052C138.8080000000001 352.052 96.0750000000001 334.352 63.9380000000001 302.211C31.804 270.072 14.104 227.349 14.104 181.9C14.104 136.454 31.804 93.73 63.937 61.598C96.075 29.452 138.807 11.751 184.252 11.751C229.693 11.751 272.425 29.4520000000001 304.558 61.598C336.695 93.73 354.394 136.453 354.394 181.9C354.395 227.349 336.695 270.072 304.5590000000001 302.211zM249.277 108.667C245.966 105.346 241.607 103.686 237.256 103.686C232.906 103.686 228.557 105.346 225.235 108.667L167.25 166.659V292.757C167.25 302.153 174.856 309.76 184.2529999999999 309.76C193.6349999999999 309.76 201.2599999999999 302.154 201.2599999999999 292.757V180.739L249.278 132.712C255.922 126.067 255.922 115.308 249.277 108.667z" />
    <glyph glyph-name="googleplus"
      unicode="&#xEA09;"
      horiz-adv-x="368.5" d=" M8 361.5H362V7.5H8V361.5z M194.355 77.062C194.355 80.033 194.042 82.916 193.405 85.682C192.767 88.448 192.087 90.997 191.384 93.341C190.671 95.675 189.439 98.127 187.657 100.677C185.885 103.238 184.388 105.387 183.184 107.169C181.99 108.941 180.11 111.037 177.555 113.446S173.05 117.659 171.7 118.869C170.349 120.0680000000001 168.087 121.884 164.899 124.2820000000001C161.702 126.7130000000001 159.498 128.333 158.2940000000001 129.186C157.1000000000001 130.0400000000001 154.7550000000001 131.66 151.2820000000001 134.0800000000001C147.809 136.489 145.637 137.9800000000001 144.7900000000001 138.542C142.3750000000001 138.834 138.8370000000001 138.974 134.1530000000001 138.974C126.4890000000001 138.974 118.9800000000001 138.478 111.6020000000001 137.484C104.2340000000001 136.49 96.5630000000001 134.718 88.633 132.169C80.677 129.609 73.731 126.357 67.778 122.381C61.821 118.417 56.926 113.091 53.102 106.425C49.272 99.76 47.36 92.176 47.36 83.662C47.36 74.016 49.872 65.405 54.906 57.8100000000001C59.935 50.2260000000001 66.541 44.2740000000001 74.692 39.931C82.848 35.609 91.399 32.39 100.329 30.251C109.263 28.134 118.2670000000001 27.074 127.352 27.074C135.714 27.074 143.692 27.949 151.2820000000001 29.731C158.8720000000001 31.503 165.9960000000001 34.269 172.661 38.028C179.321 41.777 184.6100000000001 46.995 188.511 53.661C192.411 60.339 194.355 68.139 194.355 77.062M168.838 260.447C168.838 268.9650000000001 167.666 278.002 165.322 287.568C162.982 297.139 159.644 306.398 155.318 315.338C150.991 324.277 145.045 331.646 137.455 337.463C129.865 343.27 121.391 346.181 112.029 346.181C98.834 346.181 88.634 341.292 81.396 331.499C74.164 321.723 70.545 310.0180000000001 70.545 296.4C70.545 289.7390000000001 71.366 282.712 72.992 275.334C74.618 267.966 77.14 260.587 80.549 253.209C83.947 245.841 87.917 239.207 92.459 233.32C96.997 227.431 102.528 222.657 109.053 218.963C115.574 215.278 122.455 213.432 129.688 213.432C143.452 213.432 153.407 217.72 159.581 226.309C165.748 234.892 168.838 246.262 168.838 260.447M140.961 361.5H233.928L205.213 344.695H176.492C186.555 338.3160000000001 194.355 329.377 199.887 317.882C205.418 306.399 208.184 294.418 208.184 281.929C208.184 271.44 206.564 262.116 203.301 253.965C200.038 245.797 196.063 239.251 191.385 234.281C186.707 229.317 182.024 224.747 177.346 220.566C172.662 216.369 168.682 212.048 165.43 207.576C162.168 203.108 160.541 198.328 160.541 193.219C160.541 189.534 161.703 185.915 164.047 182.366C166.381 178.828 169.433 175.43 173.197 172.162C176.946 168.9 181.094 165.497 185.636 161.943C190.174 158.399 194.711 154.466 199.259 150.145C203.797 145.813 207.946 141.135 211.704 136.101C215.453 131.067 218.511 125.039 220.844 118.017C223.189 111.005 224.356 103.443 224.356 95.362C224.356 72.665 214.427 52.668 194.571 35.372C173.02 16.791 143.229 7.5 105.229 7.5C96.857 7.5 88.381 8.213 79.799 9.628C71.221 11.043 62.572 13.42 53.843 16.748C45.125 20.086 37.427 24.201 30.767 29.096C24.096 33.99 18.63 40.299 14.384 48.024C10.123 55.758 8 64.368 8 73.875C8 82.528 10.62 92.1 15.865 102.59C20.413 111.664 27.214 119.508 36.299 126.098C45.368 132.699 55.658 137.733 67.143 141.202C78.631 144.691 89.619 147.229 100.12 148.872C110.615 150.492 121.245 151.454 132.022 151.735C122.952 163.51 118.415 174.07 118.415 183.442C118.415 185.132 118.561 186.801 118.837 188.438C119.123 190.064 119.48 191.447 119.901 192.586C120.327 193.715 120.894 195.244 121.602 197.156C122.309 199.068 122.806 200.596 123.092 201.725C117.42 201.029 112.451 200.662 108.205 200.662C87.063 200.662 68.951 207.624 53.843 221.517C38.74 235.41 31.189 252.868 31.189 273.853C31.189 293.709 37.925 311.464 51.397 327.14C64.874 342.815 81.467 352.851 101.178 357.243C114.509 360.085 127.775 361.5 140.961 361.5M362 307.041V279.807H307.541V225.342H280.306V279.807H225.847V307.041H280.306V361.5H307.541V307.041H362z" />
    <glyph glyph-name="home"
      unicode="&#xEA0A;"
      horiz-adv-x="368.5" d=" M16.778 333.0180000000001H352.1110000000001V34.944H16.778V333.018z M148.661 145.543V46.186H92.482V159.141H33.335L186.524 312.317L337.916 160.917H275.819V46.186H219.638V145.543C219.639 145.543 185.623 210.006 148.661 145.543" />
    <glyph glyph-name="locked"
      unicode="&#xEA0B;"
      horiz-adv-x="368.5" d=" M58.648 342.871H310.738V27.759H58.648V342.871z M283.387 200.145H277.316V249.464C277.011 309.95 235.746 342.871 185.62 342.871C135.488 342.871 90.545 308.3810000000001 92.108 249.464L92.049 200.197C92.049 200.197 92.813 200.14 89.021 200.14C85.033 200.14 58.649 195.494 58.649 171.978V59.103C58.649 34.024 88.338 27.758 89.021 27.758H281.882C282.581 27.758 310.738 30.878 310.738 59.1030000000001V170.418C310.738 197.064 284.086 200.145 283.387 200.145M207.219 71.188H162.26L171.584 117.085C164.906 121.531 160.469 129.271 160.469 138.09C160.469 151.895 171.319 163.103 184.694 163.103C198.067 163.103 208.918 151.895 208.918 138.09C208.918 129.278 204.483 121.544 197.806 117.094L207.219 71.188zM134.516 200.145L134.577 248.805C134.577 280.1570000000001 153.702 305.237 184.696 305.237C215.389 305.237 234.813 283.296 234.813 248.805L234.837 200.145H134.516z" />
    <glyph glyph-name="mail"
      unicode="&#xEA0C;"
      horiz-adv-x="368.55" d=" M341.947 258.146L204.679 120.885C199.311 115.523 192.179 112.565 184.586 112.565C177.001 112.565 169.876 115.523 164.501 120.885L26.999 257.959V86.696C26.999 77.828 34.224 70.596 43.099 70.596H325.849C334.724 70.596 341.949 77.827 341.949 86.696V258.146z M30.371 273.825L32.348 271.742L173.209 131.343C176.261 128.284 180.3 126.621 184.601 126.621S192.935 128.284 195.98 131.329L338.63 273.986C341.868 277.298 342.749 282.439 340.819 286.9930000000001C338.689 292.055 333.795 294.952 327.4240000000001 294.952C307.5710000000001 294.952 53.962 294.999 43.2380000000001 294.999L42.2230000000001 294.886C41.9890000000001 294.8590000000001 41.7560000000001 294.8390000000001 41.5090000000001 294.8390000000001C35.1390000000001 294.8390000000001 30.2640000000001 291.9410000000001 28.1270000000001 286.886C26.197 282.332 27.079 277.204 30.371 273.825z" />
    <glyph glyph-name="mobile"
      unicode="&#xEA0D;"
      horiz-adv-x="448" d=" M288.61 418.736H159.376C133.236 418.736 112.064 397.177 112.064 370.587V77.411C112.064 50.823 133.241 29.264 159.376 29.264H288.61C314.755 29.264 335.937 50.824 335.937 77.411V370.582C335.937 397.1720000000001 314.754 418.736 288.61 418.736M224.012 54.715C211.275 54.715 200.959 65.018 200.959 77.741C200.959 90.46 211.274 100.754 224.012 100.754C236.721 100.754 247.029 90.46 247.029 77.741C247.029 65.018 236.726 54.715 224.012 54.715M306.763 120.039H141.238V365.216H306.7630000000001V120.039z" />
    <glyph glyph-name="phone"
      unicode="&#xEA0E;"
      horiz-adv-x="368.55" d=" M311.31 68.404C285.202 69.107 267.506 80.983 260.877 86.277C264.038 92.711 266.419 98.631 266.839 99.693C269.786 106.122 270.242 111.929 268.18 116.969C265.462 123.621 259.424 126.044 258.52 126.387C247.579 129.955 227.242 146.186 219.892 152.5C217.098 155.703 213.518 157.452 209.6 157.369C206.688 157.34 204.578 156.311 203.994 155.999C203.905 155.951 203.81 155.892 203.723 155.839C197.525 151.993 191.948 149.925 187.593 149.865C184.054 149.83 182.447 151.166 182.411 151.166C182.1280000000001 151.591 182.0920000000001 151.556 181.69 151.887C144.61 182.97 131.281 210.401 129.722 213.816C127.831 222.241 132.374 226.595 133.686 227.653C143.5820000000001 232.096 144.079 242.601 141.922 248.71C141.745 249.206 141.36 249.856 141.042 250.287C138.785 253.371 129.214 277.435 121.279 298.835C117.149 310.486 107.554 311.479 104.435 311.479C104.34 311.479 104.234 311.479 104.157 311.479C102.887 311.443 102.131 311.302 102.131 311.302C101.918 311.255 101.623 311.196 101.422 311.125L64.093 299.379C63.343 299.1430000000001 62.652 298.747 62.072 298.221C55.715 292.461 57.186 283.262 59.153 278.476C88.907 179.248 166.617 111.387 169.826 108.622C197.453 83.672 222.018 68.547 239.016 66.0289999999999C246.6910000000001 64.8829999999999 252.3570000000001 71.129 255.742 76.4329999999999C264.534 69.7499999999999 283.5470000000001 58.259 311.019 57.521C311.073 57.521 311.1260000000001 57.521 311.173 57.521C314.11 57.521 316.537 59.8729999999999 316.609 62.821C316.698 65.822 314.322 68.327 311.31 68.404z" />
    <glyph glyph-name="photocopy"
      unicode="&#xEA0F;"
      horiz-adv-x="448" d=" M89.35 34.477L164.355 34.477L164.355 292.838L89.35 292.838L89.35 245.318L43.159 270.249L43.203 228.579L89.35 201.512z M438.132 312.209L408.966 342.841L242.282 342.841L242.282 355.208L333.055 382.335L333.032 413.523L241.508 386.879L179.775 386.879L179.775 342.841L179.775 312.209z M375.63 292.838H179.775V34.861H438.131V202.551V292.839H375.63zM362.451 153.838H260.923V178.537H362.451V153.838zM362.451 96.193H260.923V120.886H362.451V96.193z" />
    <glyph glyph-name="play"
      unicode="&#xEA10;"
      horiz-adv-x="448" d=" M394.125 216.25L62.125 31.75C58.291 29.584 55 29.334 52.25 31S48.125 35.666 48.125 40V408C48.125 412.333 49.5 415.333 52.25 417C55 418.666 58.291 418.416 62.125 416.25L394.125 231.75C397.9580000000001 229.583 399.875 227 399.875 224S397.9580000000001 218.416 394.125 216.25z" />
    <glyph glyph-name="plus"
      unicode="&#xEA11;"
      horiz-adv-x="368.5" d=" M184.254 354.885C90.022 354.885 13.619 278.483 13.619 184.258C13.619 90.026 90.021 13.615 184.254 13.615C278.479 13.615 354.881 90.025 354.881 184.258C354.881 278.483 278.479 354.885 184.254 354.885zM269.568 173.158H195.34V98.935H173.16V173.158H98.934V191.933H173.162V269.564H195.342V191.933H269.57V173.158z" />
    <glyph glyph-name="poi"
      unicode="&#xEA12;"
      horiz-adv-x="368.5" d=" M68 356.54H300.459V12.5H68V356.54z M184.23 356.54C120.04 356.54 68 304.499 68 240.311C68 176.121 184.23 12.5 184.23 12.5S300.459 176.121 300.459 240.311C300.459 304.499 248.42 356.54 184.23 356.54M184.23 182.195C152.139 182.195 126.114 208.219 126.114 240.31C126.114 272.4 152.138 298.424 184.23 298.424C216.32 298.424 242.344 272.4 242.344 240.31C242.345 208.22 216.32 182.195 184.23 182.195" />
    <glyph glyph-name="screen"
      unicode="&#xEA13;"
      horiz-adv-x="448" d=" M280.723 81.855C280.723 81.855 280.6910000000001 81.898 280.64 81.898C279.688 82.6710000000001 272.053 88.847 268.13 95.029C268.13 95.029 266.871 95.072 265.754 105.222C264.1160000000001 119.591 262.745 130.745 262.745 130.745H185.32C185.32 130.745 183.921 119.591 182.31 105.222C181.146 95.072 179.908 95.029 179.908 95.029C175.734 88.457 167.305 81.867 167.305 81.867S161.802 76.33 168.744 75.3730000000001C169.03 75.3340000000001 169.347 75.2950000000001 169.713 75.2480000000001C170.03 75.2090000000001 170.35 75.2090000000001 170.636 75.2090000000001C172.643 75.1230000000001 176.575 75.0530000000001 181.753 75.0040000000001C183.313 75.0040000000001 185.364 74.9610000000001 187.854 74.9610000000001C196.803 74.9180000000001 211.13 74.8750000000001 225.82 74.8750000000001C234.33 74.8750000000001 242.902 74.8750000000001 250.662 74.9180000000001C255.917 74.9610000000001 260.367 74.9610000000001 263.622 74.9610000000001C265.748 75.0040000000001 267.673 75.0040000000001 269.439 75.0040000000001C272.652 75.0840000000001 275.177 75.1230000000001 276.828 75.1660000000001C277.467 75.2090000000001 277.991 75.2090000000001 278.351 75.2480000000001C280.475 75.412 281.682 75.891 282.286 76.5740000000001C283.478 77.9800000000001 282.236 80.0290000000001 281.365 81.1030000000001C281.008 81.582 280.723 81.855 280.723 81.855z M410.359 373.125H225.285H222.725H37.643C37.643 373.125 28.628 372.711 28.628 365.5V144.973C28.628 144.973 29.237 136.551 37.643 135.959C45.738 135.383 211.805 135.908 224.52 135.959C243.253 135.904 402.4500000000001 135.395 410.3590000000001 135.959C418.7750000000001 136.547 419.3730000000001 144.973 419.3730000000001 144.973V365.5C419.372 372.711 410.359 373.125 410.359 373.125zM396.171 162.611H52.28V350.262H396.1720000000001V162.611z" />
    <glyph glyph-name="share"
      unicode="&#xEA14;"
      horiz-adv-x="368.5" d=" M63.499 308.5H305.048V61.352H63.499V308.5z M261.687 148.062C250.459 148.062 240.258 143.759 232.555 136.754L149.664 179.024C149.995 181.177 150.218 183.373 150.218 185.626C150.218 186.894 150.135 188.142 150.027 189.379L233.704 232.045C241.261 225.6490000000001 251.018 221.784 261.69 221.784C285.633 221.784 305.044 241.1910000000001 305.044 265.141C305.044 289.088 285.633 308.5010000000001 261.69 308.5010000000001C237.743 308.5010000000001 218.332 289.091 218.332 265.141C218.332 263.819 218.412 262.5130000000001 218.527 261.2270000000001L134.956 218.613C127.39 225.0680000000001 117.589 228.986 106.864 228.986C82.917 228.986 63.499 209.571 63.499 185.626C63.499 161.6760000000001 82.916 142.261 106.864 142.261C116.522 142.261 125.406 145.46 132.612 150.797L218.443 107.036C218.399 106.263 218.325 105.496 218.325 104.71C218.325 80.761 237.74 61.352 261.687 61.352C285.63 61.352 305.044 80.761 305.044 104.71C305.044 128.65 285.63 148.062 261.687 148.062" />
    <glyph glyph-name="shop"
      unicode="&#xEA15;"
      horiz-adv-x="368.5" d=" M62.648 249.398H226.861V51.5H62.648V249.398z M235.282 249.398H306.8590000000001V51.5H235.2820000000001V249.398z M158.117 295.668C177.476 295.668 186.155 274.6620000000001 186.155 253.609H207.186C207.186 283.0830000000001 189.086 316.7 158.117 316.7C127.14 316.7 109.046 283.0830000000001 109.046 253.609H130.074C130.074 274.6620000000001 138.756 295.668 158.117 295.668z M186.154 311.159C186.154 311.159 192.732 306.318 199.517 295.577C199.517 295.573 202.584 296.866 207.185 296.646C226.521 295.729 235.225 274.6620000000001 235.225 253.608H256.254C256.254 283.082 238.1490000000001 317.674 207.185 317.674C207.185 317.674 207.005 317.678 206.734 317.68H206.459C203.519 317.671 192.215 317.222 186.154 311.159z" />
  </font>
</defs>
</svg>
