<?xml version="1.0" encoding="utf-8"?>
<!-- Generated by IcoMoon.io -->
<!DOCTYPE svg PUBLIC "-//W3C//DTD SVG 1.1//EN" "http://www.w3.org/Graphics/SVG/1.1/DTD/svg11.dtd">
<svg version="1.1" xmlns="http://www.w3.org/2000/svg" xmlns:xlink="http://www.w3.org/1999/xlink" width="32" height="32" viewBox="0 0 32 32">
<path fill="#000" d="M31.233 13.331h-25.743v1.956h24.119v10.441h1.625z"></path>
<path d="M3.036 16.099v12.57h25.755v-12.569h-25.755zM17.692 21.413l-0.326 0.756h-2.356l-0.011 0.441h2.24l-0.326 0.757h-1.829c0.225 1.107 0.742 1.663 1.554 1.663 0.527 0 1.067-0.221 1.62-0.664l-0.010 1.589c-0.47 0.274-1.010 0.41-1.62 0.41-0.883 0-1.594-0.284-2.133-0.852-0.491-0.511-0.809-1.226-0.957-2.145h-0.809l0.326-0.755h0.421v-0.274c0-0.098 0.003-0.155 0.011-0.169h-0.767l0.327-0.756h0.537c0.168-0.848 0.516-1.518 1.040-2.009 0.554-0.532 1.249-0.798 2.083-0.798 0.589 0 1.228 0.174 1.914 0.524l-0.642 1.316c-0.491-0.315-0.951-0.473-1.378-0.473-0.736 0-1.227 0.48-1.472 1.44h2.565z"></path>
</svg>
