<?xml version="1.0" encoding="utf-8"?>
<!-- Generated by IcoMoon.io -->
<!DOCTYPE svg PUBLIC "-//W3C//DTD SVG 1.1//EN" "http://www.w3.org/Graphics/SVG/1.1/DTD/svg11.dtd">
<svg version="1.1" xmlns="http://www.w3.org/2000/svg" xmlns:xlink="http://www.w3.org/1999/xlink" width="32" height="32" viewBox="0 0 32 32">
<path fill="#000" d="M28.898 6.080h-2.437v-2.388c0-1.009-0.812-1.822-1.822-1.822s-1.822 0.812-1.822 1.822v2.388h-13.563v-2.388c0-1.009-0.812-1.822-1.822-1.822s-1.822 0.812-1.822 1.822v2.388h-2.437c-1.329 0-2.388 1.083-2.388 2.388v18.757c0 1.329 1.083 2.388 2.388 2.388h25.723c1.329 0 2.388-1.083 2.388-2.388v-18.757c0-1.305-1.058-2.388-2.388-2.388zM12.923 24.32h-2.954v-9.674l-2.732 2.388v-3.151l2.732-2.388h2.954v12.825zM24.812 21.662v2.658h-8.246v-2.658l4.652-5.046c0.468-0.492 0.64-0.837 0.64-1.378 0-0.714-0.394-1.182-1.157-1.182-0.542 0-1.182 0.246-1.182 1.231h-2.954c0-2.511 1.92-3.914 4.135-3.914 2.388 0 4.111 1.452 4.111 3.865 0 1.354-0.566 2.068-1.575 3.151l-3.052 3.274h4.628z"></path>
</svg>
