<?xml version="1.0" encoding="utf-8"?>
<!-- Generated by IcoMoon.io -->
<!DOCTYPE svg PUBLIC "-//W3C//DTD SVG 1.1//EN" "http://www.w3.org/Graphics/SVG/1.1/DTD/svg11.dtd">
<svg version="1.1" xmlns="http://www.w3.org/2000/svg" xmlns:xlink="http://www.w3.org/1999/xlink" width="32" height="32" viewBox="0 0 32 32">
<path fill="#000" d="M31.19 10.486l-2.836-2.836c0.318-0.53 0.504-1.166 0.504-1.829 0-1.962-1.697-3.658-3.658-3.658s-3.526 1.591-3.526 3.552 1.697 3.658 3.658 3.658c0.663 0 1.246-0.159 1.776-0.477l2.863 2.863c0.212 0.212 0.557 0.212 0.769 0l0.53-0.53c0.212-0.265 0.133-0.53-0.080-0.742zM25.305 8.498c-1.485 0-2.81-1.325-2.81-2.81s1.219-2.677 2.704-2.677 2.81 1.325 2.81 2.81c0 1.458-1.219 2.677-2.704 2.677z"></path>
<path d="M19.791 6.775c0-0.689 0.106-1.352 0.292-1.988h-15.428c-1.617 0-2.041 0.875-1.909 2.094v0.848h-0.716c-0.53 0-0.928 0.424-0.928 0.954s0.424 0.954 0.928 0.954h0.716v3.87h-0.716c-0.53 0-0.928 0.424-0.928 0.954s0.424 0.954 0.928 0.954h0.716v3.923h-0.742c-0.53 0-0.928 0.424-0.928 0.954s0.424 0.954 0.928 0.954h0.742v4.162h-0.742c-0.53 0-0.928 0.424-0.928 0.954s0.424 0.954 0.928 0.954h0.769v0.928c0 1.538 0.318 2.227 1.856 2.227h21.525c1.856 0 1.988-0.027 1.988-1.882v-14.977c-0.451 0.080-0.928 0.133-1.405 0.133-3.817 0-6.945-3.128-6.945-6.972zM15.364 11.149c1.431 0 2.571 1.14 2.571 2.571s-1.14 2.571-2.571 2.571c-1.431 0-2.571-1.14-2.571-2.571s1.14-2.571 2.571-2.571zM21.355 24.748h-2.227v-3.711h-0.504v3.711h-6.468v-3.711h-0.53v3.711h-2.227v-4.374c0-1.856 1.458-3.367 3.261-3.367h5.381c1.988 0 3.314 1.67 3.314 3.393v4.347z"></path>
</svg>
