<?xml version="1.0" encoding="utf-8"?>
<!-- Generated by IcoMoon.io -->
<!DOCTYPE svg PUBLIC "-//W3C//DTD SVG 1.1//EN" "http://www.w3.org/Graphics/SVG/1.1/DTD/svg11.dtd">
<svg version="1.1" xmlns="http://www.w3.org/2000/svg" xmlns:xlink="http://www.w3.org/1999/xlink" width="32" height="32" viewBox="0 0 32 32">
<path d="M20.664 1.899h-9.328c-1.887 0-3.415 1.556-3.415 3.475v21.161c0 1.919 1.529 3.475 3.415 3.475h9.328c1.887 0 3.416-1.556 3.416-3.475v-21.161c0-1.919-1.529-3.476-3.416-3.476zM16.002 28.173c-0.919 0-1.664-0.744-1.664-1.662s0.745-1.661 1.664-1.661c0.917 0 1.661 0.743 1.661 1.661s-0.744 1.662-1.661 1.662zM21.974 23.459h-11.947v-17.696h11.947v17.696z"></path>
</svg>
