<?xml version="1.0" encoding="utf-8"?>
<!-- Generated by IcoMoon.io -->
<!DOCTYPE svg PUBLIC "-//W3C//DTD SVG 1.1//EN" "http://www.w3.org/Graphics/SVG/1.1/DTD/svg11.dtd">
<svg version="1.1" xmlns="http://www.w3.org/2000/svg" xmlns:xlink="http://www.w3.org/1999/xlink" width="32" height="32" viewBox="0 0 32 32">
<path fill="#000" d="M29.903 12.935h-25.687c-0.641 0-1.181 0.571-1.181 1.181v15.768c0 0.787 0.692 1.181 1.181 1.181h25.687c0.749 0 1.356-0.607 1.356-1.356v-15.418c0-0.748-0.607-1.356-1.356-1.356zM8.553 19.318h10.486v5.437h-10.486v-5.437zM26.487 20.921l-0.323 0.747h-2.328l-0.011 0.436h2.213l-0.322 0.748h-1.808c0.222 1.093 0.734 1.644 1.537 1.644 0.52 0 1.055-0.219 1.6-0.657l-0.010 1.571c-0.463 0.27-0.997 0.405-1.6 0.405-0.874 0-1.575-0.28-2.109-0.842-0.485-0.505-0.799-1.212-0.947-2.12h-0.799l0.322-0.746h0.417v-0.271c0-0.097 0.002-0.154 0.010-0.167h-0.758l0.324-0.747h0.529c0.166-0.839 0.51-1.501 1.028-1.985 0.548-0.526 1.235-0.789 2.058-0.789 0.582 0 1.215 0.172 1.892 0.518l-0.635 1.301c-0.484-0.312-0.94-0.468-1.362-0.468-0.727 0-1.212 0.474-1.454 1.423h2.534z"></path>
</svg>
