<?xml version="1.0" encoding="utf-8"?>
<!-- Generator: Adobe Illustrator 15.0.0, SVG Export Plug-In . SVG Version: 6.00 Build 0)  -->
<!DOCTYPE svg PUBLIC "-//W3C//DTD SVG 1.1//EN" "http://www.w3.org/Graphics/SVG/1.1/DTD/svg11.dtd">
<svg version="1.1" id="Calque_1" xmlns="http://www.w3.org/2000/svg" xmlns:xlink="http://www.w3.org/1999/xlink" x="0px" y="0px"
	 width="368.5px" height="368.5px" viewBox="0 0 368.5 368.5" enable-background="new 0 0 368.5 368.5" xml:space="preserve">
<g>
	<polygon fill="#010101" points="209.166,179.558 192.689,189.068 192.695,359.971 340.674,274.518 340.674,103.628 	"/>
	<polygon fill="#010101" points="247.602,44.64 188.141,10.302 40.162,95.747 99.624,130.082 	"/>
	<polygon fill="#010101" points="336.115,95.744 269.609,57.345 121.624,142.792 132.784,149.226 188.141,181.193 243.195,149.402 	
		"/>
	<polygon fill="#010101" points="116.908,196.207 115.823,198.244 114.358,194.926 112.885,196.871 111.786,193.652 109.85,195.35 
		108.915,192.133 106.913,193.51 105.77,190.191 104.034,191.893 102.881,188.252 101.23,190.473 100.422,186.975 98.571,189.291 
		97.431,185.82 96.112,187.916 95.406,185.07 95.406,138.15 35.617,103.628 35.612,274.518 183.588,359.965 183.592,189.068 
		116.908,150.568 	"/>
</g>
</svg>
