<?xml version="1.0" encoding="utf-8"?>
<!-- Generated by IcoMoon.io -->
<!DOCTYPE svg PUBLIC "-//W3C//DTD SVG 1.1//EN" "http://www.w3.org/Graphics/SVG/1.1/DTD/svg11.dtd">
<svg version="1.1" xmlns="http://www.w3.org/2000/svg" xmlns:xlink="http://www.w3.org/1999/xlink" width="32" height="32" viewBox="0 0 32 32">
<path fill="#000" d="M17.866 17.853l-1.234 0.712 0 12.797 11.080-6.398v-12.796z"></path>
<path d="M20.744 7.751l-4.452-2.571-11.080 6.398 4.452 2.571z"></path>
<path d="M27.371 11.577l-4.98-2.875-11.081 6.398 4.981 2.875 4.122-2.38z"></path>
<path d="M10.958 19.099l-0.081 0.153-0.11-0.248-0.11 0.146-0.082-0.241-0.145 0.127-0.070-0.241-0.15 0.103-0.086-0.248-0.13 0.127-0.086-0.273-0.124 0.166-0.060-0.262-0.139 0.173-0.085-0.26-0.099 0.157-0.053-0.213v-3.513l-4.477-2.585-0 12.796 11.080 6.398 0-12.796-4.993-2.883z"></path>
</svg>
