<?xml version="1.0" encoding="utf-8"?>
<!-- Generated by IcoMoon.io -->
<!DOCTYPE svg PUBLIC "-//W3C//DTD SVG 1.1//EN" "http://www.w3.org/Graphics/SVG/1.1/DTD/svg11.dtd">
<svg version="1.1" xmlns="http://www.w3.org/2000/svg" xmlns:xlink="http://www.w3.org/1999/xlink" width="32" height="32" viewBox="0 0 32 32">
<path d="M0.108 21.647c12.289-3.092 20.437-5.432 31.355-7.476 0.323-0.054 0.538-0.188 0-0.188l-18.931 0.35c0.081 0.78-0.753 1.882-2.474 2.931-0.887 0.538-2.877 1.613-9.976 4.276-0.081 0.027-0.027 0.108 0.027 0.108z"></path>
<path d="M20.087 17.372l-2.151 2.77c-0.296 0.403-0.887 1.049-1.694 1.076l-13.15 0.43c-0.081 0-0.054-0.054-0.027-0.054l16.968-4.276c0.108-0.054 0.108 0 0.054 0.054z"></path>
<path d="M23.018 10.353c1.694 0.027 1.64 1.076 0.86 2.124-0.323 0.43-0.43 0.592-0.753 0.968l-10.891 0.108c-1.479-1.345-4.329-2.42-6.050-3.039-0.323-0.134-0.134-0.134 0.134-0.134 1.64 0.027 15.812-0.027 16.699-0.027z"></path>
</svg>
