<?xml version="1.0" encoding="utf-8"?>
<!-- Generator: Adobe Illustrator 18.1.1, SVG Export Plug-In . SVG Version: 6.00 Build 0)  -->
<svg version="1.1" id="Calque_1" xmlns="http://www.w3.org/2000/svg" xmlns:xlink="http://www.w3.org/1999/xlink" x="0px" y="0px"
	 viewBox="0 0 130 130" enable-background="new 0 0 130 130" xml:space="preserve">
<g>
	<path fill="#001C86" d="M6.1,86.9c45.7-11.5,76-20.2,116.6-27.8c1.2-0.2,2-0.7,0-0.7l-70.4,1.3c0.3,2.9-2.8,7-9.2,10.9
		c-3.3,2-10.7,6-37.1,15.9C5.7,86.6,5.9,86.9,6.1,86.9z"/>
	<path fill="#001C86" d="M80.4,71l-8,10.3c-1.1,1.5-3.3,3.9-6.3,4l-48.9,1.6c-0.3,0-0.2-0.2-0.1-0.2l63.1-15.9
		C80.6,70.6,80.6,70.8,80.4,71z"/>
	<path fill="#001C86" d="M91.3,44.9c6.3,0.1,6.1,4,3.2,7.9c-1.2,1.6-1.6,2.2-2.8,3.6l-40.5,0.4c-5.5-5-16.1-9-22.5-11.3
		c-1.2-0.5-0.5-0.5,0.5-0.5C35.3,45.1,88,44.9,91.3,44.9z"/>
</g>
</svg>
