<?xml version="1.0" encoding="utf-8"?>
<!-- Generated by IcoMoon.io -->
<!DOCTYPE svg PUBLIC "-//W3C//DTD SVG 1.1//EN" "http://www.w3.org/Graphics/SVG/1.1/DTD/svg11.dtd">
<svg version="1.1" xmlns="http://www.w3.org/2000/svg" xmlns:xlink="http://www.w3.org/1999/xlink" width="32" height="32" viewBox="0 0 32 32">
<path d="M16 28.57c-6.923 0-12.57-5.622-12.57-12.57s5.622-12.57 12.57-12.57c6.923 0 12.57 5.622 12.57 12.57s-5.647 12.57-12.57 12.57zM16 6.155c-5.426 0-9.87 4.419-9.87 9.87s4.419 9.87 9.87 9.87c5.426 0 9.87-4.419 9.87-9.87s-4.444-9.87-9.87-9.87z"></path>
<path d="M17.178 9.739v5.033h4.812v2.161h-4.812v5.082h-2.259v-5.082h-4.812v-2.16h4.812v-5.033h2.259z"></path>
</svg>
