<?xml version="1.0" encoding="utf-8"?>
<!-- Generator: Adobe Illustrator 15.0.0, SVG Export Plug-In . SVG Version: 6.00 Build 0)  -->
<!DOCTYPE svg PUBLIC "-//W3C//DTD SVG 1.1//EN" "http://www.w3.org/Graphics/SVG/1.1/DTD/svg11.dtd">
<svg version="1.1" id="Calque_1" xmlns="http://www.w3.org/2000/svg" xmlns:xlink="http://www.w3.org/1999/xlink" x="0px" y="0px"
	 width="368.5px" height="368.5px" viewBox="0 0 368.5 368.5" enable-background="new 0 0 368.5 368.5" xml:space="preserve">
<g>
	<defs>
		<rect id="SVGID_1_" x="60.055" y="27" width="252.928" height="314.058"/>
	</defs>
	<clipPath id="SVGID_2_">
		<use xlink:href="#SVGID_1_"  overflow="visible"/>
	</clipPath>
	<path clip-path="url(#SVGID_2_)" fill="#010101" d="M186.357,105.283c-36.425,0-65.971,29.541-65.971,65.992
		c0,11.998,3.365,23.152,8.795,32.939c16.197,29.198,20.498,45.591,23.145,61.455c2.215,13.296,5.278,16.386,15.318,16.386h18.713
		h18.713c10.06,0,13.123-3.09,15.339-16.386c2.656-15.871,6.946-32.265,23.14-61.455c5.451-9.787,8.799-20.941,8.799-32.939
		C252.359,134.82,222.812,105.283,186.357,105.283"/>
	<path clip-path="url(#SVGID_2_)" fill="#010101" d="M209.962,286.833h-47.163c-1.963,0-3.542,1.578-3.542,3.533v2.363
		c0,1.946,1.579,3.534,3.542,3.534h47.163c1.933,0,3.519-1.588,3.519-3.534v-2.363C213.489,288.411,211.895,286.833,209.962,286.833
		"/>
	<path clip-path="url(#SVGID_2_)" fill="#010101" d="M209.962,300.979h-47.163c-1.963,0-3.542,1.572-3.542,3.536v2.36
		c0,1.948,1.579,3.528,3.542,3.528h47.163c1.933,0,3.519-1.58,3.519-3.528v-2.36C213.489,302.551,211.895,300.979,209.962,300.979"
		/>
	<path clip-path="url(#SVGID_2_)" fill="#010101" d="M209.962,315.125h-47.163c-1.963,0-3.542,1.58-3.542,3.535v2.362
		c0,1.954,1.579,3.535,3.542,3.535h47.163c1.933,0,3.519-1.581,3.519-3.535v-2.362C213.489,316.705,211.895,315.125,209.962,315.125
		"/>
	<path clip-path="url(#SVGID_2_)" fill="#010101" d="M168.688,329.272h35.386c0,7.069-9.45,11.785-17.716,11.785
		C178.123,341.058,168.688,336.342,168.688,329.272"/>
	<path clip-path="url(#SVGID_2_)" fill="#010101" d="M262.144,58.826c6.015-10.534-10.225-19.99-16.29-9.478
		c-3.179,5.492-26.158,45.308-26.158,45.308l16.345,9.429c0,0,20.409-35.396,26.084-45.215c0.012-0.006,0.012-0.014,0.012-0.014
		L262.144,58.826z"/>
	<path clip-path="url(#SVGID_2_)" fill="#010101" d="M298.928,95.701L298.928,95.701l-0.015,0.012l-0.031,0.004
		c-8.288,4.793-43.836,25.317-43.836,25.317l9.417,16.331c0,0,35.63-20.566,43.919-25.354
		C318.925,105.936,309.463,89.678,298.928,95.701"/>
	<path clip-path="url(#SVGID_2_)" fill="#010101" d="M196.146,36.122v50.297h-18.866V36.122
		C177.279,23.96,196.146,23.96,196.146,36.122"/>
	<path clip-path="url(#SVGID_2_)" fill="#010101" d="M110.898,58.826c-6.012-10.534,10.229-19.99,16.301-9.478
		c3.17,5.492,26.146,45.308,26.146,45.308l-16.323,9.429c0,0-20.441-35.396-26.111-45.215v-0.014L110.898,58.826z"/>
	<path clip-path="url(#SVGID_2_)" fill="#010101" d="M74.132,95.701L74.132,95.701v0.012l0.023,0.004
		c8.312,4.793,43.843,25.317,43.843,25.317l-9.432,16.331c0,0-35.631-20.566-43.919-25.354
		C54.116,105.936,63.578,89.678,74.132,95.701"/>
</g>
</svg>
