<?xml version="1.0" encoding="utf-8"?>
<!-- Generated by IcoMoon.io -->
<!DOCTYPE svg PUBLIC "-//W3C//DTD SVG 1.1//EN" "http://www.w3.org/Graphics/SVG/1.1/DTD/svg11.dtd">
<svg version="1.1" xmlns="http://www.w3.org/2000/svg" xmlns:xlink="http://www.w3.org/1999/xlink" width="32" height="32" viewBox="0 0 32 32">
<path d="M16.212 8.047c-3.668 0-6.644 2.975-6.644 6.646 0 1.208 0.339 2.332 0.886 3.317 1.631 2.941 2.064 4.592 2.331 6.189 0.223 1.339 0.532 1.65 1.543 1.65h3.769c1.013 0 1.322-0.311 1.545-1.65 0.267-1.598 0.7-3.249 2.33-6.189 0.549-0.986 0.886-2.109 0.886-3.317 0.001-3.671-2.975-6.646-6.646-6.646z"></path>
<path d="M18.59 26.331h-4.75c-0.198 0-0.357 0.159-0.357 0.356v0.238c0 0.196 0.159 0.356 0.357 0.356h4.75c0.195 0 0.354-0.16 0.354-0.356v-0.238c0.001-0.197-0.16-0.356-0.354-0.356z"></path>
<path d="M18.59 27.756h-4.75c-0.198 0-0.357 0.158-0.357 0.356v0.238c0 0.196 0.159 0.355 0.357 0.355h4.75c0.195 0 0.354-0.159 0.354-0.355v-0.238c0.001-0.198-0.16-0.356-0.354-0.356z"></path>
<path d="M18.59 29.181h-4.75c-0.198 0-0.357 0.159-0.357 0.356v0.238c0 0.197 0.159 0.356 0.357 0.356h4.75c0.195 0 0.354-0.159 0.354-0.356v-0.238c0.001-0.197-0.16-0.356-0.354-0.356z"></path>
<path d="M14.433 30.605h3.564c0 0.712-0.952 1.187-1.784 1.187-0.829 0-1.78-0.475-1.78-1.187z"></path>
<path d="M23.845 3.368c0.606-1.061-1.030-2.013-1.641-0.955-0.32 0.553-2.634 4.563-2.634 4.563l1.646 0.95c0 0 2.055-3.565 2.627-4.554 0.001-0.001 0.001-0.001 0.001-0.001l0.001-0.003z"></path>
<path d="M27.549 7.082v0l-0.002 0.001-0.003 0c-0.835 0.483-4.415 2.55-4.415 2.55l0.948 1.645c0 0 3.588-2.071 4.423-2.553 1.062-0.612 0.109-2.249-0.952-1.643z"></path>
<path d="M17.198 1.082v5.066h-1.9v-5.066c-0-1.225 1.9-1.225 1.9 0z"></path>
<path d="M8.613 3.368c-0.605-1.061 1.030-2.013 1.642-0.955 0.319 0.553 2.633 4.563 2.633 4.563l-1.644 0.95c0 0-2.059-3.565-2.63-4.554v-0.001l-0.001-0.003z"></path>
<path d="M4.91 7.082v0 0.001l0.002 0c0.837 0.483 4.416 2.55 4.416 2.55l-0.95 1.645c0 0-3.588-2.071-4.423-2.553-1.061-0.612-0.108-2.249 0.955-1.643z"></path>
</svg>
