<?xml version="1.0" encoding="utf-8"?>
<!-- Generator: Adobe Illustrator 18.1.1, SVG Export Plug-In . SVG Version: 6.00 Build 0)  -->
<svg version="1.1" xmlns="http://www.w3.org/2000/svg" xmlns:xlink="http://www.w3.org/1999/xlink" x="0px" y="0px"
	 viewBox="0 0 130 130" enable-background="new 0 0 130 130" xml:space="preserve">
<g id="Calque_2" display="none">
</g>
<g id="Calque_3" display="none">
</g>
<g id="Calque_1" display="none">
	<g display="inline">
		<path d="M121.8,44.4l-11.1-11.1c1.2-2.1,2-4.5,2-7.2c0-7.6-6.6-14.2-14.2-14.2c-7.6,0-13.7,6.2-13.7,13.8
			c0,7.6,6.6,14.2,14.2,14.2c2.5,0,4.9-0.7,6.9-1.9L117,49.2c0.8,0.8,2.2,0.8,3,0l2.1-2.1C122.9,46.2,122.6,45.2,121.8,44.4z
			 M98.9,36.6c-5.7,0-10.9-5.1-10.9-10.9c0-5.8,4.7-10.5,10.5-10.5c5.8,0,10.9,5.2,10.9,10.9C109.4,32,104.7,36.6,98.9,36.6z"/>
		<path d="M42.7,68.2c2.9,1,7.8,2.9,10.3,5.2l18.6-0.2c0.5-0.6,0.7-0.9,1.3-1.7c1.3-1.8,1.4-3.6-1.5-3.6C70,67.9,45.8,68,43,68
			C42.5,68,42.2,68,42.7,68.2z"/>
		<path d="M37.4,87c-0.1,0-0.1,0.1,0,0.1l22.4-0.7c1.4-0.1,2.4-1.1,2.9-1.8l3.7-4.7c0.1-0.1,0.1-0.2-0.1-0.1L37.4,87z"/>
		<path d="M76.2,31.3c0-0.9,0-1.8,0.1-2.7l-18.5-7.3L7.7,41.1v79.3h100.2V57.8c-1.5,0.3-3.1,0.4-4.7,0.4
			C88.3,58.3,76.2,46.2,76.2,31.3z M85.4,85.8c-1,1.3-2.1,2.5-3.3,3.6c-2.4,2.4-5.3,4.5-8.5,6.3c-2.2,1.3-4.7,2.4-7.2,3.3
			c-1.6,0.6-3.1,1-4.7,1.4c-5.7,1.5-11.3,1.7-16.3,1c-0.8-0.1-1.5-0.2-2.2-0.4c-4-0.9-7.5-2.4-10.3-4.5c-1.3-1-2.4-2.1-3.4-3.3
			c-1-1.3-1.8-2.7-2.4-4.3c-1.9-5.2-0.9-10.7,1.6-15.5c1-1.9,2.3-3.7,3.7-5.4c0.7-0.8,1.5-1.6,2.3-2.4c2.8-2.8,6.3-5.3,10.3-7.3
			c0.7-0.4,1.5-0.7,2.3-1.1c1-0.5,2.1-0.9,3.2-1.3c4.4-1.6,8.8-2.5,13-2.8c7-0.4,14.7,0.9,20.4,5.3c0.8,0.6,1.6,1.3,2.3,2
			c1.5,1.7,2.8,3.6,3.5,5.7C92.2,73,89.7,80.3,85.4,85.8z"/>
		<path d="M85.9,74l-32.3,0.6c0.1,1.3-1.3,3.2-4.2,5c-1.5,0.9-4.9,2.7-17.1,7.3c-0.2,0.1-0.1,0.2,0,0.2c21-5.3,34.9-9.3,53.6-12.8
			C86.5,74.3,86.8,74.1,85.9,74z"/>
	</g>
</g>
<g id="Calque_4" display="none">
</g>
<g id="Calque_5" display="none">
	<g display="inline">
		<path fill="#010101" d="M121.8,44.4l-11-11c1.2-2.1,2-4.5,2-7.1c0-7.5-6.5-14-14-14c-7.5,0-13.6,6.1-13.6,13.6c0,7.5,6.5,14,14,14
			c2.5,0,4.8-0.7,6.9-1.8l11,11c0.8,0.8,2.2,0.8,2.9,0l2.1-2.1C123,46.2,122.7,45.2,121.8,44.4z M99.3,36.7
			c-5.7,0-10.8-5.1-10.8-10.8s4.6-10.3,10.3-10.3c5.7,0,10.8,5.1,10.8,10.8C109.6,32.1,105,36.7,99.3,36.7z"/>
		<path fill="#010101" d="M88.5,48.6c-4.1-4.1-6.8-9.6-7.3-15.8l-23-9.1l-23.1,8.1l47.9,18.5L88.5,48.6z"/>
		<polygon fill="#010101" points="33.7,32.5 10.1,40.9 58.3,58.1 81.2,50.8 		"/>
		<polygon fill="#010101" points="8,102 57.9,119.8 57.9,59.4 8,41.6 		"/>
		<path fill="#010101" d="M89.6,49.6l-30.4,9.7v60.5l45.1-14.1l4.8-1.5V55.4c-1.1,0.1-2.2,0.2-3.3,0.2
			C99.6,55.7,93.9,53.4,89.6,49.6z"/>
	</g>
</g>
<g id="Calque_6">
	<g>
		<rect x="62.3" y="80.1" fill="none" width="7.2" height="6.1"/>
		<rect x="62.3" y="22.1" fill="none" width="7.2" height="50.7"/>
		<path fill="#615F5F" d="M106.3,4.5H25C16.7,4.5,10,11.2,10,19.4v69.3c0,8.3,6.7,14.9,14.9,14.9h17.6c0.3,0.6,1.9,4.1,1.4,9.5
			c-0.5,5.9-6.7,11.7-6.7,11.7s13.9-2.7,20.5-8.8c6-5.6,9-12.3,9-12.3l-8.4-0.1h47.9c8.3,0,14.9-6.7,14.9-14.9V19.4
			C121.2,11.2,114.5,4.5,106.3,4.5z M69.6,86.3h-7.2v-6.1h7.2V86.3z M69.6,72.9h-7.2V22.1h7.2V72.9z"/>
	</g>
</g>
</svg>
