<?xml version="1.0" encoding="utf-8"?>
<!-- Generated by IcoMoon.io -->
<!DOCTYPE svg PUBLIC "-//W3C//DTD SVG 1.1//EN" "http://www.w3.org/Graphics/SVG/1.1/DTD/svg11.dtd">
<svg version="1.1" xmlns="http://www.w3.org/2000/svg" xmlns:xlink="http://www.w3.org/1999/xlink" width="32" height="32" viewBox="0 0 32 32">
<path fill="#000" d="M26.166 1.108h-20.012c-2.043 0-3.692 1.649-3.692 3.668v17.058c0 2.043 1.649 3.668 3.668 3.668h4.332c0.074 0.148 0.468 1.009 0.345 2.338-0.123 1.452-1.649 2.88-1.649 2.88s3.422-0.665 5.046-2.166c1.477-1.378 2.215-3.028 2.215-3.028l-2.068-0.025h11.791c2.043 0 3.668-1.649 3.668-3.668v-17.058c0.025-2.018-1.625-3.668-3.643-3.668zM17.132 21.243h-1.772v-1.502h1.772v1.502zM17.132 17.945h-1.772v-12.505h1.772v12.505z"></path>
</svg>
