<?xml version="1.0" encoding="utf-8"?>
<!-- Generator: Adobe Illustrator 18.1.1, SVG Export Plug-In . SVG Version: 6.00 Build 0)  -->
<svg version="1.1" id="Calque_1" xmlns="http://www.w3.org/2000/svg" xmlns:xlink="http://www.w3.org/1999/xlink" x="0px" y="0px"
	 viewBox="0 0 130 130" enable-background="new 0 0 130 130" xml:space="preserve">
<g>
	<path fill="#010101" d="M63.1,42.4h21.2v-5.2c0-6.9-5.4-12.6-12-12.6H16.6c-6.6,0-12,5.6-12,12.6v26.9c0,6.9,5.4,12.6,12,12.6h9.2
		c0,4.9,0,9.9,0,14.8c0,0.8,1.1,1.4,1.7,0.7c4.4-5.2,8.8-10.4,13.1-15.6h13c-0.2-0.8-0.3-1.6-0.3-2.4V52.6
		C53.3,46.9,57.7,42.4,63.1,42.4z"/>
	<path fill="#010101" d="M116,48.2H67.6c-4.8,0-8.8,4.1-8.8,9.2v24.2c0,5.1,3.9,9.2,8.8,9.2h23.1c3.2,3.8,6.4,7.6,9.6,11.3
		c0.4,0.5,1.2,0.1,1.2-0.5c0-3.6,0-7.2,0-10.8H116c4.8,0,8.8-4.1,8.8-9.2V57.3C124.8,52.3,120.8,48.2,116,48.2z"/>
</g>
</svg>
