<?xml version="1.0" encoding="utf-8"?>
<!-- Generated by IcoMoon.io -->
<!DOCTYPE svg PUBLIC "-//W3C//DTD SVG 1.1//EN" "http://www.w3.org/Graphics/SVG/1.1/DTD/svg11.dtd">
<svg version="1.1" xmlns="http://www.w3.org/2000/svg" xmlns:xlink="http://www.w3.org/1999/xlink" width="32" height="32" viewBox="0 0 32 32">
<path d="M15.574 10.356h5.644v-1.384c0-1.837-1.438-3.354-3.195-3.354h-14.829c-1.757 0-3.195 1.491-3.195 3.354v7.161c0 1.837 1.438 3.354 3.195 3.354h2.449c0 1.305 0 2.636 0 3.94 0 0.213 0.293 0.373 0.453 0.186 1.171-1.384 2.343-2.769 3.488-4.153h3.461c-0.053-0.213-0.080-0.426-0.080-0.639v-5.75c0-1.517 1.171-2.715 2.609-2.715z"></path>
<path d="M29.657 11.9h-12.885c-1.278 0-2.343 1.091-2.343 2.449v6.443c0 1.358 1.038 2.449 2.343 2.449h6.15c0.852 1.012 1.704 2.023 2.556 3.008 0.107 0.133 0.319 0.027 0.319-0.133 0-0.958 0-1.917 0-2.875h3.86c1.278 0 2.343-1.091 2.343-2.449v-6.469c0-1.331-1.065-2.423-2.343-2.423z"></path>
</svg>
