<?xml version="1.0" encoding="utf-8"?>
<!-- Generated by IcoMoon.io -->
<!DOCTYPE svg PUBLIC "-//W3C//DTD SVG 1.1//EN" "http://www.w3.org/Graphics/SVG/1.1/DTD/svg11.dtd">
<svg version="1.1" xmlns="http://www.w3.org/2000/svg" xmlns:xlink="http://www.w3.org/1999/xlink" width="32" height="32" viewBox="0 0 32 32">
<path d="M23.896 2.204h-15.743c-2.139 0-3.872 1.732-3.872 3.871v19.886c0 2.138 1.733 3.872 3.872 3.872h15.743c2.14 0 3.873-1.733 3.873-3.872v-19.886c0-2.14-1.733-3.871-3.873-3.871zM11.613 25.83c0 0.53-0.431 0.96-0.961 0.96h-2.725c-0.531 0-0.961-0.43-0.961-0.96v-0.963c0-0.53 0.43-0.96 0.961-0.96h2.724c0.531 0 0.961 0.43 0.961 0.96v0.963zM11.613 20.8c0 0.531-0.431 0.962-0.961 0.962h-2.725c-0.531 0-0.961-0.431-0.961-0.962v-0.962c0-0.53 0.43-0.961 0.961-0.961h2.724c0.531 0 0.961 0.431 0.961 0.961v0.962zM11.613 15.769c0 0.531-0.431 0.963-0.961 0.963h-2.725c-0.531 0-0.961-0.432-0.961-0.963v-0.96c0-0.531 0.43-0.962 0.961-0.962h2.724c0.531 0 0.961 0.43 0.961 0.962v0.96zM18.285 25.83c0 0.53-0.432 0.96-0.962 0.96h-2.723c-0.532 0-0.963-0.43-0.963-0.96v-0.963c0-0.53 0.43-0.96 0.963-0.96h2.723c0.53 0 0.962 0.43 0.962 0.96v0.963zM18.285 20.8c0 0.531-0.432 0.962-0.962 0.962h-2.723c-0.532 0-0.963-0.431-0.963-0.962v-0.962c0-0.53 0.43-0.961 0.963-0.961h2.723c0.53 0 0.962 0.431 0.962 0.961v0.962zM18.285 15.769c0 0.531-0.432 0.963-0.962 0.963h-2.723c-0.532 0-0.963-0.432-0.963-0.963v-0.96c0-0.531 0.43-0.962 0.963-0.962h2.723c0.53 0 0.962 0.43 0.962 0.962v0.96zM24.956 25.83c0 0.53-0.431 0.96-0.961 0.96h-2.723c-0.532 0-0.962-0.43-0.962-0.96v-0.963c0-0.53 0.43-0.96 0.962-0.96h2.723c0.531 0 0.961 0.43 0.961 0.96v0.963zM24.956 20.8c0 0.531-0.431 0.962-0.961 0.962h-2.723c-0.532 0-0.962-0.431-0.962-0.962v-0.962c0-0.53 0.43-0.961 0.962-0.961h2.723c0.531 0 0.961 0.431 0.961 0.961v0.962zM24.956 15.769c0 0.531-0.431 0.963-0.961 0.963h-2.723c-0.532 0-0.962-0.432-0.962-0.963v-0.96c0-0.531 0.43-0.962 0.962-0.962h2.723c0.531 0 0.961 0.43 0.961 0.962v0.96zM24.991 10.563c0 0.531-0.431 0.961-0.961 0.961h-16.103c-0.531 0-0.961-0.43-0.961-0.961v-4.245c0-0.531 0.43-0.961 0.961-0.961h16.103c0.531 0 0.961 0.43 0.961 0.961v4.245z"></path>
</svg>
