<?xml version="1.0" encoding="utf-8"?>
<!-- Generator: Adobe Illustrator 15.0.0, SVG Export Plug-In . SVG Version: 6.00 Build 0)  -->
<!DOCTYPE svg PUBLIC "-//W3C//DTD SVG 1.1//EN" "http://www.w3.org/Graphics/SVG/1.1/DTD/svg11.dtd">
<svg version="1.1" id="Calque_1" xmlns="http://www.w3.org/2000/svg" xmlns:xlink="http://www.w3.org/1999/xlink" x="0px" y="0px"
	 width="368.5px" height="368.5px" viewBox="0 0 368.5 368.5" enable-background="new 0 0 368.5 368.5" xml:space="preserve">
<g>
	<defs>
		<rect id="SVGID_1_" x="27.748" width="313.684" height="369"/>
	</defs>
	<clipPath id="SVGID_2_">
		<use xlink:href="#SVGID_1_"  overflow="visible"/>
	</clipPath>
	<path clip-path="url(#SVGID_2_)" fill="#010101" d="M289.71,0H79.455C50.891,0,27.749,23.128,27.749,51.705v265.571v0.018
		c0,28.555,23.142,51.706,51.706,51.706H289.71c28.579,0,51.722-23.148,51.722-51.706v-0.018V51.705
		C341.432,23.128,318.289,0,289.71,0 M125.664,315.529c0,7.074-5.75,12.822-12.839,12.822H76.438
		c-7.097,0-12.839-5.748-12.839-12.822V302.67c0-7.073,5.742-12.821,12.839-12.821h36.386c7.089,0,12.839,5.748,12.839,12.821
		V315.529z M125.664,248.35c0,7.092-5.75,12.842-12.839,12.842H76.438c-7.097,0-12.839-5.753-12.839-12.842v-12.843
		c0-7.075,5.742-12.836,12.839-12.836h36.386c7.089,0,12.839,5.761,12.839,12.836V248.35z M125.664,181.168
		c0,7.093-5.75,12.864-12.839,12.864H76.438c-7.097,0-12.839-5.769-12.839-12.864v-12.82c0-7.097,5.742-12.842,12.839-12.842h36.386
		c7.089,0,12.839,5.746,12.839,12.842V181.168z M214.763,315.529c0,7.074-5.765,12.822-12.844,12.822h-36.364
		c-7.11,0-12.859-5.748-12.859-12.822V302.67c0-7.073,5.749-12.821,12.859-12.821h36.364c7.079,0,12.844,5.748,12.844,12.821
		V315.529z M214.763,248.35c0,7.092-5.765,12.842-12.844,12.842h-36.364c-7.11,0-12.859-5.753-12.859-12.842v-12.843
		c0-7.075,5.749-12.836,12.859-12.836h36.364c7.079,0,12.844,5.761,12.844,12.836V248.35z M214.763,181.168
		c0,7.093-5.765,12.864-12.844,12.864h-36.364c-7.11,0-12.859-5.769-12.859-12.864v-12.82c0-7.097,5.749-12.842,12.859-12.842
		h36.364c7.079,0,12.844,5.746,12.844,12.842V181.168z M303.86,315.529c0,7.074-5.751,12.822-12.839,12.822H254.66
		c-7.099,0-12.842-5.748-12.842-12.822V302.67c0-7.073,5.745-12.821,12.842-12.821h36.361c7.088,0,12.839,5.748,12.839,12.821
		V315.529z M303.86,248.35c0,7.092-5.751,12.842-12.839,12.842H254.66c-7.099,0-12.842-5.753-12.842-12.842v-12.843
		c0-7.075,5.745-12.836,12.842-12.836h36.361c7.088,0,12.839,5.761,12.839,12.836V248.35z M303.86,181.168
		c0,7.093-5.751,12.864-12.839,12.864H254.66c-7.099,0-12.842-5.769-12.842-12.864v-12.82c0-7.097,5.745-12.842,12.842-12.842
		h36.361c7.088,0,12.839,5.746,12.839,12.842V181.168z M304.335,111.633c0,7.09-5.752,12.839-12.84,12.839H76.438
		c-7.097,0-12.839-5.749-12.839-12.839V54.933c0-7.093,5.742-12.84,12.839-12.84h215.057c7.092,0,12.84,5.748,12.84,12.84V111.633z"
		/>
</g>
</svg>
