<?xml version="1.0" encoding="utf-8"?>
<!-- Generator: Adobe Illustrator 15.0.0, SVG Export Plug-In . SVG Version: 6.00 Build 0)  -->
<!DOCTYPE svg PUBLIC "-//W3C//DTD SVG 1.1//EN" "http://www.w3.org/Graphics/SVG/1.1/DTD/svg11.dtd">
<svg version="1.1" id="Calque_1" xmlns="http://www.w3.org/2000/svg" xmlns:xlink="http://www.w3.org/1999/xlink" x="0px" y="0px"
	 width="368.5px" height="368.5px" viewBox="0 0 368.5 368.5" enable-background="new 0 0 368.5 368.5" xml:space="preserve">
<g>
	<defs>
		<rect id="SVGID_1_" x="10.1" y="7.899" width="348.301" height="348.296"/>
	</defs>
	<clipPath id="SVGID_2_">
		<use xlink:href="#SVGID_1_"  overflow="visible"/>
	</clipPath>
	<path clip-path="url(#SVGID_2_)" fill="#020202" d="M97.174,73.206V29.669c0-12.036,9.731-21.77,21.765-21.77
		c12.037,0,21.772,9.734,21.772,21.77v43.537c0,12.032-9.735,21.765-21.772,21.765C106.905,94.971,97.174,85.238,97.174,73.206"/>
	<path clip-path="url(#SVGID_2_)" fill="#020202" d="M293.087,51.437v22.276c0,24.065-19.475,43.537-43.535,43.537
		c-24.065,0-43.535-19.472-43.535-43.537V51.437h-43.539v22.276c0,24.065-19.472,43.537-43.537,43.537S75.406,97.778,75.406,73.713
		V51.437H10.1v304.759H358.4V51.437H293.087z M118.94,312.66H75.406v-43.539h43.534V312.66z M118.94,225.582H75.406v-43.535h43.534
		V225.582z M206.017,312.66h-43.534v-43.539h43.534V312.66z M206.017,225.669h-43.534v-43.541h43.534V225.669z M249.552,312.66
		v-43.539h43.535L249.552,312.66z M293.087,225.582h-43.535v-43.535h43.535V225.582z"/>
	<path clip-path="url(#SVGID_2_)" fill="#020202" d="M227.787,73.206V29.669c0-12.036,9.729-21.77,21.77-21.77
		c12.025,0,21.765,9.734,21.765,21.77v43.537c0,12.032-9.739,21.765-21.765,21.765C237.517,94.971,227.787,85.238,227.787,73.206"/>
</g>
</svg>
