<?xml version="1.0" encoding="utf-8"?>
<!-- Generated by IcoMoon.io -->
<!DOCTYPE svg PUBLIC "-//W3C//DTD SVG 1.1//EN" "http://www.w3.org/Graphics/SVG/1.1/DTD/svg11.dtd">
<svg version="1.1" xmlns="http://www.w3.org/2000/svg" xmlns:xlink="http://www.w3.org/1999/xlink" width="32" height="32" viewBox="0 0 32 32">
<path fill="#000" d="M9.48 9.889v-3.26c0-0.901 0.729-1.63 1.63-1.63s1.63 0.729 1.63 1.63v3.26c0 0.901-0.729 1.63-1.63 1.63s-1.63-0.729-1.63-1.63z"></path>
<path d="M24.149 8.26v1.668c0 1.802-1.458 3.26-3.26 3.26s-3.26-1.458-3.26-3.26v-1.668h-3.26v1.668c0 1.802-1.458 3.26-3.26 3.26s-3.26-1.458-3.26-3.26v-1.668h-4.89v22.819h26.079v-22.819h-4.89zM11.11 27.819h-3.26v-3.26h3.26v3.26zM11.11 21.299h-3.26v-3.26h3.26v3.26zM17.63 27.819h-3.26v-3.26h3.26v3.26zM17.63 21.305h-3.26v-3.26h3.26v3.26zM20.89 27.819v-3.26h3.26l-3.26 3.26zM24.149 21.299h-3.26v-3.26h3.26v3.26z"></path>
<path d="M19.26 9.889v-3.26c0-0.901 0.728-1.63 1.63-1.63 0.9 0 1.63 0.729 1.63 1.63v3.26c0 0.901-0.729 1.63-1.63 1.63-0.901 0-1.63-0.729-1.63-1.63z"></path>
</svg>
