<?xml version="1.0" encoding="utf-8"?>
<!-- Generated by IcoMoon.io -->
<!DOCTYPE svg PUBLIC "-//W3C//DTD SVG 1.1//EN" "http://www.w3.org/Graphics/SVG/1.1/DTD/svg11.dtd">
<svg version="1.1" xmlns="http://www.w3.org/2000/svg" xmlns:xlink="http://www.w3.org/1999/xlink" width="32" height="32" viewBox="0 0 32 32">
<path d="M30.117 24.148v-1.067h-1.861c0.091-0.25 0.136-0.545 0.136-0.817v-10.985c0-1.43-1.18-2.587-2.587-2.587h-19.383c-1.43 0-2.587 1.18-2.587 2.587v10.962c0 0.295 0.045 0.567 0.136 0.817h-2.043v1.067c0 0.794 0.658 1.453 1.453 1.453h25.284c0.794 0.023 1.453-0.636 1.453-1.43v0zM5.923 11.279c0-0.295 0.227-0.545 0.545-0.545h19.156c0.318 0 0.545 0.227 0.545 0.545v10.849c0 0.318-0.227 0.567-0.545 0.545h-19.178c-0.295 0-0.545-0.227-0.545-0.545v-10.849z"></path>
<path d="M15.274 19.7c0 0.389-0.315 0.704-0.704 0.704s-0.704-0.315-0.704-0.704c0-0.389 0.315-0.704 0.704-0.704s0.704 0.315 0.704 0.704z"></path>
<path d="M19.246 19.7c0 0.389-0.315 0.704-0.704 0.704s-0.704-0.315-0.704-0.704c0-0.389 0.315-0.704 0.704-0.704s0.704 0.315 0.704 0.704z"></path>
<path d="M11.347 13.935h0.862l1.271 4.698h5.765v-0.023l0.613-4.222-0.704-0.045-0.068 0.431-5.969-0.409-0.34-1.226h-1.43c-0.204 0-0.386 0.182-0.386 0.409 0 0.204 0.159 0.386 0.386 0.386zM16.862 17.929h-1.18l-0.272-1.203h1.566l-0.113 1.203zM17.543 15.364l1.475 0.091-0.159 0.999h-1.43l0.113-1.089zM17.384 16.726h1.43l-0.182 1.203h-1.384l0.136-1.203zM17.157 15.319l-0.113 1.135h-1.657l-0.295-1.271 2.065 0.136zM15.296 17.929h-1.203l-0.318-1.203h1.271l0.25 1.203zM14.684 15.16l0.295 1.294h-1.271l-0.363-1.384 1.339 0.091z"></path>
</svg>
