<?xml version="1.0" encoding="utf-8"?>
<!-- Generated by IcoMoon.io -->
<!DOCTYPE svg PUBLIC "-//W3C//DTD SVG 1.1//EN" "http://www.w3.org/Graphics/SVG/1.1/DTD/svg11.dtd">
<svg version="1.1" xmlns="http://www.w3.org/2000/svg" xmlns:xlink="http://www.w3.org/1999/xlink" width="32" height="32" viewBox="0 0 32 32">
<path d="M20.435 8.188h-0.94v-1.231h-7.092v1.231h-0.938v-2.274h8.969l-0 2.274z"></path>
<path d="M27.461 8.855h-23.025c-0.868 0-1.571 0.704-1.571 1.571v12.771c0 0.867 0.704 1.571 1.571 1.571h23.025c0.869 0 1.572-0.704 1.572-1.571v-12.771c0-0.868-0.703-1.571-1.572-1.571zM28.172 19.265c-0.218 0.494-0.792 1.066-1.472 1.066h-21.502c-0.68 0-1.254-0.573-1.473-1.067 0.402 0.265 0.948 0.433 1.434 0.433h21.578c0.487 0 1.033-0.168 1.434-0.433zM18.475 18.387h-5.050v-1.452h5.050v1.452z"></path>
</svg>
