<?xml version="1.0" encoding="utf-8"?>
<!-- Generator: Adobe Illustrator 15.0.2, SVG Export Plug-In . SVG Version: 6.00 Build 0)  -->
<!DOCTYPE svg PUBLIC "-//W3C//DTD SVG 1.1//EN" "http://www.w3.org/Graphics/SVG/1.1/DTD/svg11.dtd">
<svg version="1.1" id="Calque_1" xmlns="http://www.w3.org/2000/svg" xmlns:xlink="http://www.w3.org/1999/xlink" x="0px" y="0px"
	 width="448px" height="448px" viewBox="0 0 448 448" enable-background="new 0 0 448 448" xml:space="preserve">
<g>
	<g>
		<g>
			<g>
				<g>
					<g>
						<g>
							<path d="M296.768,95.81h-15.419v-20.2H164.987v20.2h-15.385V58.5h147.171L296.768,95.81L296.768,95.81z"/>
						</g>
					</g>
				</g>
			</g>
		</g>
	</g>
	<g>
		<path d="M412.064,106.76H34.262c-14.237,0-25.784,11.549-25.784,25.78v209.547c0,14.226,11.546,25.772,25.784,25.772h377.802
			c14.26,0,25.791-11.557,25.791-25.772V132.54C437.855,118.305,426.323,106.76,412.064,106.76z M423.722,277.581
			c-3.577,8.098-12.996,17.496-24.148,17.496H46.764c-11.157,0-20.573-9.398-24.163-17.5c6.59,4.352,15.558,7.112,23.53,7.112
			h354.063C408.184,284.689,417.149,281.929,423.722,277.581z M264.618,263.162h-82.871v-23.833h82.871V263.162z"/>
	</g>
</g>
</svg>
