<?xml version="1.0" encoding="utf-8"?>
<!-- Generated by IcoMoon.io -->
<!DOCTYPE svg PUBLIC "-//W3C//DTD SVG 1.1//EN" "http://www.w3.org/Graphics/SVG/1.1/DTD/svg11.dtd">
<svg version="1.1" xmlns="http://www.w3.org/2000/svg" xmlns:xlink="http://www.w3.org/1999/xlink" width="32" height="32" viewBox="0 0 32 32">
<path fill="#000" d="M3.287 23.91c0 0 0.202-7.631 7.5-9.026 0 0 3.242 3.718 3.964 5.763v-2.94l-0.767 0.036 0.018-1.055h3.536l-0.011 1.055-0.645-0.023-0.042 3.055c0 0 4.060-5.723 4.558-5.739 0.542 0.151 6.546 1.654 6.847 8.875 0 0-3.527 7.702-12.478 7.341s-12.478-7.342-12.478-7.342z"></path>
<path d="M9.696 7.843c0 4.022 3.656 7.281 5.987 7.281 2.362 0 5.987-3.259 5.987-7.281v0.056c0-4.053-2.681-7.337-5.987-7.337s-5.987 3.285-5.987 7.337v-0.056z"></path>
</svg>
