<?xml version="1.0" encoding="utf-8"?>
<!-- Generator: Adobe Illustrator 15.0.0, SVG Export Plug-In . SVG Version: 6.00 Build 0)  -->
<!DOCTYPE svg PUBLIC "-//W3C//DTD SVG 1.1//EN" "http://www.w3.org/Graphics/SVG/1.1/DTD/svg11.dtd">
<svg version="1.1" id="Calque_1" xmlns="http://www.w3.org/2000/svg" xmlns:xlink="http://www.w3.org/1999/xlink" x="0px" y="0px"
	 width="368.5px" height="368.5px" viewBox="0 0 368.5 368.5" enable-background="new 0 0 368.5 368.5" xml:space="preserve">
<path fill="#010101" d="M304.559,66.289c-32.133-32.141-74.857-49.841-120.306-49.841c-45.445,0-88.178,17.7-120.315,49.841
	C31.804,98.428,14.104,141.151,14.104,186.6c0,45.446,17.7,88.17,49.833,120.302c32.138,32.146,74.87,49.847,120.315,49.847
	c45.441,0,88.173-17.701,120.306-49.847c32.137-32.132,49.836-74.855,49.836-120.302C354.395,141.151,336.695,98.428,304.559,66.289
	z M249.277,259.833c-3.311,3.321-7.67,4.981-12.021,4.981c-4.35,0-8.699-1.66-12.021-4.981l-57.985-57.992V75.743
	c0-9.396,7.606-17.003,17.003-17.003c9.382,0,17.007,7.606,17.007,17.003v112.018l48.018,48.027
	C255.922,242.433,255.922,253.192,249.277,259.833z"/>
</svg>
