<?xml version="1.0" encoding="utf-8"?>
<!-- Generated by IcoMoon.io -->
<!DOCTYPE svg PUBLIC "-//W3C//DTD SVG 1.1//EN" "http://www.w3.org/Graphics/SVG/1.1/DTD/svg11.dtd">
<svg version="1.1" xmlns="http://www.w3.org/2000/svg" xmlns:xlink="http://www.w3.org/1999/xlink" width="32" height="32" viewBox="0 0 32 32">
<path d="M26.447 5.756c-2.79-2.791-6.5-4.328-10.447-4.328s-7.657 1.537-10.448 4.328c-2.79 2.791-4.327 6.501-4.327 10.448s1.537 7.657 4.327 10.447c2.791 2.791 6.502 4.329 10.448 4.329s7.657-1.537 10.447-4.329c2.791-2.79 4.328-6.5 4.328-10.447s-1.537-7.657-4.328-10.448zM21.647 22.564c-0.288 0.288-0.666 0.433-1.044 0.433s-0.755-0.144-1.044-0.433l-5.035-5.036v-10.95c0-0.816 0.661-1.476 1.477-1.476 0.815 0 1.477 0.66 1.477 1.476v9.727l4.17 4.171c0.577 0.577 0.577 1.511-0 2.088z"></path>
</svg>
