<?xml version="1.0" encoding="utf-8"?>
<!-- Generated by IcoMoon.io -->
<!DOCTYPE svg PUBLIC "-//W3C//DTD SVG 1.1//EN" "http://www.w3.org/Graphics/SVG/1.1/DTD/svg11.dtd">
<svg version="1.1" xmlns="http://www.w3.org/2000/svg" xmlns:xlink="http://www.w3.org/1999/xlink" width="32" height="32" viewBox="0 0 32 32">
<path d="M4.403 23.865h0.818v5.747h10.011v-5.746h0.797v5.746h3.427v-6.726c0-2.665-2.037-5.269-5.11-5.269l-8.343-0.005c-2.799 0-5.046 2.312-5.046 5.199v6.8h3.448v-5.746z"></path>
<path d="M10.194 16.492c2.196 0 3.975-1.78 3.975-3.977 0-2.195-1.778-3.974-3.974-3.974s-3.976 1.779-3.976 3.974c0 2.195 1.78 3.977 3.976 3.977z"></path>
<path d="M24.715 4.649c-3.488 0-6.316 2.828-6.316 6.316 0 0.119 0.012 0.235 0.018 0.353l-2.736 2.676 3.614 0.21c1.103 1.843 3.116 3.078 5.419 3.078 3.488 0 6.316-2.828 6.316-6.316s-2.828-6.316-6.316-6.316zM25.562 14.754h-1.521v-1.466h1.521v1.466zM26.531 10.423l-0.815 1.080c-0.11 0.144-0.198 0.375-0.198 0.562v0.232h-1.432v-0.331c0-0.474 0.132-0.771 0.419-1.146l0.815-1.047c0.176-0.231 0.319-0.496 0.319-0.738 0-0.518-0.341-0.904-0.892-0.904-0.584 0-0.882 0.408-0.882 0.914h-1.433c0-1.366 1.036-2.204 2.314-2.204 1.245 0 2.325 0.805 2.325 2.204 0 0.551-0.232 0.97-0.54 1.378z"></path>
</svg>
