<?xml version="1.0" encoding="utf-8"?>
<!-- Generated by IcoMoon.io -->
<!DOCTYPE svg PUBLIC "-//W3C//DTD SVG 1.1//EN" "http://www.w3.org/Graphics/SVG/1.1/DTD/svg11.dtd">
<svg version="1.1" xmlns="http://www.w3.org/2000/svg" xmlns:xlink="http://www.w3.org/1999/xlink" width="32" height="32" viewBox="0 0 32 32">
<path d="M18.537 14.48l-10.581-0.005c-3.549 0-6.399 2.932-6.399 6.593v8.623h4.372v-7.287h1.037v7.288h12.695v-7.287h1.010v7.287h4.345v-8.529c0-3.379-2.584-6.682-6.48-6.682z"></path>
<path d="M13.273 13.053c2.785 0 5.041-2.258 5.041-5.043 0-2.784-2.256-5.040-5.040-5.040s-5.043 2.256-5.043 5.040c-0 2.784 2.257 5.043 5.043 5.043z"></path>
<path d="M26.32 2.434c-2.351 0-4.257 1.906-4.257 4.256 0 0.081 0.008 0.159 0.012 0.238l-1.844 1.803 2.436 0.142c0.743 1.241 2.1 2.074 3.652 2.074 2.35 0 4.256-1.906 4.256-4.257 0-2.35-1.906-4.256-4.256-4.256zM26.89 9.244h-1.024v-0.988h1.024v0.988zM27.544 6.325l-0.549 0.728c-0.074 0.097-0.134 0.253-0.134 0.379v0.156h-0.965v-0.223c0-0.319 0.089-0.519 0.282-0.772l0.55-0.706c0.119-0.156 0.215-0.334 0.215-0.497 0-0.349-0.23-0.609-0.601-0.609-0.394 0-0.595 0.275-0.595 0.616h-0.965c0-0.921 0.698-1.485 1.56-1.485 0.839 0 1.567 0.542 1.567 1.485 0 0.372-0.156 0.654-0.364 0.929z"></path>
</svg>
