<?xml version="1.0" encoding="utf-8"?>
<!-- Generated by IcoMoon.io -->
<!DOCTYPE svg PUBLIC "-//W3C//DTD SVG 1.1//EN" "http://www.w3.org/Graphics/SVG/1.1/DTD/svg11.dtd">
<svg version="1.1" xmlns="http://www.w3.org/2000/svg" xmlns:xlink="http://www.w3.org/1999/xlink" width="31" height="32" viewBox="0 0 31 32">
<path fill="#000" d="M15.204 4.033c-7.955 0.091-14.405 5.719-14.405 12.615 0 2.473 0.83 4.779 2.261 6.718 0.252 0.341-2.362 5.421-2.069 5.691 0.357 0.329 5.643-2.363 6.069-2.11l2.525 1.2c1.727 0.635 3.626 0.987 5.62 0.987 8.645 0 14.555-5.655 14.555-12.551s-5.91-12.649-14.555-12.55zM12.709 20.196c-1.187 0-2.113-0.656-2.269-1.837-0.133 1.229-1.145 1.837-2.321 1.837-1.2 0-2.327-0.608-2.346-2.097h1.344c0.021 0.64 0.476 0.929 1.003 0.929 0.579 0 0.992-0.349 0.992-0.988 0-0.589-0.372-0.978-1.033-0.978h-0.197v-1.129h0.197c0.651 0 0.931-0.389 0.931-0.888 0-0.599-0.414-0.909-0.9-0.909-0.506 0-0.879 0.32-0.91 0.859h-1.344c0.031-1.269 1.012-2.027 2.253-2.027 1.303 0 2.244 0.838 2.244 2.036 0 0.768-0.362 1.208-0.848 1.458 0.453 0.232 0.828 0.627 0.926 1.28 0.063-0.553 0.318-1.077 0.604-1.639l1.551-3.075h1.468l-1.531 2.935c0.176-0.069 0.372-0.089 0.549-0.089 0.992 0 1.932 0.789 1.932 2.106 0.001 1.396-0.991 2.215-2.294 2.215zM24.787 19.128h-0.672v1.008h-1.292v-1.008h-3.009v-0.063c-0.375 0.755-1.196 1.131-2.119 1.131-1.199 0-2.326-0.608-2.346-2.097h1.344c0.021 0.64 0.475 0.929 1.002 0.929 0.579 0 0.993-0.349 0.993-0.988 0-0.589-0.372-0.978-1.033-0.978h-0.197v-1.129h0.196c0.651 0 0.93-0.389 0.93-0.888 0-0.599-0.414-0.909-0.9-0.909-0.506 0-0.878 0.32-0.909 0.859h-1.345c0.031-1.269 1.013-2.027 2.254-2.027 1.303 0 2.244 0.838 2.244 2.036 0 0.768-0.362 1.208-0.847 1.458 0.417 0.213 0.765 0.566 0.894 1.128l2.363-4.562h1.468l-2.523 4.872h1.541v-1.327h1.292v1.327h0.672v1.228h0.001z"></path>
<path d="M12.709 16.952c-0.547 0-0.951 0.379-0.951 1.038 0 0.66 0.403 1.039 0.951 1.039s0.95-0.379 0.95-1.039c0-0.629-0.382-1.038-0.95-1.038z"></path>
</svg>
