<?xml version="1.0" encoding="utf-8"?>
<!-- Generated by IcoMoon.io -->
<!DOCTYPE svg PUBLIC "-//W3C//DTD SVG 1.1//EN" "http://www.w3.org/Graphics/SVG/1.1/DTD/svg11.dtd">
<svg version="1.1" xmlns="http://www.w3.org/2000/svg" xmlns:xlink="http://www.w3.org/1999/xlink" width="32" height="32" viewBox="0 0 32 32">
<path d="M0.637 21.557l2.417 0.612h2.972c0-0.724 0.242-1.38 0.644-1.916h-6.033v1.304z"></path>
<path d="M28.372 15.556l-1.706-5.121v-1.28h-5.349v11.098h-9.538c0.404 0.536 0.646 1.192 0.646 1.916h9.974c0-1.764 1.434-3.196 3.202-3.196 1.242 0 2.317 0.708 2.847 1.744 0.19 0.372 0.31 0.788 0.338 1.224 0.006 0.076 0.016 0.152 0.016 0.228h2.56v-5.333l-2.99-1.28zM22.827 15.556v-3.841h2.989l1.276 3.841h-4.265z"></path>
<path d="M9.229 19.824c-1.298 0-2.349 1.052-2.349 2.345 0 1.297 1.050 2.349 2.349 2.349 1.292 0 2.343-1.052 2.343-2.349 0-1.292-1.050-2.345-2.343-2.345zM9.229 23.449c-0.71 0-1.286-0.572-1.286-1.28 0-0.704 0.576-1.28 1.286-1.28 0.702 0 1.278 0.576 1.278 1.28 0 0.709-0.576 1.28-1.278 1.28z"></path>
<path d="M25.602 19.824c-1.299 0-2.349 1.052-2.349 2.345 0 1.297 1.050 2.349 2.349 2.349 1.292 0 2.347-1.052 2.347-2.349 0-1.292-1.054-2.345-2.347-2.345zM25.602 23.449c-0.708 0-1.28-0.572-1.28-1.28 0-0.704 0.572-1.28 1.28-1.28 0.706 0 1.28 0.576 1.28 1.28 0 0.709-0.574 1.28-1.28 1.28z"></path>
<path d="M0.656 7.482h19.561v12.034h-19.561v-12.034z"></path>
</svg>
