<?xml version="1.0" encoding="utf-8"?>
<!-- Generated by IcoMoon.io -->
<!DOCTYPE svg PUBLIC "-//W3C//DTD SVG 1.1//EN" "http://www.w3.org/Graphics/SVG/1.1/DTD/svg11.dtd">
<svg version="1.1" xmlns="http://www.w3.org/2000/svg" xmlns:xlink="http://www.w3.org/1999/xlink" width="32" height="32" viewBox="0 0 32 32">
<path fill="#000" d="M2.757 5.809c0.935 0 21.268 0 22.375 0s2.191 1.058 2.191 2.191c0 1.132 0 2.831 0 2.831s-6.917 0-8 0c-1.058 0-2.265 1.009-2.265 2.265s0 12.554 0 12.554-13.44 0-14.326 0c-0.862 0-2.191-1.182-2.191-2.191s0-14.548 0-15.458c0.025-0.911 1.28-2.191 2.215-2.191z"></path>
<path d="M26.683 25.206c0 0.394 0.32 0.738 0.738 0.738h3.052c0.394 0 0.738-0.32 0.738-0.738v-6.72c0-0.394-0.32-0.738-0.738-0.738h-3.052c-0.394 0-0.738 0.32-0.738 0.738v6.72z"></path>
<path d="M25.403 25.6c-0.049-0.123-0.049-0.271-0.049-0.394 0 0 0-5.489 0-6.72s1.108-2.068 2.068-2.068c0.985 0 1.28 0 1.28 0s0-1.994 0-2.585c0-0.615-0.468-1.28-1.28-1.28s-6.695 0-7.36 0c-0.665 0-1.28 0.738-1.28 1.28s0 9.871 0 10.511c0 0.64 0.492 1.28 1.28 1.28 0.788-0.025 5.342-0.025 5.342-0.025z"></path>
</svg>
