<?xml version="1.0" encoding="utf-8"?>
<!-- Generated by IcoMoon.io -->
<!DOCTYPE svg PUBLIC "-//W3C//DTD SVG 1.1//EN" "http://www.w3.org/Graphics/SVG/1.1/DTD/svg11.dtd">
<svg version="1.1" xmlns="http://www.w3.org/2000/svg" xmlns:xlink="http://www.w3.org/1999/xlink" width="32" height="32" viewBox="0 0 32 32">
<path fill="#000" d="M30.105 9.895c-0.32-0.443-0.837-0.788-1.058-0.911l-10.978-7.557c-0.148-0.123-0.911-0.665-1.92-0.665-0.911 0-1.6 0.443-1.822 0.615l-11.249 7.68c-0.148 0.098-0.615 0.468-0.911 0.985-0.295 0.492-0.394 1.132-0.418 1.305l-0.025 12.898c0 0.763 0.64 1.354 1.428 1.354v0c0.788 0 1.428-0.615 1.428-1.354l0.025-12.012c0 0 0-0.025 0-0.025 0-0.517 0.271-0.985 0.665-1.28 0 0 0-0.025 0.025-0.025l9.822-6.72c0 0 0 0 0.025 0 0.295-0.222 0.64-0.345 1.034-0.345 0.345 0 0.665 0.098 0.935 0.271l10.068 6.917c0.295 0.295 0.492 0.689 0.492 1.108 0 0 0 0 0 0.025v14.794c-0.049 0.812-0.738 1.452-1.625 1.452-0.049 0-0.074 0-0.098 0.025l-14.548-0.025c0 0 0 0 0 0-0.886 0-1.625-0.689-1.625-1.526 0-0.074-0.025-0.123-0.025-0.172v-9.895c0-0.025 0.025-0.049 0.025-0.098 0-0.517 0.271-0.985 0.665-1.28 0 0 0 0 0 0l4.898-3.422c0 0 0.025 0 0.025 0 0.32-0.246 0.738-0.394 1.182-0.394 0.32 0 0.615 0.098 0.862 0.222l5.415 3.643c0.32 0.271 0.517 0.665 0.542 1.108v7.631c0 0.763 0.64 1.354 1.428 1.354s1.428-0.615 1.428-1.354v-8.246c0-0.295-0.049-1.058-0.492-1.625-0.32-0.443-0.862-0.788-1.034-0.886l-6.548-4.431c-0.246-0.172-0.837-0.542-1.698-0.542s-1.428 0.345-1.698 0.542l-6.302 4.431c-0.665 0.468-1.108 0.886-1.305 1.28-0.271 0.492-0.295 1.034-0.295 1.206v12.209c-0.025 0.369 0 1.206 0.763 2.018 0.665 0.738 1.526 0.985 2.191 0.985 0.098 0 0.172 0 0.246-0.025h17.28c0.418 0.049 1.329 0 2.215-0.714 0.788-0.665 1.034-1.625 0.985-2.265l0.025-16.689c0.025-0.246-0.025-0.985-0.443-1.575z"></path>
</svg>
