<?xml version="1.0" encoding="utf-8"?>
<!-- Generated by IcoMoon.io -->
<!DOCTYPE svg PUBLIC "-//W3C//DTD SVG 1.1//EN" "http://www.w3.org/Graphics/SVG/1.1/DTD/svg11.dtd">
<svg version="1.1" xmlns="http://www.w3.org/2000/svg" xmlns:xlink="http://www.w3.org/1999/xlink" width="32" height="32" viewBox="0 0 32 32">
<path fill="#000" d="M30.998 25.147c-0.673-0.319-1.098-0.974-1.346-1.506l0.071-0.053c2.268-2.551 2.179-6.449-0.265-8.893-2.324-2.324-5.988-2.516-8.534-0.578-0.11-2.43-1.099-4.827-2.967-6.681-3.942-3.942-10.366-3.942-14.308 0-3.805 3.805-3.942 9.87-0.414 13.84l0.11 0.083c-0.386 0.827-1.048 1.847-2.095 2.343-0.331 0.165-0.276 0.689 0.11 0.744 1.13 0.165 2.784-0.028 4.301-1.186l0.028 0.028c3.887 2.288 8.96 1.764 12.268-1.571 0.223-0.222 0.434-0.451 0.632-0.687 0.292 1.042 0.85 2.024 1.674 2.843 2.126 2.143 5.386 2.48 7.884 1.010l0.017-0.017c0.974 0.744 2.038 0.868 2.764 0.762 0.248-0.037 0.284-0.373 0.071-0.48zM11.68 20.018h-1.405v-1.405h1.405v1.405zM12.865 14.805c-0.694 0.659-1.185 1.071-1.185 2.403v0.352h-1.405v-0.352c0-1.758 0.913-2.749 1.624-3.424s1.185-1.025 1.185-2.195c0-0.348-0.103-0.656-0.384-0.911s-0.79-0.494-1.723-0.494c-1.229 0-1.607 0.376-1.844 0.79s-0.263 0.966-0.263 1.316h-1.406c0-0.351-0.026-1.205 0.439-2.019s1.492-1.492 3.073-1.492v0c1.175 0 2.070 0.312 2.667 0.856s0.845 1.283 0.845 1.954c0 1.639-0.93 2.557-1.624 3.216zM22.817 19.976c-0.417 0-0.756-0.339-0.756-0.756s0.339-0.756 0.756-0.756c0.417 0 0.756 0.339 0.756 0.756-0.001 0.417-0.34 0.756-0.756 0.756zM24.896 19.977c-0.417 0-0.756-0.339-0.756-0.756s0.339-0.756 0.756-0.756c0.417 0 0.756 0.339 0.756 0.756s-0.338 0.756-0.756 0.756zM26.976 19.976c-0.417 0-0.756-0.339-0.756-0.756s0.339-0.756 0.756-0.756 0.756 0.339 0.756 0.756c0 0.417-0.339 0.756-0.756 0.756z"></path>
</svg>
