<?xml version="1.0" encoding="utf-8"?>
<!-- Generated by IcoMoon.io -->
<!DOCTYPE svg PUBLIC "-//W3C//DTD SVG 1.1//EN" "http://www.w3.org/Graphics/SVG/1.1/DTD/svg11.dtd">
<svg version="1.1" xmlns="http://www.w3.org/2000/svg" xmlns:xlink="http://www.w3.org/1999/xlink" width="32" height="32" viewBox="0 0 32 32">
<path fill="#000" d="M19.984 28.513v-4.393h-5.858v4.393h-4.394l7.322 5.858 7.323-5.858z"></path>
<path d="M3.036 8.629v13.772h28.218v-13.772h-28.218zM19.094 14.451l-0.357 0.828h-2.582l-0.011 0.483h2.454l-0.358 0.829h-2.004c0.246 1.212 0.813 1.822 1.703 1.822 0.577 0 1.169-0.243 1.776-0.727l-0.011 1.741c-0.515 0.3-1.107 0.449-1.775 0.449-0.968 0-1.746-0.311-2.338-0.934-0.538-0.56-0.887-1.343-1.049-2.35h-0.887l0.357-0.827h0.461v-0.3c0-0.107 0.003-0.17 0.012-0.185h-0.84l0.357-0.829h0.588c0.184-0.93 0.565-1.663 1.14-2.201 0.607-0.583 1.369-0.875 2.282-0.875 0.645 0 1.345 0.191 2.097 0.575l-0.703 1.441c-0.538-0.345-1.042-0.518-1.51-0.518-0.807 0-1.345 0.526-1.613 1.578h2.811z"></path>
</svg>
