<?xml version="1.0" encoding="utf-8"?>
<!-- Generated by IcoMoon.io -->
<!DOCTYPE svg PUBLIC "-//W3C//DTD SVG 1.1//EN" "http://www.w3.org/Graphics/SVG/1.1/DTD/svg11.dtd">
<svg version="1.1" xmlns="http://www.w3.org/2000/svg" xmlns:xlink="http://www.w3.org/1999/xlink" width="32" height="32" viewBox="0 0 32 32">
<path d="M12.646 10.922l-5.397 5.397c-0.253 0.253-0.39 0.591-0.39 0.954 0 0.388 0.154 0.753 0.434 1.032s0.647 0.434 1.032 0.434c0.36 0 0.701-0.14 0.954-0.39l5.397-5.397-2.030-2.030z"></path>
<path d="M10.547 8.823l0.437-0.436 4.82 4.823c0.319 0.316 0.753 0.49 1.221 0.49 0.532 0 1.061-0.226 1.454-0.618 0.772-0.773 0.829-1.974 0.13-2.678l-3.347-3.345-0.169-0.132c-0.356-0.277-0.733-0.512-1.121-0.704-0.951-0.475-1.981-0.718-3.063-0.718-1.829 0-3.551 0.711-4.847 2.001s-2.013 2.991-2.016 4.789c-0.002 1.881 0.78 3.707 2.204 5.147-0.029-0.346 0.032-0.694 0.181-1.011 0.096-0.203 0.223-0.387 0.383-0.547l5.397-5.397-1.665-1.665z"></path>
<path d="M25.938 7.507c-1.299-1.29-3.021-2.001-4.848-2.001-1.749 0-3.401 0.65-4.676 1.837l2.628 2.629c0.942 0.942 0.883 2.533-0.128 3.548-0.512 0.507-1.201 0.799-1.891 0.799-0.63 0-1.219-0.238-1.655-0.672l-0.164-0.164-5.397 5.397c-0.258 0.26-0.397 0.609-0.387 0.979 0.007 0.378 0.159 0.735 0.432 1.008 0.277 0.279 0.645 0.433 1.033 0.433 0.363 0 0.701-0.137 0.954-0.39l5.672-5.669 0.603 0.603-5.669 5.672c-0.252 0.252-0.39 0.591-0.39 0.954 0 0.387 0.154 0.753 0.434 1.033 0.28 0.279 0.648 0.433 1.033 0.433 0.361 0 0.701-0.139 0.954-0.39l5.669-5.672 0.529 0.53-5.669 5.671c-0.258 0.26-0.395 0.608-0.388 0.979 0.007 0.378 0.159 0.735 0.432 1.008 0.277 0.28 0.645 0.434 1.032 0.434 0.363 0 0.701-0.137 0.954-0.39l5.831-5.782c1.010-1.010 1.999-1.998 2.857-2.854 1.442-1.444 2.234-3.281 2.232-5.174-0.002-1.797-0.718-3.499-2.016-4.788z"></path>
</svg>
