<?xml version="1.0" encoding="utf-8"?>
<!-- Generated by IcoMoon.io -->
<!DOCTYPE svg PUBLIC "-//W3C//DTD SVG 1.1//EN" "http://www.w3.org/Graphics/SVG/1.1/DTD/svg11.dtd">
<svg version="1.1" xmlns="http://www.w3.org/2000/svg" xmlns:xlink="http://www.w3.org/1999/xlink" width="32" height="32" viewBox="0 0 32 32">
<path fill="#717171" d="M27.827 7.728h-23.137c0 10.999 0 6.93 0 17.93h23.103c0.012 0.004 0.022 0.009 0.034 0.012v-17.941zM9.062 16.058c0 0.002 0 0.004 0 0.006 0.003-1.011 0.673-1.829 1.5-1.829 0.826 0 1.495 0.818 1.5 1.829 0-0.002 0-0.004 0-0.006v0.014c0-0.003 0-0.005 0-0.009-0.003 1.005-0.909 1.818-1.5 1.818-0.582 0-1.495-0.813-1.5-1.818 0 0.003 0 0.005 0 0.009v-0.014zM7.457 20.081c0 0 0.051-1.912 1.878-2.26 0 0 0.812 0.931 0.993 1.443v-0.736l-0.192 0.009 0.004-0.265h0.885l-0.002 0.265-0.161-0.005-0.011 0.765c0 0 1.017-1.434 1.141-1.438 0.136 0.037 1.639 0.414 1.715 2.223h-6.252zM25.16 20.084h-8.908c0-0.268 0-0.537 0-0.804h8.908v0.804zM25.16 17.86h-8.908c0-0.268 0-0.537 0-0.804h8.908v0.804zM25.16 15.772h-8.908c0-0.268 0-0.537 0-0.804h8.908v0.804z"></path>
</svg>
