<?xml version="1.0" encoding="utf-8"?>
<!-- Generated by IcoMoon.io -->
<!DOCTYPE svg PUBLIC "-//W3C//DTD SVG 1.1//EN" "http://www.w3.org/Graphics/SVG/1.1/DTD/svg11.dtd">
<svg version="1.1" xmlns="http://www.w3.org/2000/svg" xmlns:xlink="http://www.w3.org/1999/xlink" width="32" height="32" viewBox="0 0 32 32">
<path fill="#717171" d="M22.49 15.5v-13.914h-15.872c0 6.997 0 13.995 0 20.992h10.429zM11.178 9.263c0-1.878 1.522-3.402 3.401-3.402v0c0 0 0 0 0 0 1.878 0 3.401 1.523 3.401 3.402s-1.523 3.401-3.401 3.401c-1.878 0.001-3.401-1.522-3.401-3.401 0 0 0 0 0 0zM10.499 13.826h8.11v0.512h-8.11c0-0.171 0-0.341 0-0.512zM16.33 18.337h-5.83c0-0.171 0-0.341 0-0.512h6.007c-0.068 0.166-0.127 0.337-0.177 0.512zM10.499 16.337c0-0.171 0-0.341 0-0.512h7.527c-0.198 0.156-0.383 0.328-0.556 0.512h-6.972z"></path>
<path d="M14.529 9.255c0.306 0 0.775-0.421 0.778-0.942-0.002-0.525-0.349-0.948-0.778-0.948-0.428 0-0.775 0.425-0.778 0.948 0.002 0.521 0.476 0.942 0.778 0.942z"></path>
<path d="M15.307 8.31c0 0.001 0 0.002 0 0.003s0 0.003 0 0.004v-0.008z"></path>
<path d="M15.271 9.244c-0.065 0.002-0.592 0.746-0.592 0.746l0.005-0.397 0.084 0.003 0.001-0.136h-0.459l-0.002 0.136 0.099-0.004v0.382c-0.094-0.266-0.515-0.749-0.515-0.749-0.947 0.181-0.974 1.172-0.974 1.172h3.24c-0.040-0.938-0.818-1.133-0.889-1.153z"></path>
<path d="M13.752 8.31v0.008c0-0.001 0-0.003 0-0.004s0-0.002 0-0.003z"></path>
<path d="M21.069 18.342c0.202-0.198 0.469-0.306 0.744-0.306v0c0.092 0 0.184 0.013 0.275 0.037 0.367 0.099 0.654 0.389 0.753 0.759s-0.006 0.765-0.274 1.037l-1.137 1.146-0.366-0.363 1.14-1.15c0.139-0.14 0.192-0.343 0.141-0.535s-0.2-0.341-0.39-0.394c-0.189-0.051-0.389 0-0.528 0.139l-1.135 1.143-0.366-0.363c0.342-0.343 0.747-0.751 1.142-1.151zM21.949 21.64c-0.271 0.269-0.667 0.372-1.037 0.273s-0.659-0.386-0.759-0.753c-0.098-0.364 0.003-0.751 0.269-1.020 0.4-0.396 0.808-0.8 1.151-1.14l0.363 0.366-1.145 1.135c-0.138 0.139-0.19 0.338-0.139 0.528 0.052 0.191 0.202 0.339 0.394 0.39s0.396-0.003 0.535-0.141l1.15-1.14 0.363 0.366-1.145 1.136z"></path>
</svg>
