<?xml version="1.0" encoding="utf-8"?>
<!-- Generated by IcoMoon.io -->
<!DOCTYPE svg PUBLIC "-//W3C//DTD SVG 1.1//EN" "http://www.w3.org/Graphics/SVG/1.1/DTD/svg11.dtd">
<svg version="1.1" xmlns="http://www.w3.org/2000/svg" xmlns:xlink="http://www.w3.org/1999/xlink" width="32" height="32" viewBox="0 0 32 32">
<path fill="#000" d="M31.057 10.539l-2.942-2.942c0.318-0.557 0.53-1.193 0.53-1.909 0-2.015-1.75-3.764-3.764-3.764s-3.632 1.644-3.632 3.658c0 2.015 1.75 3.764 3.764 3.764 0.663 0 1.299-0.186 1.829-0.504l2.942 2.969c0.212 0.212 0.583 0.212 0.795 0l0.557-0.557c0.212-0.239 0.133-0.504-0.080-0.716zM24.987 8.471c-1.511 0-2.889-1.352-2.889-2.889s1.246-2.783 2.783-2.783c1.538 0 2.889 1.378 2.889 2.889 0 1.564-1.246 2.783-2.783 2.783z"></path>
<path d="M10.089 16.848c0.769 0.265 2.068 0.769 2.73 1.378l4.931-0.053c0.133-0.159 0.186-0.239 0.345-0.451 0.345-0.477 0.371-0.954-0.398-0.954-0.371 0-6.786 0.027-7.529 0.027-0.133 0-0.212 0-0.080 0.053z"></path>
<path d="M8.684 21.832c-0.027 0-0.027 0.027 0 0.027l5.938-0.186c0.371-0.027 0.636-0.292 0.769-0.477l0.981-1.246c0.027-0.027 0.027-0.053-0.027-0.027l-7.661 1.909z"></path>
<path d="M18.969 7.067c0-0.239 0-0.477 0.027-0.716l-4.904-1.935-13.281 5.249v21.022h26.562v-16.595c-0.398 0.080-0.822 0.106-1.246 0.106-3.95 0.027-7.157-3.181-7.157-7.131zM21.408 21.514c-0.265 0.345-0.557 0.663-0.875 0.954-0.636 0.636-1.405 1.193-2.253 1.67-0.583 0.345-1.246 0.636-1.909 0.875-0.424 0.159-0.822 0.265-1.246 0.371-1.511 0.398-2.995 0.451-4.321 0.265-0.212-0.027-0.398-0.053-0.583-0.106-1.060-0.239-1.988-0.636-2.73-1.193-0.345-0.265-0.636-0.557-0.901-0.875-0.265-0.345-0.477-0.716-0.636-1.14-0.504-1.378-0.239-2.836 0.424-4.109 0.265-0.504 0.61-0.981 0.981-1.431 0.186-0.212 0.398-0.424 0.61-0.636 0.742-0.742 1.67-1.405 2.73-1.935 0.186-0.106 0.398-0.186 0.61-0.292 0.265-0.133 0.557-0.239 0.848-0.345 1.166-0.424 2.333-0.663 3.446-0.742 1.856-0.106 3.897 0.239 5.408 1.405 0.212 0.159 0.424 0.345 0.61 0.53 0.398 0.451 0.742 0.954 0.928 1.511 0.663 1.829 0 3.764-1.14 5.222z"></path>
<path d="M21.54 18.386l-8.562 0.159c0.027 0.345-0.345 0.848-1.113 1.325-0.398 0.239-1.299 0.716-4.533 1.935-0.053 0.027-0.027 0.053 0 0.053 5.567-1.405 9.252-2.465 14.209-3.393 0.159 0 0.239-0.053 0-0.080z"></path>
</svg>
