<?xml version="1.0" encoding="utf-8"?>
<!-- Generated by IcoMoon.io -->
<!DOCTYPE svg PUBLIC "-//W3C//DTD SVG 1.1//EN" "http://www.w3.org/Graphics/SVG/1.1/DTD/svg11.dtd">
<svg version="1.1" xmlns="http://www.w3.org/2000/svg" xmlns:xlink="http://www.w3.org/1999/xlink" width="32" height="32" viewBox="0 0 32 32">
<path fill="#000" d="M31.057 10.539l-2.916-2.916c0.318-0.557 0.53-1.193 0.53-1.882 0-1.988-1.723-3.711-3.711-3.711s-3.605 1.617-3.605 3.605c0 1.988 1.723 3.711 3.711 3.711 0.663 0 1.272-0.186 1.829-0.477l2.916 2.916c0.212 0.212 0.583 0.212 0.769 0l0.557-0.557c0.239-0.212 0.159-0.477-0.080-0.689zM25.093 8.498c-1.511 0-2.863-1.352-2.863-2.863s1.219-2.73 2.73-2.73c1.511 0 2.863 1.352 2.863 2.863s-1.219 2.73-2.73 2.73z"></path>
<path d="M22.23 11.653c-1.087-1.087-1.803-2.545-1.935-4.188l-6.097-2.412-6.124 2.147 12.698 4.904 1.458-0.451z"></path>
<path d="M7.703 7.385l-6.256 2.227 12.777 4.56 6.071-1.935z"></path>
<path d="M0.89 25.808l13.228 4.719v-16.011l-13.228-4.719z"></path>
<path d="M22.521 11.918l-8.059 2.571v16.038l13.228-4.135v-12.936c-0.292 0.027-0.583 0.053-0.875 0.053-1.644 0.027-3.155-0.583-4.294-1.591z"></path>
</svg>
