<?xml version="1.0" encoding="utf-8"?>
<!-- Generated by IcoMoon.io -->
<!DOCTYPE svg PUBLIC "-//W3C//DTD SVG 1.1//EN" "http://www.w3.org/Graphics/SVG/1.1/DTD/svg11.dtd">
<svg version="1.1" xmlns="http://www.w3.org/2000/svg" xmlns:xlink="http://www.w3.org/1999/xlink" width="32" height="32" viewBox="0 0 32 32">
<path d="M9.905 4.432c-0.657 0.251-0.504 0.767-0.23 1.725 0.277 0.954 0.313 1.869-0.376 2.557-0.135 0.12-0.267 0.239-0.395 0.364-0.009 0.008-0.014 0.008-0.023 0.014-0.73 0.657-1.642 0.569-2.583 0.241-0.941-0.331-1.448-0.513-1.735 0.129-0.286 0.637-0.094 0.204-0.554 1.237-0.005 0.010-0.008 0.017-0.014 0.030-0.463 1.031-0.27 0.599-0.553 1.235-0.287 0.643 0.186 0.9 1.059 1.383 0.865 0.477 1.532 1.094 1.539 2.056-0.011 0.181-0.017 0.363-0.017 0.545-0.002 0.014-0.009 0.022-0.009 0.037-0.049 0.98-0.758 1.563-1.657 1.996-0.898 0.432-1.388 0.663-1.136 1.319 0.248 0.651 0.079 0.208 0.483 1.266 0.003 0.011 0.006 0.019 0.011 0.029 0.401 1.059 0.233 0.615 0.482 1.265 0.251 0.659 0.768 0.506 1.726 0.23 0.954-0.275 1.865-0.311 2.555 0.374 0.119 0.136 0.238 0.27 0.366 0.397 0.008 0.009 0.007 0.017 0.017 0.026 0.653 0.727 0.568 1.642 0.238 2.58-0.329 0.942-0.51 1.449 0.128 1.737 0.639 0.284 0.206 0.090 1.238 0.555 0.007 0.003 0.011 0.006 0.019 0.009 0.003 0.001 0.006 0.002 0.010 0.003 1.031 0.462 0.599 0.267 1.237 0.553 0.641 0.285 0.898-0.187 1.381-1.061 0.477-0.866 1.098-1.537 2.065-1.54 0.175 0.011 0.352 0.018 0.528 0.016 0.019 0.002 0.026 0.011 0.046 0.011 0.976 0.051 1.562 0.759 1.993 1.657 0.433 0.898 0.663 1.386 1.319 1.137 0.651-0.25 0.209-0.081 1.267-0.484 0.006-0.002 0.010-0.003 0.017-0.006 0.005-0.002 0.008-0.002 0.012-0.005 1.057-0.403 0.615-0.237 1.267-0.483 0.656-0.25 0.505-0.767 0.227-1.726-0.278-0.957-0.314-1.875 0.384-2.563v0c0.13-0.117 0.26-0.233 0.384-0.355 0.009-0.010 0.017-0.008 0.028-0.019 0.727-0.654 1.641-0.567 2.582-0.238s1.448 0.511 1.734-0.13c0.284-0.637 0.091-0.203 0.557-1.236 0.002-0.007 0.004-0.013 0.006-0.018s0.003-0.009 0.005-0.011c0.462-1.034 0.267-0.601 0.552-1.238 0.286-0.641-0.185-0.898-1.059-1.382-0.87-0.479-1.542-1.1-1.541-2.072 0.010-0.173 0.016-0.344 0.016-0.518 0.002-0.019 0.010-0.028 0.011-0.048 0.051-0.977 0.759-1.561 1.658-1.992 0.896-0.435 1.385-0.665 1.136-1.321-0.25-0.65-0.082-0.209-0.483-1.267-0.002-0.007-0.004-0.010-0.007-0.018-0.001-0.004-0.002-0.008-0.005-0.011-0.404-1.058-0.235-0.613-0.483-1.267-0.251-0.655-0.767-0.503-1.727-0.227-0.956 0.278-1.877 0.313-2.561-0.384-0.002-0.001-0.003-0.001-0.003-0.001-0.117-0.13-0.231-0.259-0.353-0.382-0.009-0.010-0.009-0.018-0.018-0.029-0.655-0.726-0.569-1.641-0.239-2.582s0.51-1.447-0.129-1.735c-0.637-0.286-0.206-0.092-1.236-0.555-0.009-0.002-0.016-0.006-0.026-0.010 0-0.002-0.002-0.002-0.003-0.002-1.034-0.465-0.602-0.268-1.238-0.553-0.642-0.287-0.899 0.186-1.382 1.058-0.477 0.868-1.099 1.541-2.070 1.541-0.173-0.011-0.348-0.016-0.524-0.015-0.018-0.002-0.024-0.011-0.043-0.011-0.98-0.051-1.565-0.757-1.996-1.657s-0.663-1.384-1.319-1.136c-0.659 0.252-0.194 0.075-1.296 0.495-1.052 0.402-0.611 0.235-1.262 0.481zM19.519 14.674c0.799 2.093-0.251 4.437-2.345 5.236-2.092 0.798-4.437-0.252-5.235-2.344-0.799-2.094 0.251-4.438 2.343-5.237 2.094-0.798 4.438 0.251 5.236 2.345z"></path>
</svg>
