<?xml version="1.0" encoding="utf-8"?>
<!-- Generator: Adobe Illustrator 15.0.0, SVG Export Plug-In . SVG Version: 6.00 Build 0)  -->
<!DOCTYPE svg PUBLIC "-//W3C//DTD SVG 1.1//EN" "http://www.w3.org/Graphics/SVG/1.1/DTD/svg11.dtd">
<svg version="1.1" id="Calque_1" xmlns="http://www.w3.org/2000/svg" xmlns:xlink="http://www.w3.org/1999/xlink" x="0px" y="0px"
	 width="368.5px" height="368.5px" viewBox="0 0 368.5 368.5" enable-background="new 0 0 368.5 368.5" xml:space="preserve">
<g>
	<defs>
		<rect id="SVGID_1_" x="8" y="7" width="354" height="354"/>
	</defs>
	<clipPath id="SVGID_2_">
		<use xlink:href="#SVGID_1_"  overflow="visible"/>
	</clipPath>
	<path clip-path="url(#SVGID_2_)" fill="#010101" d="M194.355,291.438c0-2.971-0.313-5.854-0.95-8.62
		c-0.638-2.766-1.318-5.315-2.021-7.659c-0.713-2.334-1.945-4.786-3.727-7.336c-1.772-2.561-3.269-4.71-4.473-6.492
		c-1.194-1.772-3.074-3.868-5.629-6.277s-4.505-4.213-5.855-5.423c-1.351-1.199-3.613-3.015-6.801-5.413
		c-3.197-2.431-5.401-4.051-6.605-4.904c-1.194-0.854-3.539-2.474-7.012-4.894c-3.473-2.409-5.645-3.9-6.492-4.462
		c-2.415-0.292-5.953-0.432-10.637-0.432c-7.664,0-15.173,0.496-22.551,1.49c-7.368,0.994-15.039,2.766-22.969,5.315
		c-7.956,2.56-14.902,5.812-20.855,9.788c-5.957,3.964-10.852,9.29-14.676,15.956c-3.83,6.665-5.742,14.249-5.742,22.763
		c0,9.646,2.512,18.257,7.546,25.852c5.029,7.584,11.635,13.536,19.786,17.879c8.156,4.322,16.707,7.541,25.637,9.68
		c8.934,2.117,17.938,3.177,27.023,3.177c8.362,0,16.34-0.875,23.93-2.657c7.59-1.772,14.714-4.538,21.379-8.297
		c6.66-3.749,11.949-8.967,15.85-15.633C192.411,308.161,194.355,300.361,194.355,291.438 M168.838,108.053
		c0-8.518-1.172-17.555-3.516-27.121c-2.34-9.571-5.678-18.83-10.004-27.77c-4.327-8.939-10.273-16.308-17.863-22.125
		c-7.59-5.807-16.064-8.718-25.426-8.718c-13.195,0-23.395,4.889-30.633,14.682C74.164,46.777,70.545,58.482,70.545,72.1
		c0,6.661,0.821,13.688,2.447,21.066c1.626,7.368,4.148,14.747,7.557,22.125c3.398,7.368,7.368,14.002,11.91,19.889
		c4.538,5.889,10.069,10.663,16.594,14.357c6.521,3.685,13.402,5.531,20.635,5.531c13.764,0,23.719-4.288,29.893-12.877
		C165.748,133.608,168.838,122.238,168.838,108.053 M140.961,7h92.967l-28.715,16.805h-28.721
		c10.063,6.379,17.863,15.318,23.395,26.813c5.531,11.483,8.297,23.464,8.297,35.953c0,10.489-1.62,19.813-4.883,27.964
		c-3.263,8.168-7.238,14.714-11.916,19.684c-4.678,4.964-9.361,9.534-14.039,13.715c-4.684,4.197-8.664,8.518-11.916,12.99
		c-3.262,4.468-4.889,9.248-4.889,14.357c0,3.685,1.162,7.304,3.506,10.853c2.334,3.538,5.386,6.936,9.15,10.204
		c3.749,3.262,7.897,6.665,12.439,10.219c4.538,3.544,9.075,7.477,13.623,11.798c4.538,4.332,8.687,9.01,12.445,14.044
		c3.749,5.034,6.807,11.062,9.14,18.084c2.345,7.012,3.512,14.574,3.512,22.655c0,22.697-9.929,42.694-29.785,59.99
		C173.02,351.709,143.229,361,105.229,361c-8.372,0-16.848-0.713-25.43-2.128c-8.578-1.415-17.227-3.792-25.956-7.12
		c-8.718-3.338-16.416-7.453-23.076-12.348c-6.671-4.894-12.137-11.203-16.383-18.928C10.123,312.742,8,304.132,8,294.625
		c0-8.653,2.62-18.225,7.865-28.715c4.548-9.074,11.349-16.918,20.434-23.508c9.069-6.601,19.359-11.635,30.844-15.104
		c11.488-3.489,22.476-6.027,32.977-7.67c10.495-1.62,21.125-2.582,31.902-2.863c-9.07-11.775-13.607-22.335-13.607-31.707
		c0-1.69,0.146-3.359,0.422-4.996c0.286-1.626,0.643-3.009,1.064-4.148c0.426-1.129,0.993-2.658,1.701-4.57
		c0.707-1.912,1.204-3.44,1.49-4.569c-5.672,0.696-10.641,1.063-14.887,1.063c-21.142,0-39.254-6.962-54.362-20.855
		c-15.103-13.893-22.654-31.351-22.654-52.336c0-19.856,6.736-37.611,20.208-53.287c13.477-15.675,30.07-25.711,49.781-30.103
		C114.509,8.415,127.775,7,140.961,7 M362,61.459v27.234h-54.459v54.465h-27.235V88.693h-54.459V61.459h54.459V7h27.235v54.459H362z
		"/>
</g>
</svg>
