<?xml version="1.0" encoding="utf-8"?>
<!-- Generated by IcoMoon.io -->
<!DOCTYPE svg PUBLIC "-//W3C//DTD SVG 1.1//EN" "http://www.w3.org/Graphics/SVG/1.1/DTD/svg11.dtd">
<svg version="1.1" xmlns="http://www.w3.org/2000/svg" xmlns:xlink="http://www.w3.org/1999/xlink" width="32" height="32" viewBox="0 0 32 32">
<path fill="#000" d="M16.757 26.23c0-0.222-0.023-0.438-0.071-0.645s-0.099-0.398-0.151-0.573c-0.053-0.175-0.146-0.358-0.279-0.549s-0.245-0.353-0.335-0.486c-0.089-0.133-0.23-0.29-0.421-0.47s-0.337-0.315-0.438-0.406c-0.101-0.090-0.271-0.226-0.509-0.405-0.239-0.182-0.404-0.303-0.495-0.367s-0.265-0.185-0.525-0.366c-0.26-0.18-0.423-0.292-0.486-0.334-0.181-0.022-0.446-0.032-0.796-0.032-0.574 0-1.136 0.037-1.689 0.112s-1.126 0.207-1.72 0.398c-0.596 0.192-1.116 0.435-1.562 0.733s-0.813 0.696-1.099 1.195c-0.287 0.499-0.43 1.067-0.43 1.704 0 0.722 0.188 1.367 0.565 1.936s0.871 1.014 1.482 1.339c0.611 0.324 1.251 0.565 1.92 0.725 0.669 0.159 1.343 0.238 2.023 0.238 0.626 0 1.223-0.066 1.792-0.199s1.102-0.34 1.601-0.621c0.499-0.281 0.895-0.671 1.187-1.171s0.438-1.084 0.438-1.752zM14.846 12.499c0-0.638-0.088-1.314-0.263-2.031s-0.425-1.41-0.749-2.079c-0.324-0.669-0.769-1.221-1.338-1.657s-1.203-0.653-1.904-0.653c-0.988 0-1.752 0.366-2.294 1.099-0.542 0.732-0.812 1.608-0.812 2.628 0 0.499 0.061 1.025 0.183 1.577s0.311 1.104 0.566 1.657c0.254 0.552 0.552 1.048 0.892 1.489s0.754 0.798 1.242 1.075c0.488 0.276 1.004 0.414 1.545 0.414 1.031 0 1.776-0.321 2.238-0.964s0.693-1.494 0.693-2.556zM12.759 4.932h6.961l-2.15 1.258h-2.151c0.753 0.478 1.337 1.147 1.752 2.008s0.621 1.757 0.621 2.692c0 0.785-0.121 1.483-0.366 2.094-0.244 0.612-0.542 1.102-0.892 1.474s-0.701 0.714-1.051 1.027c-0.351 0.314-0.649 0.638-0.892 0.973s-0.366 0.692-0.366 1.075c0 0.276 0.087 0.547 0.263 0.813s0.403 0.519 0.685 0.764c0.281 0.244 0.591 0.499 0.931 0.765s0.68 0.56 1.020 0.883c0.34 0.324 0.65 0.675 0.932 1.052s0.51 0.828 0.684 1.354c0.176 0.525 0.263 1.091 0.263 1.696 0 1.699-0.743 3.197-2.23 4.492-1.614 1.391-3.844 2.087-6.69 2.087-0.627 0-1.262-0.053-1.904-0.159s-1.29-0.284-1.943-0.533c-0.653-0.25-1.229-0.558-1.728-0.925s-0.909-0.839-1.227-1.417c-0.319-0.579-0.478-1.224-0.478-1.936 0-0.648 0.196-1.365 0.589-2.15 0.341-0.679 0.85-1.267 1.53-1.76 0.679-0.494 1.45-0.871 2.309-1.131 0.86-0.261 1.683-0.451 2.469-0.574 0.786-0.121 1.582-0.193 2.389-0.214-0.679-0.882-1.019-1.672-1.019-2.374 0-0.127 0.011-0.252 0.032-0.374s0.048-0.225 0.080-0.311c0.032-0.085 0.074-0.199 0.127-0.342s0.090-0.258 0.112-0.342c-0.425 0.052-0.797 0.080-1.115 0.080-1.583 0-2.939-0.521-4.070-1.562s-1.696-2.347-1.696-3.919c0-1.487 0.504-2.816 1.513-3.99s2.252-1.925 3.727-2.254c0.998-0.213 1.992-0.319 2.979-0.319zM29.309 9.010v2.039h-4.078v4.078h-2.039v-4.078h-4.078v-2.039h4.078v-4.078h2.039v4.078h4.078z"></path>
</svg>
