<?xml version="1.0" encoding="utf-8"?>
<!-- Generated by IcoMoon.io -->
<!DOCTYPE svg PUBLIC "-//W3C//DTD SVG 1.1//EN" "http://www.w3.org/Graphics/SVG/1.1/DTD/svg11.dtd">
<svg version="1.1" xmlns="http://www.w3.org/2000/svg" xmlns:xlink="http://www.w3.org/1999/xlink" width="32" height="32" viewBox="0 0 32 32">
<path fill="#000" d="M12.702 18.412c-1.058-1.551-1.698-3.446-1.698-5.465 0-3.791 2.191-7.065 5.366-8.64-1.231-1.28-2.929-2.068-4.825-2.068-3.717 0-6.72 3.003-6.72 6.72 0 2.289 1.157 4.332 2.929 5.538-3.865 1.502-6.597 5.243-6.597 9.625v1.502h6.72c0.837-2.905 2.535-5.44 4.825-7.212z"></path>
<path d="M24.025 18.486c1.772-1.206 2.929-3.249 2.929-5.538 0-3.717-3.003-6.72-6.72-6.72s-6.72 3.003-6.72 6.72c0 2.289 1.157 4.332 2.929 5.538-3.84 1.502-6.572 5.268-6.572 9.649v1.502h20.751v-1.502c-0.025-4.382-2.757-8.123-6.597-9.649z"></path>
</svg>
