<?xml version="1.0" encoding="utf-8"?>
<!-- Generated by IcoMoon.io -->
<!DOCTYPE svg PUBLIC "-//W3C//DTD SVG 1.1//EN" "http://www.w3.org/Graphics/SVG/1.1/DTD/svg11.dtd">
<svg version="1.1" xmlns="http://www.w3.org/2000/svg" xmlns:xlink="http://www.w3.org/1999/xlink" width="32" height="32" viewBox="0 0 32 32">
<path fill="#000" d="M15.673 10.037v0.008c0.027 0 0.052-0.003 0.078-0.004 0.027 0.001 0.052 0.004 0.079 0.004v-0.008c1.587-0.082 2.848-1.39 2.848-2.995s-1.262-2.912-2.848-2.994v-0.008c-0.027 0-0.052 0.003-0.079 0.004-0.026-0.001-0.052-0.004-0.078-0.004v0.008c-1.587 0.081-2.848 1.388-2.848 2.993s1.261 2.914 2.848 2.996z"></path>
<path d="M27.104 27.222l-0.626-6.729c-0.069-0.747-0.628-1.329-1.331-1.461-0.198-0.067-0.409-0.106-0.63-0.106h-4.591l-0.701-5.763c-0.155-1.283-1.553-2.169-3.121-1.978s-2.712 1.386-2.556 2.669l0.848 6.97c0.036 0.291 0.138 0.561 0.288 0.803 0.294 0.705 0.989 1.202 1.802 1.202h6.91l0.437 4.697c0.085 0.903 0.884 1.567 1.787 1.483s1.567-0.884 1.483-1.787z"></path>
<path d="M20.675 24.262c-0.395-0.065-0.773 0.199-0.841 0.596-0.558 3.27-3.369 5.644-6.686 5.644-3.745 0-6.792-3.047-6.792-6.792 0-3.299 2.359-6.109 5.609-6.68 0.397-0.070 0.662-0.448 0.592-0.845s-0.447-0.661-0.845-0.592c-3.948 0.694-6.814 4.108-6.814 8.117 0 4.55 3.701 8.251 8.25 8.251 4.030 0 7.447-2.884 8.125-6.858 0.068-0.397-0.199-0.774-0.597-0.841z"></path>
</svg>
