<?xml version="1.0" encoding="utf-8"?>
<!-- Generated by IcoMoon.io -->
<!DOCTYPE svg PUBLIC "-//W3C//DTD SVG 1.1//EN" "http://www.w3.org/Graphics/SVG/1.1/DTD/svg11.dtd">
<svg version="1.1" xmlns="http://www.w3.org/2000/svg" xmlns:xlink="http://www.w3.org/1999/xlink" width="32" height="32" viewBox="0 0 32 32">
<path fill="#000" d="M16.654 5.571l2.143-2.143h3.501v3.501l-2.613 2.561c-0.314-1.097-0.888-2.038-1.725-2.822-0.366-0.418-0.836-0.784-1.306-1.097zM12.473 5.31c1.881 0 3.606 0.784 4.86 1.986 1.202 1.254 1.986 2.979 1.986 4.86 0 1.306-0.366 2.561-1.045 3.606-1.725 2.77-0.679 7.525-5.696 7.525-1.306 0-2.456-0.523-3.292-1.359-0.157-0.157-0.314-0.314-0.47-0.523l1.15-1.097c0.104 0.157 0.261 0.366 0.418 0.523 0.575 0.523 1.359 0.888 2.195 0.888 3.449 0 2.613-4.024 4.338-6.794 0.523-0.784 0.836-1.777 0.836-2.77 0-1.463-0.575-2.77-1.516-3.763-0.993-0.941-2.299-1.516-3.763-1.516-1.411 0-2.77 0.575-3.71 1.516-0.836 0.888-1.359 1.986-1.516 3.136l-1.411-0.888c0.261-1.254 0.888-2.404 1.829-3.345 1.254-1.202 2.926-1.986 4.808-1.986zM8.763 10.118c0.209-0.366 0.418-0.679 0.732-0.993 0.784-0.784 1.829-1.254 2.979-1.254 1.202 0 2.247 0.47 3.031 1.254 0.732 0.784 1.254 1.829 1.254 3.031 0 1.15-0.523 2.195-1.254 2.979l-0.679-0.679c0.575-0.575 0.941-1.411 0.941-2.299 0-0.941-0.366-1.725-0.941-2.352-0.627-0.575-1.411-0.941-2.352-0.941-0.888 0-1.725 0.366-2.299 0.941-0.209 0.261-0.418 0.47-0.575 0.784l-0.836-0.47zM12.682 16.493v0l-6.114 6.114h-3.501v-3.449l5.278-5.278 4.338 2.613z"></path>
<path d="M30.095 20.668c-0.444-0.298-0.489-0.595-0.928-0.691-0.539-0.131-1.119-0.050-1.457-0.116-0.131-0.015-1.321 0.333-2.057 0.716-0.696 0.368 0.938-0.666 1.341-1.195 1.195-0.358 0.852-0.373 1.432-0.504 0.524-0.106 0.499-0.076 0.862-0.181 0.368-0.101 0.681-0.605 0.327-0.892-0.217-0.161-0.872 0.086-1.518 0.091-0.292 0.020-1.467 0.56-1.734 0.711-0.665 0.348-1.155 0.842-1.548 1.104-0.55 0.398 0.615-1.018 1.104-1.608 0.141-0.202 0.207-0.242 0.388-0.479 0.283-0.388-0.086-0.963-0.267-0.892-0.222 0.101-0.363 0.534-0.63 0.686-0.096 0.055-0.418 0.529-0.716 0.862-0.222 0.242-0.383 0.353-0.595 0.63-0.363 0.429-0.434 0.766-0.746 1.22-0.192 0.272-0.333 0.343-0.504 0.655-0.933 1.754-0.665 2.546-1.553 3.786-0.272 0.398-0.579 0.484-1.014 0.716-0.403 2.934 0.928 4.573 0.923 4.563 1.124-0.64 1.724-0.908 2.894-0.867 0.439 0.025 0.671 0.212 1.104 0.181 0.403-0.025 0.61-0.176 1.013-0.297 0.62-0.206 0.958-0.378 1.578-0.57 0.444-0.126 0.706-0.131 1.135-0.297 0.368-0.136 0.192-0.010 0.449-0.298 0.327-0.378 0.252-0.666 0.534-1.281 0.418-0.842 0.373-0.953 0.151-1.044 0.141-0.433 0.182-0.711 0.146-1.164-0.045-0.353 0.106-0.6-0.267-0.862-0.509-0.393-1.578-1.281-1.845-1.286-0.413 0.005-1.603-0.040-2.208 0.358-0.136 0.106-0.177 0.192-0.060-0.116 0.025-0.056 1.507-1.21 1.669-1.225 1.057-0.023 1.324-0.066 1.374-0.090 0.105 0.003 1.004 1.096 1.55 0.715 0.202-0.136 0.302-0.257 0.388-0.474-0.076-0.156-0.409-0.388-0.717-0.565zM26.127 24.067c0.484-0.358 0.514-0.076 1.638-0.686 0-0.015 0.464 0.469 1.195 0.686-0.005 0.005 0.196 0.953 0.595 1.281-0.948 0.711-0.923 1.321-1.074 1.311-0.338-0.040-0.877-0.212-1.875 0.152-0.58-1.079-1.27-1.019-1.074-1.644 0.212-0.716 0.187-0.807 0.595-1.099z"></path>
</svg>
