<?xml version="1.0" encoding="utf-8"?>
<!-- Generated by IcoMoon.io -->
<!DOCTYPE svg PUBLIC "-//W3C//DTD SVG 1.1//EN" "http://www.w3.org/Graphics/SVG/1.1/DTD/svg11.dtd">
<svg version="1.1" xmlns="http://www.w3.org/2000/svg" xmlns:xlink="http://www.w3.org/1999/xlink" width="32" height="32" viewBox="0 0 32 32">
<path fill="#000" d="M30.844 18.885c0 0-4.393-7.816-13.978-7.816-0.179 0-0.355 0.004-0.53 0.009l-0.837-3.934-1.284 0.273 0.798 3.753c-8.278 0.904-11.954 7.658-11.954 7.658s0.764 1.505 2.39 3.217l-0.67-3.146c-0.014-0.024-0.021-0.037-0.021-0.037s0.267-0.449 0.819-1.107l1.174 5.519c0.482 0.411 1.014 0.815 1.596 1.197l-1.676-7.876c0.333-0.315 0.711-0.643 1.134-0.969l2.070 9.728c0.467 0.234 0.96 0.449 1.478 0.641l-2.379-11.181c0.388-0.242 0.804-0.476 1.249-0.696l2.627 12.343c0.451 0.115 0.918 0.21 1.402 0.284l-1-4.699c0.452 0.548 1.023 0.993 1.673 1.297l0.756 3.552c0.313 0.018 0.632 0.030 0.958 0.030 0.131 0 0.26-0.002 0.39-0.006l-0.674-3.165c0.196 0.024 0.396 0.038 0.599 0.038 0.25 0 0.497-0.019 0.736-0.056l1.514 7.12 1.283-0.273-0.837-3.936c7.461-1.424 11.194-7.761 11.194-7.761zM12.333 17.725l-0.882-4.145c0.414-0.158 0.85-0.302 1.306-0.427l0.576 2.707c-0.461 0.531-0.808 1.166-1 1.865zM14.47 14.9l-0.434-2.038c0.418-0.076 0.851-0.137 1.3-0.179l0.36 1.693c-0.437 0.118-0.849 0.296-1.227 0.525zM17.003 14.208l-0.34-1.596c0.071-0.001 0.142-0.002 0.214-0.002 0.313 0 0.619 0.010 0.92 0.026 3.076 0.488 5.427 3.15 5.427 6.363 0 2.67-1.625 4.959-3.939 5.936l-0.336-1.58c1.649-0.757 2.795-2.422 2.795-4.356-0-2.63-2.118-4.764-4.742-4.791zM22.645 24.164c1.214-1.377 1.952-3.183 1.952-5.165 0-2.073-0.809-3.956-2.125-5.355 4.544 1.787 6.674 5.263 6.674 5.263s-2.167 3.378-6.5 5.257z"></path>
</svg>
