<?xml version="1.0" encoding="utf-8"?>
<!-- Generated by IcoMoon.io -->
<!DOCTYPE svg PUBLIC "-//W3C//DTD SVG 1.1//EN" "http://www.w3.org/Graphics/SVG/1.1/DTD/svg11.dtd">
<svg version="1.1" xmlns="http://www.w3.org/2000/svg" xmlns:xlink="http://www.w3.org/1999/xlink" width="32" height="32" viewBox="0 0 32 32">
<path fill="#000" d="M14.333 10.465h6.519c0.27 0 0.489-0.219 0.489-0.489s-0.219-0.489-0.489-0.489h-6.519c-0.27 0-0.489 0.219-0.489 0.489 0 0.269 0.219 0.489 0.489 0.489z"></path>
<path d="M14.333 8.509h13.039c0.27 0 0.489-0.219 0.489-0.489s-0.219-0.489-0.489-0.489h-13.039c-0.27 0-0.489 0.219-0.489 0.489-0.001 0.27 0.219 0.489 0.489 0.489z"></path>
<path d="M30.631 5.249h-19.558c-0.27 0-0.489 0.219-0.489 0.489v5.215h0.978v-4.725h18.58v12.061h-9.91v0.978h10.399c0.27 0 0.489-0.22 0.489-0.49v-13.039c0-0.27-0.219-0.489-0.489-0.489z"></path>
<path d="M20.231 16.005h7.139c0.27 0 0.489-0.219 0.489-0.489v-3.136c0-0.146-0.065-0.285-0.179-0.379-0.113-0.093-0.262-0.13-0.405-0.101l-1.959 0.391c-0.093 0.018-0.175 0.063-0.24 0.125l-1.702 1.361-1.665-0.666c-0.043-0.019-0.087-0.033-0.133-0.041-0.118-0.017-0.242 0.009-0.346 0.076-0.003 0.002-0.005 0.004-0.007 0.005l-0.999 0.599c0.003 0.057 0.007 0.111 0.007 0.169l0.002 2.084z"></path>
<path d="M17.262 11.769h-14.301c-1.188 0-2.156 0.966-2.156 2.155v8.423c0 1.188 0.966 2.155 2.156 2.155h0.784v1.751c0 0.18 3.574-1.753 3.574-1.753h9.943c1.188 0 2.155-0.966 2.155-2.155v-8.423c-0.001-1.187-0.967-2.154-2.156-2.154z"></path>
</svg>
