<?xml version="1.0" encoding="utf-8"?>
<!-- Generated by IcoMoon.io -->
<!DOCTYPE svg PUBLIC "-//W3C//DTD SVG 1.1//EN" "http://www.w3.org/Graphics/SVG/1.1/DTD/svg11.dtd">
<svg version="1.1" xmlns="http://www.w3.org/2000/svg" xmlns:xlink="http://www.w3.org/1999/xlink" width="32" height="32" viewBox="0 0 32 32">
<path d="M15.987 0.929c-8.364 0-15.145 6.781-15.145 15.145s6.782 15.145 15.145 15.145c8.363 0 15.145-6.781 15.145-15.145s-6.781-15.145-15.145-15.145zM16.869 23.964h-2.183v-2.183h2.183v2.183zM20.33 14.231c-0.32 0.575-0.944 1.274-1.874 2.098-0.625 0.554-1.033 0.962-1.224 1.225s-0.334 0.564-0.426 0.905c-0.092 0.341-0.146 0.895-0.16 1.661h-1.842c-0.007-0.256-0.011-0.447-0.011-0.575 0-0.752 0.107-1.402 0.319-1.949 0.156-0.411 0.409-0.826 0.756-1.246 0.256-0.305 0.715-0.75 1.379-1.336s1.095-1.053 1.294-1.4c0.199-0.348 0.298-0.727 0.298-1.139 0-0.745-0.291-1.4-0.873-1.965s-1.296-0.847-2.14-0.847c-0.816 0-1.498 0.256-2.045 0.767s-0.905 1.309-1.075 2.396l-1.97-0.234c0.177-1.455 0.705-2.57 1.581-3.344s2.036-1.161 3.477-1.161c1.526 0 2.744 0.415 3.653 1.246s1.363 1.835 1.363 3.013c-0 0.682-0.16 1.31-0.479 1.885z"></path>
</svg>
