<?xml version="1.0" encoding="utf-8"?>
<!-- Generated by IcoMoon.io -->
<!DOCTYPE svg PUBLIC "-//W3C//DTD SVG 1.1//EN" "http://www.w3.org/Graphics/SVG/1.1/DTD/svg11.dtd">
<svg version="1.1" xmlns="http://www.w3.org/2000/svg" xmlns:xlink="http://www.w3.org/1999/xlink" width="32" height="32" viewBox="0 0 32 32">
<path d="M29.027 14.414h-18.209c-0.082-2.513-2.142-4.524-4.675-4.524l-0.379 0c-2.585 0.001-4.677 2.094-4.678 4.678v3.815c0.001 2.585 2.094 4.678 4.678 4.679l0.379-0c2.532-0.001 4.592-2.011 4.675-4.524h10.878v3.779h2.062v-2.749h2.061v2.749h2.062v-3.78h1.145c1.138 0 2.061-0.923 2.061-2.062s-0.923-2.061-2.061-2.061zM7.958 18.383c-0.002 1.002-0.813 1.813-1.815 1.815h-0.379c-1.002-0.002-1.813-0.813-1.815-1.815v-3.815c0.002-1.002 0.813-1.813 1.815-1.815h0.379c1.002 0.002 1.814 0.813 1.815 1.815v3.815z"></path>
</svg>
