<?xml version="1.0" encoding="utf-8"?>
<!-- Generated by IcoMoon.io -->
<!DOCTYPE svg PUBLIC "-//W3C//DTD SVG 1.1//EN" "http://www.w3.org/Graphics/SVG/1.1/DTD/svg11.dtd">
<svg version="1.1" xmlns="http://www.w3.org/2000/svg" xmlns:xlink="http://www.w3.org/1999/xlink" width="32" height="32" viewBox="0 0 32 32">
<path fill="#000" d="M31.031 12.159c-2.355-4.8-7.611-6.119-11.252-6.116-3.713 0.004-11.364 1.216-16.711 7.523-2.189 2.581-3.35 5.988-2.559 9.632 1.036 4.764 6.528 9.043 15.816 7.063 13.503-2.878 17.035-13.357 14.706-18.101zM28.049 22.273c-0.006 0.009-0.015 0.017-0.022 0.025-1.098 1.282-2.505 2.508-4.234 3.61-5.068 2.97-9.11 3.269-11.817 3.23-3.214-0.014-9.176-1.348-10.645-6.736-0.009-0.034-0.014-0.069-0.021-0.104-0.002-0.008-0.003-0.017-0.005-0.025-0.715-3.258 0.619-6.361 2.773-8.868 0.008-0.009 0.015-0.017 0.023-0.026 1.361-1.577 3.046-2.917 4.749-3.907 3.42-1.996 7.447-2.958 10.564-2.926 3.526-0.032 8.328 0.956 10.635 4.992 0.323 0.58 0.559 1.198 0.714 1.841 0.002 0.009 0.003 0.018 0.005 0.026 0.649 2.737-0.228 5.949-2.719 8.868zM8.752 13.518c1.362 0.485 3.612 1.348 4.79 2.402l8.608-0.094c0.242-0.299 0.334-0.422 0.59-0.767 0.62-0.833 0.661-1.669-0.672-1.687-0.706-0.010-11.911 0.040-13.215 0.047-0.208-0.003-0.357-0.003-0.101 0.098zM28.742 16.216l-14.971 0.271c0.059 0.608-0.59 1.483-1.945 2.323-0.697 0.433-2.284 1.273-7.901 3.387-0.075 0.030-0.039 0.109 0.017 0.097 9.716-2.456 16.16-4.286 24.804-5.92 0.264-0.040 0.423-0.152-0.003-0.158zM19.709 18.857l-13.412 3.38c-0.027 0.009-0.047 0.054 0.019 0.052l10.391-0.334c0.639-0.024 1.093-0.527 1.332-0.848l1.702-2.185c0.043-0.044 0.041-0.089-0.031-0.065z"></path>
</svg>
