<?xml version="1.0" encoding="utf-8"?>
<!-- Generated by IcoMoon.io -->
<!DOCTYPE svg PUBLIC "-//W3C//DTD SVG 1.1//EN" "http://www.w3.org/Graphics/SVG/1.1/DTD/svg11.dtd">
<svg version="1.1" xmlns="http://www.w3.org/2000/svg" xmlns:xlink="http://www.w3.org/1999/xlink" width="32" height="32" viewBox="0 0 32 32">
<path d="M24.609 14.62h-0.527v-4.283c-0.026-5.253-3.61-8.111-7.963-8.111s-8.256 2.995-8.12 8.111l-0.005 4.278c0 0 0.066 0.005-0.263 0.005-0.346 0-2.637 0.403-2.637 2.446v9.802c0 2.178 2.578 2.722 2.637 2.722h16.748c0.061 0 2.506-0.271 2.506-2.722v-9.666c0-2.314-2.314-2.581-2.375-2.581zM17.995 25.818h-3.904l0.81-3.986c-0.58-0.386-0.965-1.058-0.965-1.824 0-1.199 0.942-2.172 2.104-2.172s2.104 0.973 2.104 2.172c0 0.765-0.385 1.437-0.965 1.823l0.817 3.986zM11.681 14.62l0.005-4.226c0-2.723 1.661-4.9 4.352-4.9 2.665 0 4.352 1.905 4.352 4.9l0.002 4.226h-8.712z"></path>
</svg>
