<?xml version="1.0" encoding="utf-8"?>
<!-- Generator: Adobe Illustrator 15.0.0, SVG Export Plug-In . SVG Version: 6.00 Build 0)  -->
<!DOCTYPE svg PUBLIC "-//W3C//DTD SVG 1.1//EN" "http://www.w3.org/Graphics/SVG/1.1/DTD/svg11.dtd">
<svg version="1.1" id="Calque_1" xmlns="http://www.w3.org/2000/svg" xmlns:xlink="http://www.w3.org/1999/xlink" x="0px" y="0px"
	 width="368.5px" height="368.5px" viewBox="0 0 368.5 368.5" enable-background="new 0 0 368.5 368.5" xml:space="preserve">
<g>
	<defs>
		<rect id="SVGID_1_" x="58.648" y="25.629" width="252.09" height="315.112"/>
	</defs>
	<clipPath id="SVGID_2_">
		<use xlink:href="#SVGID_1_"  overflow="visible"/>
	</clipPath>
	<path clip-path="url(#SVGID_2_)" fill="#010101" d="M283.387,168.355h-6.071v-49.319c-0.305-60.486-41.57-93.407-91.696-93.407
		c-50.132,0-95.075,34.49-93.512,93.407l-0.059,49.267c0,0,0.764,0.057-3.028,0.057c-3.988,0-30.372,4.646-30.372,28.162v112.875
		c0,25.079,29.689,31.345,30.372,31.345h192.861c0.699,0,28.856-3.12,28.856-31.345V198.082
		C310.738,171.436,284.086,168.355,283.387,168.355 M207.219,297.312H162.26l9.324-45.897c-6.678-4.446-11.115-12.186-11.115-21.005
		c0-13.805,10.85-25.013,24.225-25.013c13.373,0,24.224,11.208,24.224,25.013c0,8.812-4.435,16.546-11.112,20.996L207.219,297.312z
		 M134.516,168.355l0.061-48.66c0-31.352,19.125-56.432,50.119-56.432c30.693,0,50.117,21.941,50.117,56.432l0.024,48.66H134.516z"
		/>
</g>
</svg>
