<?xml version="1.0" encoding="utf-8"?>
<!-- Generator: Adobe Illustrator 16.0.0, SVG Export Plug-In . SVG Version: 6.00 Build 0)  -->
<!DOCTYPE svg PUBLIC "-//W3C//DTD SVG 1.1//EN" "http://www.w3.org/Graphics/SVG/1.1/DTD/svg11.dtd">
<svg version="1.1" xmlns="http://www.w3.org/2000/svg" xmlns:xlink="http://www.w3.org/1999/xlink" x="0px" y="0px"
	 width="368.55px" height="369px" viewBox="0 0 368.55 369" enable-background="new 0 0 368.55 369" xml:space="preserve">
<g id="Calque_1" display="none">
	<g display="inline">
		<defs>
			<rect id="SVGID_1_" y="59.35" width="368.55" height="257.65"/>
		</defs>
		<clipPath id="SVGID_2_">
			<use xlink:href="#SVGID_1_"  overflow="visible"/>
		</clipPath>
		<path clip-path="url(#SVGID_2_)" fill="#FFFFFF" d="M364.55,115.232c-3.858-30.667-23.816-51.762-53.881-53.882
			c0,0-90.024-2-125.944-2c-0.146,0-0.302,0-0.449,0c-0.149,0-0.303,0-0.449,0c-35.921,0-125.945,2-125.945,2
			C27.817,63.47,7.859,84.565,4,115.232c0,0-4,39.599-4,71.943s4,71.942,4,71.942C7.148,289.921,25.838,310.904,57.881,313
			c0,0,73.342,4,125.945,4c0.148,0,0.3,0,0.449-0.001c0.148,0.001,0.301,0.001,0.449,0.001c52.604,0,125.944-4,125.944-4
			c32.043-2.096,50.733-23.079,53.881-53.883c0,0,4-39.599,4-71.942S364.55,115.232,364.55,115.232 M147.082,238.981v-102.87
			l5.969,3.13l92.118,48.305l-11.996,6.29L147.082,238.981z"/>
	</g>
</g>
<g id="twitter" display="none">
	<path display="inline" d="M362.18,77.349c-13.103,5.811-27.172,9.732-41.943,11.5c15.082-9.037,26.657-23.348,32.113-40.398
		c-14.115,8.364-29.741,14.443-46.372,17.719c-13.321-14.194-32.302-23.057-53.3-23.057c-40.327,0-73.021,32.691-73.021,73.018
		c0,5.724,0.642,11.296,1.889,16.639c-60.683-3.041-114.504-32.113-150.509-76.293c-6.287,10.786-9.891,23.329-9.891,36.711
		c0,25.332,12.891,47.679,32.484,60.777c-11.961-0.378-23.227-3.658-33.073-9.128c-0.007,0.302-0.007,0.604-0.007,0.914
		c0,35.381,25.177,64.895,58.574,71.602c-6.12,1.669-12.573,2.564-19.237,2.564c-4.7,0-9.271-0.457-13.737-1.311
		c9.294,29.007,36.269,50.122,68.216,50.708c-24.996,19.589-56.474,31.264-90.688,31.264c-5.894,0-11.705-0.348-17.417-1.031
		c32.31,20.726,70.687,32.819,111.935,32.819c134.309,0,207.761-111.274,207.761-207.772c0-3.158-0.067-6.309-0.212-9.449
		C340.011,104.856,352.387,91.996,362.18,77.349z"/>
</g>
<g id="facebook" display="none">
	<path display="inline" d="M275.268,86.848h-47.446c-5.606,0-11.873,7.377-11.873,17.249v34.263h59.319v48.832h-59.319v146.647
		h-55.998V187.191h-50.775V138.36h50.775v-28.745c0-41.214,28.606-74.741,67.871-74.741h47.446V86.848z"/>
</g>
<g id="faq" display="none">
	<g display="inline">
		<defs>
			<rect id="SVGID_3_" x="13" y="42.376" width="346.338" height="287.462"/>
		</defs>
		<clipPath id="SVGID_4_">
			<use xlink:href="#SVGID_3_"  overflow="visible"/>
		</clipPath>
		<path clip-path="url(#SVGID_4_)" d="M52.701,263.658h9.42v66.18H177.4v-66.169h9.176v66.169h39.46v-77.451
			c0-30.684-23.46-60.672-58.846-60.672l-96.079-0.053C38.883,191.662,13,218.288,13,251.528v78.303h39.701V263.658z"/>
		<path clip-path="url(#SVGID_4_)" d="M119.387,178.76c25.29,0,45.769-20.501,45.769-45.794c0-25.279-20.479-45.766-45.769-45.766
			c-25.293,0-45.791,20.487-45.791,45.766C73.597,158.248,94.094,178.76,119.387,178.76"/>
		<path clip-path="url(#SVGID_4_)" fill="#1D1D1B" d="M286.605,42.372c-40.164,0-72.727,32.562-72.727,72.73
			c0,1.372,0.134,2.708,0.208,4.06l-31.505,30.812l41.615,2.422c12.704,21.219,35.885,35.44,62.408,35.44
			c40.166,0,72.732-32.566,72.732-72.733C359.338,74.934,326.771,42.372,286.605,42.372 M296.359,158.74h-17.512v-16.879h17.512
			V158.74z M307.524,108.869l-9.39,12.434c-1.27,1.653-2.285,4.319-2.285,6.475v2.666h-16.494v-3.808
			c0-5.454,1.522-8.882,4.824-13.197l9.388-12.058c2.031-2.662,3.679-5.709,3.679-8.497c0-5.964-3.93-10.408-10.274-10.408
			c-6.728,0-10.155,4.695-10.155,10.53h-16.497c0-15.733,11.933-25.376,26.652-25.376c14.334,0,26.772,9.266,26.772,25.376
			C313.744,99.354,311.075,104.172,307.524,108.869"/>
	</g>
</g>
<g id="app" display="none">
	<g display="inline">
		<defs>
			<rect id="SVGID_5_" x="89.079" y="9.377" width="200.392" height="348.623"/>
		</defs>
		<clipPath id="SVGID_6_">
			<use xlink:href="#SVGID_5_"  overflow="visible"/>
		</clipPath>
		<path clip-path="url(#SVGID_6_)" d="M247.107,9.377H131.429c-23.398,0-42.35,19.298-42.35,43.1v262.426
			c0,23.799,18.956,43.098,42.35,43.098h115.678c23.403,0,42.363-19.299,42.363-43.098V52.481
			C289.471,28.68,270.511,9.377,247.107,9.377 M189.285,335.218c-11.401,0-20.635-9.223-20.635-20.611
			c0-11.385,9.233-20.599,20.635-20.599c11.376,0,20.604,9.214,20.604,20.599C209.889,325.995,200.665,335.218,189.285,335.218
			 M263.356,276.746H115.193V57.284h148.164V276.746z"/>
	</g>
</g>
<g id="mail">
	<g display="none">
		<polygon display="inline" points="13.001,109.519 13.001,298.403 353,298.403 353,109.519 183.003,225.123 		"/>
		<polygon display="inline" points="353.006,74.001 13,74.001 183.003,189.6 		"/>
	</g>
	<g>
		<path fill="#020202" d="M341.947,110.854L204.679,248.115c-5.368,5.362-12.5,8.32-20.093,8.32c-7.585,0-14.71-2.958-20.085-8.32
			L26.999,111.041v171.263c0,8.868,7.225,16.1,16.1,16.1h282.75c8.875,0,16.1-7.231,16.1-16.1V110.854z"/>
		<path fill="#020202" d="M30.371,95.175l1.977,2.083l140.861,140.399c3.052,3.059,7.091,4.722,11.392,4.722
			s8.334-1.663,11.379-4.708l142.65-142.657c3.238-3.312,4.119-8.453,2.189-13.007c-2.13-5.062-7.024-7.959-13.395-7.959
			c-19.853,0-273.462-0.047-284.186-0.047l-1.015,0.113c-0.234,0.027-0.467,0.047-0.714,0.047c-6.37,0-11.245,2.898-13.382,7.953
			C26.197,86.668,27.079,91.796,30.371,95.175z"/>
	</g>
</g>
<g id="location" display="none">
	<g display="inline">
		<defs>
			<rect id="SVGID_7_" x="71" y="7.96" width="232.459" height="344.04"/>
		</defs>
		<clipPath id="SVGID_8_">
			<use xlink:href="#SVGID_7_"  overflow="visible"/>
		</clipPath>
		<path clip-path="url(#SVGID_8_)" fill="#010101" d="M187.23,7.96C123.04,7.96,71,60.001,71,124.189
			C71,188.379,187.23,352,187.23,352s116.229-163.621,116.229-227.811C303.459,60.001,251.42,7.96,187.23,7.96 M187.23,182.304
			c-32.091,0-58.116-26.024-58.116-58.115c0-32.09,26.024-58.114,58.116-58.114c32.09,0,58.114,26.024,58.114,58.114
			C245.345,156.28,219.32,182.304,187.23,182.304"/>
	</g>
</g>
<g id="newsletter" display="none">
	<g display="inline">
		<defs>
			<rect id="SVGID_9_" x="51" y="51" width="274" height="274"/>
		</defs>
		<clipPath id="SVGID_10_">
			<use xlink:href="#SVGID_9_"  overflow="visible"/>
		</clipPath>
		<path clip-path="url(#SVGID_10_)" d="M325,188c0-75.537-61.457-137-137-137c-75.542,0-137,61.463-137,137
			c0,75.548,61.458,137.002,137,137.002c8.239,0,14.92-6.681,14.92-14.922s-6.681-14.92-14.92-14.92
			c-59.086,0-107.16-48.068-107.16-107.16c0-59.084,48.073-107.154,107.16-107.154c59.087,0,107.16,48.067,107.16,107.154
			c0,16.779-3.768,32.805-11.175,47.672c-0.091,0.146-0.203,0.28-0.296,0.434c-3.229,5.127-8.759,8.185-14.806,8.185
			c-9.636,0-17.479-7.836-17.479-17.486l-0.075-94.104c-0.005-8.233-6.687-14.906-14.92-14.906h-0.008
			c-7.617,0.011-13.885,5.721-14.784,13.093c-11.544-8.226-25.645-13.082-40.87-13.082c-38.927,0-70.6,31.667-70.6,70.598
			c0,38.928,31.673,70.601,70.6,70.601c16.592,0,31.851-5.767,43.915-15.378c6.792,17.816,24.048,30.509,44.227,30.509
			c15.58,0,29.893-7.513,38.756-20.201c0.803-0.905,1.52-1.903,2.098-3.023C319.724,231.604,325,209.855,325,188 M180.749,229.159
			c-22.477,0-40.763-18.28-40.763-40.758c0-22.479,18.286-40.757,40.763-40.757c22.471,0,40.754,18.281,40.754,40.757
			C221.503,210.879,203.22,229.159,180.749,229.159"/>
	</g>
</g>
<g id="shop" display="none">
	<g display="inline">
		<rect x="64.648" y="127.102" width="164.213" height="197.898"/>
		<rect x="237.282" y="127.102" width="71.577" height="197.898"/>
		<path d="M160.117,80.832c19.359,0,28.038,21.006,28.038,42.059h21.031c0-29.474-18.1-63.091-49.069-63.091
			c-30.977,0-49.071,33.617-49.071,63.091h21.028C132.074,101.838,140.756,80.832,160.117,80.832z"/>
		<path d="M188.154,65.341c0,0,6.578,4.841,13.363,15.582c0,0.004,3.067-1.289,7.668-1.069c19.336,0.917,28.04,21.984,28.04,43.038
			h21.029c0-29.474-18.105-64.066-49.069-64.066c0,0-0.18-0.004-0.451-0.006h-0.275C205.519,58.829,194.215,59.278,188.154,65.341z"
			/>
	</g>
</g>
<g id="share" display="none">
	<g display="inline">
		<defs>
			<rect id="SVGID_11_" x="62.499" y="66" width="241.549" height="247.148"/>
		</defs>
		<clipPath id="SVGID_12_">
			<use xlink:href="#SVGID_11_"  overflow="visible"/>
		</clipPath>
		<path clip-path="url(#SVGID_12_)" d="M260.687,226.438c-11.228,0-21.429,4.303-29.132,11.308l-82.891-42.27
			c0.331-2.153,0.554-4.349,0.554-6.602c0-1.268-0.083-2.516-0.191-3.753l83.677-42.666c7.557,6.396,17.314,10.261,27.986,10.261
			c23.943,0,43.354-19.407,43.354-43.357c0-23.947-19.411-43.36-43.354-43.36c-23.947,0-43.358,19.41-43.358,43.36
			c0,1.322,0.08,2.628,0.195,3.914l-83.571,42.614c-7.566-6.455-17.367-10.373-28.092-10.373c-23.947,0-43.365,19.415-43.365,43.36
			c0,23.95,19.417,43.365,43.365,43.365c9.658,0,18.542-3.199,25.748-8.536l85.831,43.761c-0.044,0.773-0.118,1.54-0.118,2.326
			c0,23.949,19.415,43.358,43.362,43.358c23.943,0,43.357-19.409,43.357-43.358C304.044,245.85,284.63,226.438,260.687,226.438"/>
	</g>
</g>
<g id="fav" display="none">
	<polygon display="inline" fill="#1D1D1B" points="189.126,58.188 151.751,149.815 53.061,157.046 128.652,220.904 105.032,317 
		189.126,264.843 273.217,317 249.6,220.904 325.189,157.046 226.502,149.815 	"/>
</g>
<g id="track" display="none">
	<g display="inline">
		<rect x="57.161" y="82.702" fill="#231F20" width="41.558" height="221.597"/>
		<rect x="35.398" y="82.702" fill="#231F20" width="10.552" height="221.597"/>
		<rect x="108.601" y="82.702" fill="#231F20" width="21.763" height="221.597"/>
		<rect x="140.916" y="82.702" fill="#231F20" width="21.763" height="221.597"/>
		<rect x="172.571" y="82.702" fill="#231F20" width="10.562" height="221.597"/>
		<rect x="194.004" y="82.702" fill="#231F20" width="31.326" height="221.597"/>
		<rect x="235.232" y="82.702" fill="#231F20" width="21.752" height="221.597"/>
		<rect x="267.536" y="82.702" fill="#231F20" width="21.773" height="221.597"/>
		<rect x="298.521" y="82.702" fill="#231F20" width="42.877" height="221.597"/>
	</g>
</g>
<g id="arrow2" display="none">
	<polygon display="inline" points="101.894,35.33 252.627,186.06 101.894,336.768 118.039,336.768 268.762,186.06 118.039,35.33 	
		"/>
</g>
<g id="arrow_1_" display="none">
	<polygon display="inline" points="128.94,282.682 145.086,282.682 241.715,186.053 145.077,89.416 128.94,89.416 225.568,186.053 	
		"/>
</g>
<g id="chevron" display="none">
	<polygon display="inline" points="155.985,143.508 198.523,186.061 155.985,228.59 172.131,228.59 214.67,186.061 172.122,143.508 
			"/>
</g>
<g id="close" display="none">
	<polygon display="inline" points="310.355,70.147 297.831,70.147 186.178,181.803 74.526,70.147 62,70.147 178.938,187.082 62,304 
		74.526,304 186.178,192.361 297.831,304 310.355,304 193.417,187.082 	"/>
</g>
<g id="calculator" display="none">
	<g display="inline">
		<defs>
			<rect id="SVGID_13_" x="28.748" width="313.684" height="369"/>
		</defs>
		<clipPath id="SVGID_14_">
			<use xlink:href="#SVGID_13_"  overflow="visible"/>
		</clipPath>
		<path clip-path="url(#SVGID_14_)" d="M290.71,0H80.455C51.891,0,28.749,23.128,28.749,51.705v265.571v0.018
			c0,28.555,23.142,51.706,51.706,51.706H290.71c28.579,0,51.722-23.148,51.722-51.706v-0.018V51.705
			C342.432,23.128,319.289,0,290.71,0 M126.664,315.529c0,7.074-5.75,12.822-12.839,12.822H77.438
			c-7.097,0-12.839-5.748-12.839-12.822V302.67c0-7.073,5.742-12.821,12.839-12.821h36.386c7.089,0,12.839,5.748,12.839,12.821
			V315.529z M126.664,248.35c0,7.092-5.75,12.842-12.839,12.842H77.438c-7.097,0-12.839-5.753-12.839-12.842v-12.843
			c0-7.075,5.742-12.836,12.839-12.836h36.386c7.089,0,12.839,5.761,12.839,12.836V248.35z M126.664,181.168
			c0,7.093-5.75,12.864-12.839,12.864H77.438c-7.097,0-12.839-5.769-12.839-12.864v-12.82c0-7.097,5.742-12.842,12.839-12.842
			h36.386c7.089,0,12.839,5.746,12.839,12.842V181.168z M215.763,315.529c0,7.074-5.765,12.822-12.844,12.822h-36.364
			c-7.11,0-12.859-5.748-12.859-12.822V302.67c0-7.073,5.749-12.821,12.859-12.821h36.364c7.079,0,12.844,5.748,12.844,12.821
			V315.529z M215.763,248.35c0,7.092-5.765,12.842-12.844,12.842h-36.364c-7.11,0-12.859-5.753-12.859-12.842v-12.843
			c0-7.075,5.749-12.836,12.859-12.836h36.364c7.079,0,12.844,5.761,12.844,12.836V248.35z M215.763,181.168
			c0,7.093-5.765,12.864-12.844,12.864h-36.364c-7.11,0-12.859-5.769-12.859-12.864v-12.82c0-7.097,5.749-12.842,12.859-12.842
			h36.364c7.079,0,12.844,5.746,12.844,12.842V181.168z M304.86,315.529c0,7.074-5.751,12.822-12.839,12.822H255.66
			c-7.099,0-12.842-5.748-12.842-12.822V302.67c0-7.073,5.745-12.821,12.842-12.821h36.361c7.088,0,12.839,5.748,12.839,12.821
			V315.529z M304.86,248.35c0,7.092-5.751,12.842-12.839,12.842H255.66c-7.099,0-12.842-5.753-12.842-12.842v-12.843
			c0-7.075,5.745-12.836,12.842-12.836h36.361c7.088,0,12.839,5.761,12.839,12.836V248.35z M304.86,181.168
			c0,7.093-5.751,12.864-12.839,12.864H255.66c-7.099,0-12.842-5.769-12.842-12.864v-12.82c0-7.097,5.745-12.842,12.842-12.842
			h36.361c7.088,0,12.839,5.746,12.839,12.842V181.168z M305.335,111.633c0,7.09-5.752,12.839-12.84,12.839H77.438
			c-7.097,0-12.839-5.749-12.839-12.839V54.933c0-7.093,5.742-12.84,12.839-12.84h215.057c7.092,0,12.84,5.748,12.84,12.84V111.633z
			"/>
	</g>
</g>
<g id="exclamation" display="none">
	<g display="inline">
		<defs>
			<rect id="SVGID_15_" x="17.202" width="334.149" height="369"/>
		</defs>
		<clipPath id="SVGID_16_">
			<use xlink:href="#SVGID_15_"  overflow="visible"/>
		</clipPath>
		<path clip-path="url(#SVGID_16_)" fill="#1D1D1B" d="M321.599,71.94C269.054-3.896,164.976-22.787,89.125,29.755
			C13.29,82.293-5.592,186.382,46.953,262.225c1.791,2.584,3.788,4.936,5.703,7.395L33.468,369l81.744-49.863
			c51.746,23.438,114.121,19.98,164.206-14.715C355.253,251.875,374.144,147.779,321.599,71.94 M206.314,272.335h-44.078v-43.772
			h44.078V272.335z M198.334,206.379h-28.406l-9.457-144.656h47.618L198.334,206.379z"/>
	</g>
</g>
<g id="plus" display="none">
	<path display="inline" fill="#010101" d="M183.468,14C89.235,14,12.833,90.402,12.833,184.627
		c0,94.232,76.402,170.643,170.635,170.643c94.225,0,170.627-76.41,170.627-170.643C354.095,90.402,277.692,14,183.468,14z
		 M268.782,195.727h-74.228v74.223h-22.179v-74.223H98.147v-18.776h74.228V99.32h22.179v77.63h74.228V195.727z"/>
</g>
<g id="clock" display="none">
	<path display="inline" d="M303.844,64.545c-32.133-32.141-74.856-49.841-120.306-49.841c-45.445,0-88.178,17.7-120.316,49.841
		C31.09,96.683,13.39,139.407,13.39,184.855c0,45.446,17.7,88.17,49.832,120.302c32.138,32.146,74.871,49.847,120.316,49.847
		c45.44,0,88.173-17.701,120.306-49.847c32.137-32.132,49.837-74.855,49.837-120.302C353.681,139.407,335.98,96.683,303.844,64.545z
		 M248.563,258.089c-3.312,3.321-7.67,4.981-12.022,4.981c-4.35,0-8.699-1.66-12.021-4.981l-57.984-57.992V73.999
		c0-9.396,7.606-17.003,17.002-17.003c9.383,0,17.007,7.606,17.007,17.003v112.018l48.019,48.027
		C255.208,240.688,255.208,251.448,248.563,258.089z"/>
</g>
<g id="tool" display="none">
	<g id="Your_Icon" display="inline">
		<path d="M315.741,163.989l-3.425-26.05l21.626-31.641l-31.859-45.771L262.267,75.77l-22.771-15.242l-5.692-35.631l-52.354-6.739
			l-18.2,35.033l-25.017,7.346l-31.888-22.082L64.236,60.536l12.392,37.859l-15.591,26.229l-38.869,6.476l-5.715,54.358
			l33.574,11.174c0,0,13.075,35.173,9.658,35.173c-3.4,0-23.898,30.554-23.898,30.554l27.315,42.944l45.53-18.106l21.601,18.106
			l3.417,39.552l53.489,7.936l15.917-35.049l23.923-5.669l36.391,20.374l39.823-27.144l-11.374-37.332l11.374-22.578l43.24-9.085
			l9.116-54.227L315.741,163.989z M186.037,258.59c-42.456,0-76.837-32.733-76.837-73.133c0-40.405,34.381-73.148,76.837-73.148
			c42.354,0,76.798,32.743,76.798,73.148C262.835,225.856,228.392,258.59,186.037,258.59z"/>
	</g>
</g>
<g id="frame" display="none">
	<g display="inline">
		<polygon points="43.458,241.487 17.238,241.487 17.238,323.739 99.49,323.739 99.49,297.518 43.458,297.518 		"/>
		<polygon points="43.458,79.377 99.49,79.377 99.49,53.157 17.238,53.157 17.238,135.408 43.458,135.408 		"/>
		<polygon points="272.288,53.157 272.288,79.377 328.328,79.377 328.328,135.408 354.55,135.408 354.55,53.157 		"/>
		<polygon points="328.328,297.518 272.288,297.518 272.288,323.739 354.55,323.739 354.55,241.487 328.328,241.487 		"/>
		<rect x="64.44" y="100.369" width="242.906" height="176.159"/>
	</g>
</g>
<g id="ean" display="none">
	<g display="inline">
		<rect x="322.491" y="70" fill="#000100" width="29.059" height="242.16"/>
		<rect x="278.902" y="70" fill="#000100" width="29.059" height="242.16"/>
		<rect x="162.665" y="70" fill="#000100" width="29.06" height="242.16"/>
		<rect x="206.254" y="70" fill="#000100" width="58.118" height="242.16"/>
		<rect x="90.017" y="70" fill="#000100" width="58.119" height="242.16"/>
		<rect x="17.369" y="70" fill="#000100" width="58.119" height="242.16"/>
	</g>
</g>
<g id="check" display="none">
	<g display="inline">
		<g>
			<line opacity="0.3" fill="none" stroke="#449FDB" enable-background="new    " x1="12.129" y1="1.37" x2="12.129" y2="369"/>
			<line fill="none" stroke="#449FDB" x1="25.259" y1="1.37" x2="25.259" y2="369"/>
			<line opacity="0.3" fill="none" stroke="#449FDB" enable-background="new    " x1="38.389" y1="1.37" x2="38.389" y2="369"/>
			<line fill="none" stroke="#449FDB" x1="51.519" y1="1.37" x2="51.519" y2="369"/>
			<line opacity="0.3" fill="none" stroke="#449FDB" enable-background="new    " x1="64.648" y1="1.37" x2="64.648" y2="369"/>
			<line fill="none" stroke="#449FDB" x1="77.778" y1="1.37" x2="77.778" y2="369"/>
			<line opacity="0.3" fill="none" stroke="#449FDB" enable-background="new    " x1="90.908" y1="1.37" x2="90.908" y2="369"/>
			<line fill="none" stroke="#449FDB" x1="104.037" y1="1.37" x2="104.037" y2="369"/>
			<line opacity="0.3" fill="none" stroke="#449FDB" enable-background="new    " x1="117.167" y1="1.37" x2="117.167" y2="369"/>
			<line fill="none" stroke="#449FDB" x1="130.297" y1="1.37" x2="130.297" y2="369"/>
			<line opacity="0.3" fill="none" stroke="#449FDB" enable-background="new    " x1="143.426" y1="1.37" x2="143.426" y2="369"/>
			<line fill="none" stroke="#449FDB" x1="156.556" y1="1.37" x2="156.556" y2="369"/>
			<line opacity="0.3" fill="none" stroke="#449FDB" enable-background="new    " x1="169.686" y1="1.37" x2="169.686" y2="369"/>
			<line fill="none" stroke="#449FDB" x1="182.815" y1="1.37" x2="182.815" y2="369"/>
			<line opacity="0.3" fill="none" stroke="#449FDB" enable-background="new    " x1="195.945" y1="1.37" x2="195.945" y2="369"/>
			<line fill="none" stroke="#449FDB" x1="209.075" y1="1.37" x2="209.075" y2="369"/>
			<line opacity="0.3" fill="none" stroke="#449FDB" enable-background="new    " x1="222.204" y1="1.37" x2="222.204" y2="369"/>
			<line fill="none" stroke="#449FDB" x1="235.335" y1="1.37" x2="235.335" y2="369"/>
			<line opacity="0.3" fill="none" stroke="#449FDB" enable-background="new    " x1="248.464" y1="1.37" x2="248.464" y2="369"/>
			<line fill="none" stroke="#449FDB" x1="261.594" y1="1.37" x2="261.594" y2="369"/>
			<line opacity="0.3" fill="none" stroke="#449FDB" enable-background="new    " x1="274.724" y1="1.37" x2="274.724" y2="369"/>
			<line fill="none" stroke="#449FDB" x1="287.853" y1="1.37" x2="287.853" y2="369"/>
			<line opacity="0.3" fill="none" stroke="#449FDB" enable-background="new    " x1="300.982" y1="1.37" x2="300.982" y2="369"/>
			<line fill="none" stroke="#449FDB" x1="314.112" y1="1.37" x2="314.112" y2="369"/>
			<line opacity="0.3" fill="none" stroke="#449FDB" enable-background="new    " x1="327.242" y1="1.37" x2="327.242" y2="369"/>
			<line fill="none" stroke="#449FDB" x1="340.372" y1="1.37" x2="340.372" y2="369"/>
			<line opacity="0.3" fill="none" stroke="#449FDB" enable-background="new    " x1="353.501" y1="1.37" x2="353.501" y2="369"/>
			<line opacity="0.3" fill="none" stroke="#449FDB" enable-background="new    " x1="-1" y1="14.499" x2="366.631" y2="14.499"/>
			<line fill="none" stroke="#449FDB" x1="-1" y1="27.629" x2="366.631" y2="27.629"/>
			<line opacity="0.3" fill="none" stroke="#449FDB" enable-background="new    " x1="-1" y1="40.759" x2="366.631" y2="40.759"/>
			<line fill="none" stroke="#449FDB" x1="-1" y1="53.888" x2="366.631" y2="53.888"/>
			<line opacity="0.3" fill="none" stroke="#449FDB" enable-background="new    " x1="-1" y1="67.018" x2="366.631" y2="67.018"/>
			<line fill="none" stroke="#449FDB" x1="-1" y1="80.147" x2="366.631" y2="80.147"/>
			<line opacity="0.3" fill="none" stroke="#449FDB" enable-background="new    " x1="-1" y1="93.277" x2="366.631" y2="93.277"/>
			<line fill="none" stroke="#449FDB" x1="-1" y1="106.407" x2="366.631" y2="106.407"/>
			<line opacity="0.3" fill="none" stroke="#449FDB" enable-background="new    " x1="-1" y1="119.537" x2="366.631" y2="119.537"/>
			<line fill="none" stroke="#449FDB" x1="-1" y1="132.666" x2="366.631" y2="132.666"/>
			<line opacity="0.3" fill="none" stroke="#449FDB" enable-background="new    " x1="-1" y1="145.796" x2="366.631" y2="145.796"/>
			<line fill="none" stroke="#449FDB" x1="-1" y1="158.925" x2="366.631" y2="158.925"/>
			<line opacity="0.3" fill="none" stroke="#449FDB" enable-background="new    " x1="-1" y1="172.056" x2="366.631" y2="172.056"/>
			<line fill="none" stroke="#449FDB" x1="-1" y1="185.185" x2="366.631" y2="185.185"/>
			<line opacity="0.3" fill="none" stroke="#449FDB" enable-background="new    " x1="-1" y1="198.314" x2="366.631" y2="198.314"/>
			<line fill="none" stroke="#449FDB" x1="-1" y1="211.443" x2="366.631" y2="211.443"/>
			<line opacity="0.3" fill="none" stroke="#449FDB" enable-background="new    " x1="-1" y1="224.573" x2="366.631" y2="224.573"/>
			<line fill="none" stroke="#449FDB" x1="-1" y1="237.704" x2="366.631" y2="237.704"/>
			<line opacity="0.3" fill="none" stroke="#449FDB" enable-background="new    " x1="-1" y1="250.833" x2="366.631" y2="250.833"/>
			<line fill="none" stroke="#449FDB" x1="-1" y1="263.963" x2="366.631" y2="263.963"/>
			<line opacity="0.3" fill="none" stroke="#449FDB" enable-background="new    " x1="-1" y1="277.093" x2="366.631" y2="277.093"/>
			<line fill="none" stroke="#449FDB" x1="-1" y1="290.222" x2="366.631" y2="290.222"/>
			<line opacity="0.3" fill="none" stroke="#449FDB" enable-background="new    " x1="-1" y1="303.352" x2="366.631" y2="303.352"/>
			<line fill="none" stroke="#449FDB" x1="-1" y1="316.481" x2="366.631" y2="316.481"/>
			<line opacity="0.3" fill="none" stroke="#449FDB" enable-background="new    " x1="-1" y1="329.611" x2="366.631" y2="329.611"/>
			<line fill="none" stroke="#449FDB" x1="-1" y1="342.741" x2="366.631" y2="342.741"/>
			<line opacity="0.3" fill="none" stroke="#449FDB" enable-background="new    " x1="-1" y1="355.87" x2="366.631" y2="355.87"/>
		</g>
		<path d="M143.833,301.096L34.227,192.381l19.235-19.418l90.286,89.558l195.15-195.095l19.317,19.314L143.833,301.096z"/>
	</g>
</g>
<g id="key" display="none">
	<g id="Your_Icon_1_" display="inline">
		<path d="M333.262,156.99H123.572c-0.948-28.936-24.668-52.092-53.83-52.102l-4.367,0.003
			c-29.766,0.006-53.862,24.112-53.876,53.875v43.928c0.014,29.766,24.11,53.866,53.876,53.88l4.367-0.002
			c29.162-0.012,52.881-23.16,53.83-52.096h125.271v43.521h23.741v-31.652h23.738v31.652h23.746v-43.525h13.19
			c13.109,0,23.739-10.628,23.739-23.743C357.002,167.618,346.373,156.99,333.262,156.99z M90.641,202.694
			c-0.02,11.539-9.366,20.879-20.905,20.901h-4.363c-11.536-0.022-20.878-9.362-20.898-20.901v-43.928
			c0.02-11.541,9.363-20.882,20.898-20.904h4.363c11.54,0.022,20.885,9.363,20.905,20.904V202.694z"/>
	</g>
</g>
<g id="pen" display="none">
	<g id="Your_Icon_2_" display="inline">
		<path d="M177.769,250.219l32.285,32.286c0,0,135.683-135.42,135.599-135.512c15.883-15.972,15.715-23.011,0-38.732
			c0.084-0.167-12.975-12.97-12.975-12.97L177.769,250.219z M163.076,235.534L318.003,80.615l-30.494-30.484l-154.911,154.92
			L163.076,235.534z M274.628,37.25l-12.882-12.881c-16.403-16.4-22.24-16.577-38.727,0L87.424,159.875l32.293,32.291L274.628,37.25
			z M74.542,172.755L14,355.5l183.173-60.112L74.542,172.755z M61.661,264.133l45.175,45.177L41.48,328.706L61.661,264.133z"/>
	</g>
</g>
<g id="interrogation" display="none">
	<path display="inline" d="M182.098,10.694c-96.31,0-174.404,78.094-174.404,174.403c0,96.31,78.094,174.403,174.404,174.403
		c96.31,0,174.402-78.093,174.402-174.403C356.5,88.788,278.407,10.694,182.098,10.694z M192.262,275.964h-25.139v-25.138h25.139
		V275.964z M232.116,163.882c-3.681,6.622-10.875,14.674-21.584,24.154c-7.193,6.376-11.894,11.081-14.101,14.102
		c-2.209,3.024-3.846,6.499-4.905,10.423c-1.063,3.925-1.677,10.301-1.841,19.127h-21.214c-0.082-2.943-0.123-5.149-0.123-6.618
		c0-8.663,1.229-16.143,3.679-22.444c1.799-4.734,4.704-9.517,8.707-14.344c2.947-3.511,8.236-8.641,15.884-15.39
		c7.647-6.748,12.606-12.123,14.896-16.125c2.289-4.003,3.433-8.377,3.433-13.122c0-8.583-3.352-16.125-10.056-22.625
		c-6.703-6.495-14.919-9.748-24.647-9.748c-9.402,0-17.25,2.946-23.544,8.829c-6.295,5.89-10.423,15.08-12.386,27.588l-22.686-2.694
		c2.04-16.755,8.113-29.591,18.21-38.505c10.097-8.907,23.442-13.366,40.038-13.366c17.577,0,31.601,4.782,42.064,14.347
		c10.465,9.562,15.696,21.136,15.696,34.7C237.633,150.026,235.794,157.261,232.116,163.882z"/>
</g>
<g id="bulb" display="none">
	<g display="inline">
		<defs>
			<rect id="SVGID_17_" x="55.055" y="27" width="252.928" height="314.058"/>
		</defs>
		<clipPath id="SVGID_18_">
			<use xlink:href="#SVGID_17_"  overflow="visible"/>
		</clipPath>
		<path clip-path="url(#SVGID_18_)" d="M181.357,105.283c-36.425,0-65.971,29.541-65.971,65.992c0,11.998,3.366,23.152,8.795,32.939
			c16.198,29.198,20.499,45.591,23.145,61.455c2.215,13.296,5.279,16.386,15.319,16.386h18.713h18.713
			c10.06,0,13.123-3.09,15.339-16.386c2.656-15.871,6.946-32.265,23.14-61.455c5.451-9.787,8.799-20.942,8.799-32.939
			C247.359,134.82,217.812,105.283,181.357,105.283"/>
		<path clip-path="url(#SVGID_18_)" d="M204.962,286.833h-47.163c-1.963,0-3.542,1.578-3.542,3.533v2.363
			c0,1.946,1.579,3.534,3.542,3.534h47.163c1.933,0,3.519-1.588,3.519-3.534v-2.363
			C208.489,288.411,206.895,286.833,204.962,286.833"/>
		<path clip-path="url(#SVGID_18_)" d="M204.962,300.979h-47.163c-1.963,0-3.542,1.572-3.542,3.536v2.36
			c0,1.948,1.579,3.528,3.542,3.528h47.163c1.933,0,3.519-1.58,3.519-3.528v-2.36C208.489,302.551,206.895,300.979,204.962,300.979"
			/>
		<path clip-path="url(#SVGID_18_)" d="M204.962,315.125h-47.163c-1.963,0-3.542,1.58-3.542,3.535v2.362
			c0,1.954,1.579,3.535,3.542,3.535h47.163c1.933,0,3.519-1.581,3.519-3.535v-2.362
			C208.489,316.705,206.895,315.125,204.962,315.125"/>
		<path clip-path="url(#SVGID_18_)" d="M163.687,329.272h35.386c0,7.069-9.45,11.785-17.716,11.785
			C173.123,341.058,163.687,336.342,163.687,329.272"/>
		<path clip-path="url(#SVGID_18_)" d="M257.144,58.826c6.015-10.534-10.225-19.989-16.29-9.477
			c-3.179,5.492-26.158,45.307-26.158,45.307l16.345,9.429c0,0,20.409-35.396,26.084-45.215c0.012-0.006,0.012-0.014,0.012-0.014
			L257.144,58.826z"/>
		<path clip-path="url(#SVGID_18_)" d="M293.928,95.701L293.928,95.701l-0.015,0.012l-0.031,0.004
			c-8.288,4.794-43.836,25.318-43.836,25.318l9.417,16.331c0,0,35.63-20.566,43.919-25.353
			C313.925,105.935,304.463,89.678,293.928,95.701"/>
		<path clip-path="url(#SVGID_18_)" d="M191.146,36.122v50.297h-18.867V36.122C172.279,23.96,191.146,23.96,191.146,36.122"/>
		<path clip-path="url(#SVGID_18_)" d="M105.898,58.826c-6.012-10.534,10.229-19.989,16.301-9.477
			c3.171,5.492,26.146,45.307,26.146,45.307l-16.324,9.429c0,0-20.441-35.396-26.111-45.215v-0.014L105.898,58.826z"/>
		<path clip-path="url(#SVGID_18_)" d="M69.132,95.701L69.132,95.701v0.012l0.023,0.004c8.312,4.794,43.842,25.318,43.842,25.318
			l-9.431,16.331c0,0-35.63-20.566-43.919-25.353C49.116,105.935,58.578,89.678,69.132,95.701"/>
	</g>
</g>
<g id="locked" display="none">
	<g display="inline">
		<defs>
			<rect id="SVGID_19_" x="54.648" y="27.629" width="252.09" height="315.112"/>
		</defs>
		<clipPath id="SVGID_20_">
			<use xlink:href="#SVGID_19_"  overflow="visible"/>
		</clipPath>
		<path clip-path="url(#SVGID_20_)" d="M279.387,170.355h-6.071v-49.319c-0.305-60.486-41.57-93.407-91.696-93.407
			c-50.132,0-95.075,34.49-93.512,93.407l-0.058,49.267c0,0,0.763,0.056-3.028,0.056c-3.988,0-30.373,4.646-30.373,28.163v112.875
			c0,25.079,29.689,31.345,30.373,31.345h192.861c0.699,0,28.856-3.12,28.856-31.345V200.082
			C306.738,173.436,280.086,170.355,279.387,170.355 M203.219,299.312H158.26l9.324-45.897
			c-6.678-4.446-11.115-12.186-11.115-21.005c0-13.805,10.85-25.013,24.225-25.013c13.373,0,24.224,11.208,24.224,25.013
			c0,8.812-4.435,16.546-11.112,20.996L203.219,299.312z M130.515,170.355l0.062-48.661c0-31.351,19.125-56.431,50.119-56.431
			c30.693,0,50.117,21.941,50.117,56.431l0.024,48.661H130.515z"/>
	</g>
</g>
<g id="laposte" display="none">
	<g display="inline">
		<defs>
			<rect id="SVGID_21_" x="2.642" y="42" width="361.254" height="284"/>
		</defs>
		<clipPath id="SVGID_22_">
			<use xlink:href="#SVGID_21_"  overflow="visible"/>
		</clipPath>
		<path clip-path="url(#SVGID_22_)" fill="#1D1D1B" d="M356.258,112.287C329.19,57.128,268.795,41.966,226.951,42
			c-42.664,0.04-130.598,13.979-192.044,86.455c-25.152,29.663-38.5,68.811-29.406,110.686
			c11.908,54.751,75.017,103.918,181.755,81.163C342.428,287.231,383.016,166.807,356.258,112.287 M321.989,228.521
			c-0.075,0.104-0.169,0.194-0.251,0.29c-12.623,14.738-28.784,28.818-48.652,41.481c-58.237,34.133-104.688,37.563-135.802,37.122
			c-36.936-0.163-105.449-15.495-122.331-77.404c-0.098-0.396-0.164-0.794-0.245-1.199c-0.02-0.096-0.038-0.191-0.053-0.29
			c-8.212-37.437,7.113-73.103,31.874-101.913c0.098-0.099,0.173-0.201,0.259-0.303c15.646-18.119,35.003-33.522,54.57-44.894
			c39.306-22.934,85.585-33.991,121.396-33.622c40.516-0.369,95.712,10.986,122.218,57.364c3.712,6.667,6.427,13.764,8.206,21.152
			c0.025,0.105,0.035,0.204,0.061,0.303C360.696,158.058,350.621,194.975,321.989,228.521 M100.225,127.906
			c15.65,5.568,41.509,15.491,55.044,27.603l98.918-1.076c2.778-3.438,3.839-4.851,6.776-8.814c7.13-9.57,7.601-19.181-7.72-19.383
			c-8.114-0.114-136.879,0.459-151.86,0.545C98.998,126.75,97.284,126.75,100.225,127.906 M329.942,158.908l-172.041,3.113
			c0.673,6.99-6.778,17.042-22.357,26.696c-8.004,4.977-26.25,14.623-90.802,38.921c-0.86,0.346-0.448,1.248,0.196,1.117
			c111.658-28.218,185.709-49.254,285.039-68.027C333.012,160.271,334.846,158.979,329.942,158.908 M226.144,189.267L72.015,228.113
			c-0.315,0.106-0.538,0.617,0.22,0.603l119.41-3.833c7.339-0.28,12.562-6.059,15.305-9.75l19.555-25.111
			C226.997,189.516,226.974,189.001,226.144,189.267"/>
	</g>
</g>
<g id="google_x2B_" display="none">
	<g display="inline">
		<defs>
			<rect id="SVGID_23_" x="9" y="8" width="354" height="354"/>
		</defs>
		<clipPath id="SVGID_24_">
			<use xlink:href="#SVGID_23_"  overflow="visible"/>
		</clipPath>
		<path clip-path="url(#SVGID_24_)" d="M195.355,292.438c0-2.971-0.313-5.854-0.95-8.62c-0.638-2.766-1.318-5.315-2.021-7.659
			c-0.713-2.334-1.945-4.786-3.727-7.336c-1.772-2.561-3.269-4.71-4.473-6.492c-1.194-1.772-3.074-3.868-5.629-6.277
			c-2.555-2.409-4.505-4.213-5.855-5.423c-1.351-1.199-3.614-3.015-6.801-5.413c-3.198-2.431-5.401-4.051-6.606-4.904
			c-1.194-0.854-3.538-2.474-7.011-4.894c-3.473-2.409-5.645-3.9-6.493-4.462c-2.415-0.292-5.953-0.432-10.636-0.432
			c-7.665,0-15.173,0.496-22.552,1.49c-7.368,0.994-15.038,2.766-22.968,5.315c-7.957,2.56-14.903,5.812-20.855,9.788
			c-5.958,3.964-10.852,9.29-14.676,15.956c-3.83,6.665-5.742,14.249-5.742,22.763c0,9.646,2.512,18.257,7.546,25.852
			c5.029,7.584,11.635,13.536,19.786,17.879c8.156,4.322,16.707,7.541,25.636,9.68c8.935,2.117,17.939,3.177,27.024,3.177
			c8.362,0,16.34-0.875,23.929-2.657c7.589-1.772,14.714-4.538,21.379-8.297c6.66-3.749,11.949-8.967,15.849-15.633
			C193.411,309.161,195.355,301.361,195.355,292.438 M169.838,109.053c0-8.518-1.172-17.555-3.517-27.122
			c-2.339-9.571-5.677-18.83-10.003-27.77c-4.327-8.939-10.274-16.308-17.863-22.125c-7.589-5.807-16.064-8.718-25.425-8.718
			c-13.196,0-23.395,4.889-30.633,14.682c-7.232,9.777-10.852,21.482-10.852,35.1c0,6.661,0.821,13.688,2.447,21.066
			c1.626,7.368,4.148,14.747,7.557,22.125c3.398,7.368,7.368,14.001,11.911,19.889c4.538,5.888,10.069,10.663,16.594,14.357
			c6.52,3.684,13.401,5.531,20.634,5.531c13.763,0,23.718-4.289,29.893-12.877C166.749,134.608,169.838,123.238,169.838,109.053
			 M141.96,8h92.967l-28.715,16.805h-28.72c10.063,6.379,17.863,15.318,23.394,26.813c5.531,11.483,8.297,23.464,8.297,35.953
			c0,10.49-1.62,19.813-4.883,27.964c-3.263,8.167-7.238,14.714-11.916,19.684c-4.678,4.964-9.361,9.534-14.039,13.715
			c-4.683,4.197-8.664,8.518-11.916,12.991c-3.263,4.467-4.889,9.248-4.889,14.357c0,3.684,1.161,7.303,3.506,10.852
			c2.333,3.538,5.385,6.936,9.15,10.204c3.749,3.262,7.897,6.665,12.439,10.219c4.538,3.544,9.075,7.477,13.623,11.798
			c4.538,4.332,8.687,9.01,12.445,14.044c3.749,5.034,6.807,11.062,9.14,18.084c2.345,7.012,3.512,14.574,3.512,22.655
			c0,22.697-9.929,42.694-29.785,59.99C174.019,352.709,144.229,362,106.229,362c-8.373,0-16.848-0.713-25.431-2.128
			c-8.578-1.415-17.226-3.792-25.955-7.12c-8.718-3.338-16.416-7.453-23.076-12.348c-6.671-4.894-12.137-11.203-16.383-18.928
			C11.123,313.742,9,305.132,9,295.625c0-8.653,2.62-18.225,7.865-28.715c4.548-9.074,11.349-16.918,20.434-23.508
			c9.069-6.601,19.359-11.635,30.843-15.104c11.489-3.489,22.476-6.027,32.977-7.67c10.495-1.62,21.125-2.582,31.902-2.863
			c-9.069-11.775-13.606-22.335-13.606-31.707c0-1.69,0.146-3.359,0.421-4.996c0.287-1.626,0.643-3.009,1.064-4.148
			c0.427-1.129,0.994-2.658,1.701-4.57c0.708-1.912,1.205-3.44,1.491-4.569c-5.672,0.697-10.641,1.064-14.887,1.064
			c-21.142,0-39.253-6.962-54.362-20.856c-15.103-13.893-22.654-31.351-22.654-52.336c0-19.856,6.736-37.611,20.208-53.287
			c13.477-15.675,30.071-25.711,49.781-30.103C115.509,9.415,128.775,8,141.96,8 M363,62.459v27.235h-54.459v54.464h-27.235V89.694
			h-54.459V62.459h54.459V8h27.235v54.459H363z"/>
	</g>
</g>
</svg>
