<?xml version="1.0" encoding="utf-8"?>
<!-- Generated by IcoMoon.io -->
<!DOCTYPE svg PUBLIC "-//W3C//DTD SVG 1.1//EN" "http://www.w3.org/Graphics/SVG/1.1/DTD/svg11.dtd">
<svg version="1.1" xmlns="http://www.w3.org/2000/svg" xmlns:xlink="http://www.w3.org/1999/xlink" width="32" height="32" viewBox="0 0 32 32">
<path fill="#000" d="M31.838 8.593l-13.806 13.805c-0.54 0.539-1.257 0.837-2.021 0.837s-1.479-0.297-2.020-0.837l-13.829-13.786v17.225c0 0.892 0.727 1.619 1.619 1.619h28.438c0.893 0 1.619-0.727 1.619-1.619v-17.244z"></path>
<path d="M0.501 7.016l0.199 0.21 14.167 14.121c0.307 0.308 0.713 0.475 1.146 0.475s0.838-0.167 1.144-0.474l14.347-14.348c0.326-0.333 0.414-0.85 0.22-1.308-0.214-0.509-0.706-0.801-1.347-0.801-1.997 0-27.504-0.005-28.582-0.005l-0.102 0.011c-0.024 0.003-0.047 0.005-0.072 0.005-0.641 0-1.131 0.291-1.346 0.8-0.194 0.458-0.105 0.974 0.226 1.314z"></path>
</svg>
