<?xml version="1.0" encoding="utf-8"?>
<!-- Generated by IcoMoon.io -->
<!DOCTYPE svg PUBLIC "-//W3C//DTD SVG 1.1//EN" "http://www.w3.org/Graphics/SVG/1.1/DTD/svg11.dtd">
<svg version="1.1" xmlns="http://www.w3.org/2000/svg" xmlns:xlink="http://www.w3.org/1999/xlink" width="32" height="32" viewBox="0 0 32 32">
<path d="M20.615 2.090h-9.231c-1.867 0-3.379 1.54-3.379 3.439v20.941c0 1.899 1.513 3.439 3.379 3.439h9.231c1.867 0 3.381-1.54 3.381-3.439v-20.941c0-1.899-1.513-3.44-3.381-3.44zM16.001 28.092c-0.91 0-1.647-0.736-1.647-1.645s0.737-1.644 1.647-1.644c0.908 0 1.644 0.735 1.644 1.644s-0.736 1.645-1.644 1.645zM21.912 23.426h-11.823v-17.513h11.823v17.513z"></path>
</svg>
