<?xml version="1.0" encoding="utf-8"?>
<!-- Generated by IcoMoon.io -->
<!DOCTYPE svg PUBLIC "-//W3C//DTD SVG 1.1//EN" "http://www.w3.org/Graphics/SVG/1.1/DTD/svg11.dtd">
<svg version="1.1" xmlns="http://www.w3.org/2000/svg" xmlns:xlink="http://www.w3.org/1999/xlink" width="32" height="32" viewBox="0 0 32 32">
<path d="M29.876 15.975c0-7.608-6.189-13.798-13.798-13.798s-13.798 6.19-13.798 13.798c0 7.609 6.19 13.798 13.798 13.798 0.83 0 1.503-0.673 1.503-1.503s-0.673-1.503-1.503-1.503c-5.951 0-10.792-4.841-10.792-10.792s4.842-10.792 10.792-10.792c5.951 0 10.792 4.841 10.792 10.792 0 1.69-0.379 3.304-1.125 4.801-0.009 0.015-0.020 0.028-0.030 0.044-0.325 0.516-0.882 0.824-1.491 0.824-0.97 0-1.76-0.789-1.76-1.761l-0.008-9.477c-0-0.829-0.673-1.501-1.503-1.501h-0.001c-0.767 0.001-1.398 0.576-1.489 1.319-1.163-0.828-2.583-1.317-4.116-1.317-3.92 0-7.11 3.189-7.11 7.11s3.19 7.11 7.11 7.11c1.671 0 3.208-0.581 4.423-1.549 0.684 1.794 2.422 3.073 4.454 3.073 1.569 0 3.011-0.757 3.903-2.034 0.081-0.091 0.153-0.192 0.211-0.304 1.005-1.945 1.537-4.135 1.537-6.336zM15.348 20.12c-2.264 0-4.105-1.841-4.105-4.105s1.842-4.105 4.105-4.105c2.263 0 4.104 1.841 4.104 4.105s-1.841 4.105-4.104 4.105z"></path>
</svg>
