<?xml version="1.0" encoding="utf-8"?>
<!-- Generated by IcoMoon.io -->
<!DOCTYPE svg PUBLIC "-//W3C//DTD SVG 1.1//EN" "http://www.w3.org/Graphics/SVG/1.1/DTD/svg11.dtd">
<svg version="1.1" xmlns="http://www.w3.org/2000/svg" xmlns:xlink="http://www.w3.org/1999/xlink" width="32" height="32" viewBox="0 0 32 32">
<path d="M25.998 18.808h-3.128v-2.397c0-0.469-0.335-0.852-0.745-0.852h-5.689v-2.367h3.129c0.721 0 1.308-0.587 1.308-1.308v-4.010c0-0.722-0.587-1.309-1.308-1.309h-7.13c-0.721 0-1.308 0.587-1.308 1.309v4.010c0 0.721 0.587 1.308 1.308 1.308h3.129v2.367h-5.639c-0.438 0-0.794 0.383-0.794 0.852v2.396h-3.129c-0.721 0-1.308 0.587-1.308 1.309v4.010c0 0.721 0.586 1.307 1.308 1.307h7.13c0.721 0 1.308-0.587 1.308-1.307v-4.009c0-0.722-0.587-1.309-1.308-1.309h-3.204l-0.003-2.376h12.072v2.376h-3.129c-0.722 0-1.308 0.587-1.308 1.309v4.010c0 0.721 0.586 1.308 1.308 1.308h7.13c0.721 0 1.308-0.587 1.308-1.308v-4.010c0-0.722-0.587-1.309-1.308-1.309z"></path>
</svg>
