<?xml version="1.0" encoding="utf-8"?>
<!-- Generated by IcoMoon.io -->
<!DOCTYPE svg PUBLIC "-//W3C//DTD SVG 1.1//EN" "http://www.w3.org/Graphics/SVG/1.1/DTD/svg11.dtd">
<svg version="1.1" xmlns="http://www.w3.org/2000/svg" xmlns:xlink="http://www.w3.org/1999/xlink" width="32" height="32" viewBox="0 0 32 32">
<path d="M27.315 10.049v-1.042l-8.724-7.865v0.026h-11.224c-1.484 0-2.682 1.198-2.682 2.682v24.324c0 1.484 1.198 2.682 2.682 2.682h17.266c1.484 0 2.682-1.198 2.682-2.682v-18.125zM24.946 28.175c0 0.156-0.13 0.286-0.286 0.286h-17.292c-0.156 0-0.286-0.13-0.286-0.286v-24.324c0-0.156 0.13-0.286 0.286-0.286h11.224v6.511h6.354v18.099z"></path>
<path d="M16.898 13.357c0.026-0.938-0.286-1.432-0.417-1.589-0.26-0.339-0.677-0.547-1.094-0.547-0.182 0-0.365 0.026-0.521 0.078-0.469 0.156-0.833 0.495-1.016 0.938-0.13 0.313-0.182 0.625-0.182 0.964 0 0.99 0.417 2.083 0.833 3.021-0.469 1.797-1.198 3.906-2.005 5.651-2.057 0.99-3.307 1.927-3.49 3.177-0.026 0.052-0.026 0.13-0.026 0.182 0 0.443 0.208 1.068 0.833 1.51 0.234 0.182 0.547 0.286 0.833 0.286 0.781-0.026 1.354-0.547 1.979-1.406 0.417-0.599 0.859-1.354 1.302-2.318 1.38-0.573 3.021-1.12 4.479-1.432 0.859 0.781 1.693 1.25 2.526 1.25 0.651 0 1.276-0.313 1.641-0.885 0.234-0.339 0.417-0.729 0.417-1.12 0-0.208-0.052-0.417-0.156-0.625-0.365-0.677-1.146-0.885-2.083-0.885-0.495 0-1.068 0.052-1.719 0.156-0.911-1.016-1.849-2.422-2.526-3.802 0.313-1.146 0.391-1.979 0.391-2.604zM16.951 20.31c-0.651 0.182-1.302 0.365-1.953 0.599 0.286-0.729 0.547-1.484 0.781-2.24 0.391 0.573 0.781 1.12 1.172 1.641z"></path>
</svg>
