<?xml version="1.0" encoding="utf-8"?>
<!-- Generated by IcoMoon.io -->
<!DOCTYPE svg PUBLIC "-//W3C//DTD SVG 1.1//EN" "http://www.w3.org/Graphics/SVG/1.1/DTD/svg11.dtd">
<svg version="1.1" xmlns="http://www.w3.org/2000/svg" xmlns:xlink="http://www.w3.org/1999/xlink" width="32" height="32" viewBox="0 0 32 32">
<path d="M15.264 21.729l2.804 2.804c0 0 11.783-11.76 11.775-11.768 1.379-1.387 1.365-1.998 0-3.363 0.007-0.014-1.127-1.126-1.127-1.126l-13.452 13.454zM13.988 20.453l13.454-13.453-2.648-2.647-13.452 13.453 2.647 2.647zM23.675 3.235l-1.119-1.119c-1.424-1.424-1.931-1.44-3.363 0l-11.775 11.767 2.804 2.804 13.452-13.453zM6.3 15.002l-5.257 15.869 15.906-5.22-10.649-10.649zM5.181 22.937l3.923 3.923-5.675 1.684 1.752-5.607z"></path>
</svg>
