<?xml version="1.0" encoding="utf-8"?>
<!-- Generated by IcoMoon.io -->
<!DOCTYPE svg PUBLIC "-//W3C//DTD SVG 1.1//EN" "http://www.w3.org/Graphics/SVG/1.1/DTD/svg11.dtd">
<svg version="1.1" xmlns="http://www.w3.org/2000/svg" xmlns:xlink="http://www.w3.org/1999/xlink" width="32" height="32" viewBox="0 0 32 32">
<path fill="#000" d="M30.797 29.542c-3.045-0.082-5.11-1.467-5.883-2.085 0.369-0.75 0.646-1.441 0.695-1.565 0.344-0.75 0.397-1.427 0.156-2.015-0.317-0.776-1.021-1.059-1.127-1.099-1.276-0.416-3.648-2.309-4.506-3.046-0.326-0.374-0.743-0.578-1.2-0.568-0.34 0.003-0.586 0.123-0.654 0.16-0.010 0.006-0.021 0.013-0.032 0.019-0.723 0.449-1.373 0.69-1.881 0.697-0.413 0.004-0.6-0.152-0.604-0.152-0.033-0.050-0.037-0.046-0.084-0.084-4.325-3.626-5.88-6.825-6.062-7.224-0.221-0.983 0.309-1.491 0.462-1.614 1.154-0.518 1.212-1.744 0.961-2.456-0.021-0.058-0.066-0.134-0.103-0.184-0.263-0.36-1.38-3.167-2.305-5.663-0.482-1.359-1.601-1.475-1.965-1.475-0.011 0-0.023 0-0.032 0-0.148 0.004-0.236 0.021-0.236 0.021-0.025 0.006-0.059 0.012-0.083 0.021l-4.354 1.37c-0.087 0.027-0.168 0.074-0.236 0.135-0.742 0.672-0.57 1.745-0.34 2.303 3.471 11.574 12.535 19.49 12.909 19.812 3.223 2.91 6.088 4.675 8.071 4.968 0.895 0.134 1.556-0.595 1.951-1.214 1.026 0.78 3.243 2.12 6.448 2.206 0.006 0 0.013 0 0.018 0 0.343 0 0.626-0.274 0.634-0.618 0.010-0.35-0.267-0.642-0.618-0.651z"></path>
</svg>
