<?xml version="1.0" encoding="utf-8"?>
<!-- Generator: Adobe Illustrator 16.0.0, SVG Export Plug-In . SVG Version: 6.00 Build 0)  -->
<!DOCTYPE svg PUBLIC "-//W3C//DTD SVG 1.1//EN" "http://www.w3.org/Graphics/SVG/1.1/DTD/svg11.dtd">
<svg version="1.1" id="Calque_1" xmlns="http://www.w3.org/2000/svg" xmlns:xlink="http://www.w3.org/1999/xlink" x="0px" y="0px"
	 width="448px" height="448px" viewBox="0 0 448 448" enable-background="new 0 0 448 448" xml:space="preserve">
<g display="none">
	<line display="inline" opacity="0.3" fill="none" stroke="#449FDB" enable-background="new    " x1="16" y1="0" x2="16" y2="448"/>
	<line display="inline" fill="none" stroke="#449FDB" x1="32" y1="0" x2="32" y2="448"/>
	<line display="inline" opacity="0.3" fill="none" stroke="#449FDB" enable-background="new    " x1="48" y1="0" x2="48" y2="448"/>
	<line display="inline" fill="none" stroke="#449FDB" x1="64" y1="0" x2="64" y2="448"/>
	<line display="inline" opacity="0.3" fill="none" stroke="#449FDB" enable-background="new    " x1="80" y1="0" x2="80" y2="448"/>
	<line display="inline" fill="none" stroke="#449FDB" x1="96" y1="0" x2="96" y2="448"/>
	
		<line display="inline" opacity="0.3" fill="none" stroke="#449FDB" enable-background="new    " x1="112" y1="0" x2="112" y2="448"/>
	<line display="inline" fill="none" stroke="#449FDB" x1="128" y1="0" x2="128" y2="448"/>
	
		<line display="inline" opacity="0.3" fill="none" stroke="#449FDB" enable-background="new    " x1="144" y1="0" x2="144" y2="448"/>
	<line display="inline" fill="none" stroke="#449FDB" x1="160" y1="0" x2="160" y2="448"/>
	
		<line display="inline" opacity="0.3" fill="none" stroke="#449FDB" enable-background="new    " x1="176" y1="0" x2="176" y2="448"/>
	<line display="inline" fill="none" stroke="#449FDB" x1="192" y1="0" x2="192" y2="448"/>
	
		<line display="inline" opacity="0.3" fill="none" stroke="#449FDB" enable-background="new    " x1="208" y1="0" x2="208" y2="448"/>
	<line display="inline" fill="none" stroke="#449FDB" x1="224" y1="0" x2="224" y2="448"/>
	
		<line display="inline" opacity="0.3" fill="none" stroke="#449FDB" enable-background="new    " x1="240" y1="0" x2="240" y2="448"/>
	<line display="inline" fill="none" stroke="#449FDB" x1="256" y1="0" x2="256" y2="448"/>
	
		<line display="inline" opacity="0.3" fill="none" stroke="#449FDB" enable-background="new    " x1="272" y1="0" x2="272" y2="448"/>
	<line display="inline" fill="none" stroke="#449FDB" x1="288" y1="0" x2="288" y2="448"/>
	
		<line display="inline" opacity="0.3" fill="none" stroke="#449FDB" enable-background="new    " x1="304" y1="0" x2="304" y2="448"/>
	<line display="inline" fill="none" stroke="#449FDB" x1="320" y1="0" x2="320" y2="448"/>
	
		<line display="inline" opacity="0.3" fill="none" stroke="#449FDB" enable-background="new    " x1="336" y1="0" x2="336" y2="448"/>
	<line display="inline" fill="none" stroke="#449FDB" x1="352" y1="0" x2="352" y2="448"/>
	
		<line display="inline" opacity="0.3" fill="none" stroke="#449FDB" enable-background="new    " x1="368" y1="0" x2="368" y2="448"/>
	<line display="inline" fill="none" stroke="#449FDB" x1="384" y1="0" x2="384" y2="448"/>
	
		<line display="inline" opacity="0.3" fill="none" stroke="#449FDB" enable-background="new    " x1="400" y1="0" x2="400" y2="448"/>
	<line display="inline" fill="none" stroke="#449FDB" x1="416" y1="0" x2="416" y2="448"/>
	
		<line display="inline" opacity="0.3" fill="none" stroke="#449FDB" enable-background="new    " x1="432" y1="0" x2="432" y2="448"/>
	<line display="inline" opacity="0.3" fill="none" stroke="#449FDB" enable-background="new    " x1="0" y1="16" x2="448" y2="16"/>
	<line display="inline" fill="none" stroke="#449FDB" x1="0" y1="32" x2="448" y2="32"/>
	<line display="inline" opacity="0.3" fill="none" stroke="#449FDB" enable-background="new    " x1="0" y1="48" x2="448" y2="48"/>
	<line display="inline" fill="none" stroke="#449FDB" x1="0" y1="64" x2="448" y2="64"/>
	<line display="inline" opacity="0.3" fill="none" stroke="#449FDB" enable-background="new    " x1="0" y1="80" x2="448" y2="80"/>
	<line display="inline" fill="none" stroke="#449FDB" x1="0" y1="96" x2="448" y2="96"/>
	
		<line display="inline" opacity="0.3" fill="none" stroke="#449FDB" enable-background="new    " x1="0" y1="112" x2="448" y2="112"/>
	<line display="inline" fill="none" stroke="#449FDB" x1="0" y1="128" x2="448" y2="128"/>
	
		<line display="inline" opacity="0.3" fill="none" stroke="#449FDB" enable-background="new    " x1="0" y1="144" x2="448" y2="144"/>
	<line display="inline" fill="none" stroke="#449FDB" x1="0" y1="160" x2="448" y2="160"/>
	
		<line display="inline" opacity="0.3" fill="none" stroke="#449FDB" enable-background="new    " x1="0" y1="176" x2="448" y2="176"/>
	<line display="inline" fill="none" stroke="#449FDB" x1="0" y1="192" x2="448" y2="192"/>
	
		<line display="inline" opacity="0.3" fill="none" stroke="#449FDB" enable-background="new    " x1="0" y1="208" x2="448" y2="208"/>
	<line display="inline" fill="none" stroke="#449FDB" x1="0" y1="224" x2="448" y2="224"/>
	
		<line display="inline" opacity="0.3" fill="none" stroke="#449FDB" enable-background="new    " x1="0" y1="240" x2="448" y2="240"/>
	<line display="inline" fill="none" stroke="#449FDB" x1="0" y1="256" x2="448" y2="256"/>
	
		<line display="inline" opacity="0.3" fill="none" stroke="#449FDB" enable-background="new    " x1="0" y1="272" x2="448" y2="272"/>
	<line display="inline" fill="none" stroke="#449FDB" x1="0" y1="288" x2="448" y2="288"/>
	
		<line display="inline" opacity="0.3" fill="none" stroke="#449FDB" enable-background="new    " x1="0" y1="304" x2="448" y2="304"/>
	<line display="inline" fill="none" stroke="#449FDB" x1="0" y1="320" x2="448" y2="320"/>
	
		<line display="inline" opacity="0.3" fill="none" stroke="#449FDB" enable-background="new    " x1="0" y1="336" x2="448" y2="336"/>
	<line display="inline" fill="none" stroke="#449FDB" x1="0" y1="352" x2="448" y2="352"/>
	
		<line display="inline" opacity="0.3" fill="none" stroke="#449FDB" enable-background="new    " x1="0" y1="368" x2="448" y2="368"/>
	<line display="inline" fill="none" stroke="#449FDB" x1="0" y1="384" x2="448" y2="384"/>
	
		<line display="inline" opacity="0.3" fill="none" stroke="#449FDB" enable-background="new    " x1="0" y1="400" x2="448" y2="400"/>
	<line display="inline" fill="none" stroke="#449FDB" x1="0" y1="416" x2="448" y2="416"/>
	
		<line display="inline" opacity="0.3" fill="none" stroke="#449FDB" enable-background="new    " x1="0" y1="432" x2="448" y2="432"/>
</g>
<path display="none" d="M176.496,365.251L42.928,232.77l23.44-23.665l110.025,109.138L414.206,80.497l23.54,23.536L176.496,365.251z
	"/>
<g display="none">
	<g display="inline">
		<polygon points="437.256,116.64 76.849,116.64 76.849,144.022 414.512,144.022 414.512,290.203 437.256,290.203 		"/>
	</g>
	<path display="inline" d="M42.5,155.387V331.36h134.659h77.279h148.631V155.387H42.5z M247.689,229.786l-4.562,10.578h-32.986
		l-0.147,6.177h31.354l-4.569,10.594h-25.606c3.146,15.494,10.395,23.283,21.762,23.283c7.372,0,14.941-3.1,22.685-9.299
		l-0.141,22.252c-6.573,3.836-14.142,5.736-22.678,5.736c-12.364,0-22.315-3.977-29.869-11.931
		c-6.87-7.154-11.327-17.167-13.403-30.029H178.2l0,0l0,0l0,0l4.561-10.573h5.891v-3.835c0-1.374,0.044-2.177,0.148-2.363h-10.742
		l4.573-10.59h7.515c2.346-11.878,7.221-21.251,14.566-28.124c7.755-7.45,17.484-11.177,29.158-11.177
		c8.246,0,17.196,2.438,26.801,7.342l-8.988,18.424c-6.867-4.413-13.314-6.624-19.294-6.624c-10.311,0-17.178,6.715-20.611,20.159
		H247.689z"/>
</g>
<g display="none">
	<g display="inline">
		<g>
			<polygon points="279.78,322.185 279.78,260.68 197.764,260.68 197.764,322.185 136.254,322.185 238.768,404.201 341.285,322.185 
							"/>
		</g>
	</g>
	<path display="inline" d="M42.502,43.799v192.804h147.533h84.67H437.55V43.799H42.502z M267.312,125.314l-4.996,11.589h-36.141
		l-0.16,6.765h34.353l-5.01,11.608h-28.052c3.444,16.973,11.387,25.506,23.842,25.506c8.079,0,16.372-3.396,24.858-10.18
		l-0.156,24.372c-7.204,4.2-15.497,6.291-24.849,6.291c-13.549,0-24.447-4.361-32.726-13.075
		c-7.526-7.843-12.413-18.808-14.683-32.905H191.18l-0.005,0.009v-0.009h0.005l4.995-11.581h6.452v-4.201
		c0-1.504,0.047-2.384,0.166-2.592h-11.765l5.005-11.599h8.231c2.574-13.018,7.91-23.283,15.96-30.814
		c8.496-8.165,19.159-12.252,31.95-12.252c9.03,0,18.836,2.677,29.361,8.051l-9.844,20.18c-7.526-4.834-14.594-7.256-21.145-7.256
		c-11.297,0-18.823,7.36-22.584,22.091H267.312z"/>
</g>
<path display="none" d="M418.643,97.095H59.03c-8.979,0-16.533,7.998-16.533,16.533v220.746c0,11.015,9.685,16.532,16.533,16.532
	h359.613c10.484,0,18.979-8.495,18.979-18.979V116.074C437.622,105.597,429.127,97.095,418.643,97.095z M119.744,186.452h146.798
	v76.117H119.744V186.452z M370.819,208.899l-4.517,10.451h-32.588l-0.155,6.109h30.989l-4.503,10.471h-25.31
	c3.111,15.309,10.275,23.011,21.513,23.011c7.285,0,14.765-3.064,22.406-9.193l-0.142,21.996
	c-6.479,3.784-13.965,5.665-22.399,5.665c-12.231,0-22.05-3.924-29.523-11.787c-6.795-7.07-11.19-16.963-13.26-29.679h-11.184l0,0
	l0,0l0,0l4.503-10.45h5.834v-3.791c0-1.364,0.033-2.151,0.141-2.339h-10.618l4.536-10.464h7.406
	c2.325-11.748,7.138-21.009,14.396-27.796c7.668-7.366,17.292-11.049,28.818-11.049c8.145,0,17.003,2.406,26.492,7.258
	l-8.892,18.213c-6.781-4.362-13.165-6.553-19.066-6.553c-10.182,0-16.963,6.633-20.356,19.927H370.819z"/>
<g id="Captions">
</g>
<g id="Your_Icon">
	<polygon points="89.35,413.523 164.355,413.523 164.355,155.162 89.35,155.162 89.35,202.682 43.159,177.751 43.203,219.421 
		89.35,246.488 	"/>
	<polygon points="438.132,135.791 408.966,105.159 242.282,105.159 242.282,92.792 333.055,65.665 333.032,34.477 241.508,61.121 
		179.775,61.121 179.775,105.159 179.775,135.791 	"/>
	<path d="M375.63,155.162H179.775v257.977h258.356V245.449v-90.288H375.63z M362.451,294.162H260.923v-24.699h101.528V294.162z
		 M362.451,351.807H260.923v-24.693h101.528V351.807z"/>
</g>
</svg>
