<?xml version="1.0" encoding="utf-8"?>
<!-- Generated by IcoMoon.io -->
<!DOCTYPE svg PUBLIC "-//W3C//DTD SVG 1.1//EN" "http://www.w3.org/Graphics/SVG/1.1/DTD/svg11.dtd">
<svg version="1.1" xmlns="http://www.w3.org/2000/svg" xmlns:xlink="http://www.w3.org/1999/xlink" width="32" height="32" viewBox="0 0 32 32">
<path fill="#000" d="M31.080 19.886l-0.006 0.004c-0.063-1.831-1.564-3.297-3.409-3.297-1.885 0-3.414 1.529-3.414 3.414 0 1.721 1.274 3.14 2.931 3.376-0.412 1.364-1.676 2.357-3.176 2.357v1.218c3.828 0 6.94-3.033 7.069-6.83 0.001-0.041 0.006-0.082 0.006-0.122 0-0.014-0.001-0.027-0.002-0.041 0-0.025 0.002-0.052 0.002-0.079z"></path>
<path d="M22.215 19.889c-0.063-1.831-1.564-3.297-3.408-3.297-1.887 0-3.414 1.529-3.414 3.414 0 1.721 1.274 3.14 2.931 3.376-0.412 1.364-1.676 2.357-3.176 2.357v1.218c3.828 0 6.939-3.033 7.069-6.83 0.001-0.041 0.006-0.082 0.006-0.122 0-0.014-0.002-0.027-0.002-0.041 0-0.027 0.002-0.054 0.002-0.082l-0.007 0.006z"></path>
<path d="M0.952 11.002c-0.001 0.041-0.006 0.082-0.006 0.122 0 0.014 0.001 0.027 0.002 0.041 0 0.027-0.002 0.054-0.002 0.082l0.006-0.004c0.063 1.831 1.564 3.297 3.409 3.297 1.885 0 3.414-1.529 3.414-3.414 0-1.721-1.274-3.14-2.931-3.376 0.412-1.366 1.676-2.358 3.176-2.358v-1.218c-3.828 0-6.939 3.033-7.069 6.829z"></path>
<path d="M16.635 11.125c0-1.721-1.274-3.14-2.931-3.376 0.412-1.364 1.676-2.357 3.176-2.357v-1.218c-3.828 0-6.939 3.033-7.069 6.83-0.001 0.041-0.006 0.082-0.006 0.122 0 0.014 0.002 0.027 0.002 0.041 0 0.027-0.002 0.054-0.002 0.082l0.006-0.004c0.063 1.831 1.564 3.297 3.408 3.297 1.887-0.001 3.416-1.53 3.416-3.417z"></path>
</svg>
