<?xml version="1.0" encoding="utf-8"?>
<!-- Generated by IcoMoon.io -->
<!DOCTYPE svg PUBLIC "-//W3C//DTD SVG 1.1//EN" "http://www.w3.org/Graphics/SVG/1.1/DTD/svg11.dtd">
<svg version="1.1" xmlns="http://www.w3.org/2000/svg" xmlns:xlink="http://www.w3.org/1999/xlink" width="32" height="32" viewBox="0 0 32 32">
<path d="M16.424 13.915l-0.123 0.054c0.054-0.023 0.102-0.044 0.149-0.064-0.008 0.003-0.018 0.006-0.026 0.010z"></path>
<path d="M16.798 21.445c0 0-0.054-0.045-0.147-0.118-0.037-0.030-0.079-0.065-0.127-0.102-0.018-0.016-0.037-0.030-0.056-0.046-0.031-0.026-0.065-0.053-0.1-0.082-0.026-0.020-0.051-0.040-0.079-0.062-0.049-0.040-0.101-0.081-0.157-0.125-0.023-0.017-0.045-0.036-0.068-0.055l-0.503 1.458c-0.011 0.034-0.024 0.067-0.041 0.098l0.166 0.133 0.152 0.122c0.33 0.26 0.806 0.202 1.065-0.127l0.010-0.013 0.010-0.011c0.259-0.331 0.204-0.809-0.125-1.070z"></path>
<path d="M22.936 18.832l-0.154-0.121-4.882-3.847c-0.085-0.066-0.223-0.175-0.306-0.241l-0.838-0.663c-0.075-0.060-0.204-0.082-0.299-0.054h-0.003c-0.008 0.003-0.019 0.006-0.027 0.010l-0.122 0.054c-0.145 0.063-0.314 0.134-0.498 0.212l-0.288 0.124c-0.008 0.005-0.017 0.007-0.027 0.009-0.759 0.322-1.672 0.708-2.292 0.967-0.208 0.087-0.423 0.131-0.641 0.131-0.656 0-1.256-0.408-1.424-0.97-0.133-0.445 0.040-0.877 0.463-1.153 0.421-0.276 1.339-0.95 2.011-1.447 0.002-0.004 0.005-0.006 0.008-0.008l0.315-0.235c0.087-0.064 0.071-0.133-0.034-0.153l-0.228-0.044c-0.105-0.020-0.275-0.010-0.377 0.023l-2.919 0.938c-0.102 0.033-0.267 0.027-0.367-0.012l-1.226-0.474c-0.1-0.038-0.225 0.005-0.277 0.1l-2.587 4.661c-0.053 0.094-0.018 0.215 0.074 0.268l2.419 1.391c0.049 0.027 0.116 0.055 0.184 0.079l0.007-0.023c0.148-0.431 0.554-0.722 1.010-0.722 0.118 0 0.235 0.021 0.348 0.058 0.352 0.121 0.6 0.408 0.686 0.745 0.195-0.286 0.521-0.467 0.88-0.467 0.117 0 0.234 0.019 0.346 0.057 0.356 0.122 0.605 0.415 0.689 0.754 0.198-0.265 0.512-0.428 0.856-0.428 0.119 0 0.234 0.019 0.346 0.057 0.27 0.093 0.488 0.284 0.614 0.541 0.015 0.031 0.028 0.063 0.040 0.094 0.067 0.053 0.201 0.159 0.377 0.298 0.1-0.030 0.207-0.048 0.315-0.048 0.119 0 0.235 0.021 0.346 0.059 0.27 0.093 0.488 0.284 0.614 0.541 0.084 0.171 0.119 0.356 0.105 0.541 0.087 0.069 0.172 0.137 0.258 0.205 0.123 0.097 0.244 0.194 0.36 0.289 0.073 0.056 0.144 0.112 0.211 0.166 0.29 0.229 0.542 0.428 0.718 0.567 0.033 0.029 0.066 0.053 0.094 0.075 0.002 0 0.005 0.003 0.009 0.006 0.011 0.008 0.024 0.018 0.034 0.026 0.075 0.061 0.118 0.094 0.118 0.094 0.33 0.261 0.809 0.207 1.069-0.122l0.008-0.011 0.001-0.003 0.010-0.013c0.26-0.329 0.203-0.808-0.125-1.068 0 0-0.043-0.034-0.12-0.094-0.032-0.027-0.073-0.058-0.118-0.094-0.025-0.018-0.051-0.040-0.081-0.062-0.014-0.012-0.029-0.024-0.046-0.038-0.027-0.022-0.056-0.044-0.087-0.069-0.081-0.064-0.171-0.136-0.27-0.212-0.058-0.047-0.121-0.097-0.185-0.148-0.066-0.053-0.134-0.106-0.206-0.163-0.080-0.062-0.162-0.127-0.247-0.196-0.938-0.744-2.102-1.668-2.237-1.774-0.231-0.183 0.013-0.487 0.242-0.306 0.117 0.092 1.23 0.972 2.291 1.805 0.335 0.264 0.667 0.525 0.964 0.759 0.046 0.036 0.091 0.070 0.134 0.106 0.055 0.041 0.106 0.081 0.155 0.121 0.048 0.039 0.097 0.076 0.142 0.112 0.023 0.018 0.045 0.035 0.067 0.053 0.097 0.076 0.185 0.146 0.263 0.207 0.006 0.004 0.011 0.008 0.016 0.013 0.030 0.022 0.056 0.044 0.083 0.065 0.011 0.008 0.022 0.018 0.034 0.027 0.010 0.007 0.021 0.014 0.030 0.023 0.020 0.015 0.040 0.029 0.057 0.044 0.003 0.002 0.006 0.005 0.010 0.009 0.014 0.010 0.027 0.020 0.038 0.029 0.076 0.060 0.118 0.093 0.118 0.093 0.329 0.26 0.808 0.205 1.068-0.126l0.009-0.009 0.004-0.007 0.007-0.006c0.259-0.33 0.204-0.809-0.126-1.069 0 0-0.054-0.043-0.153-0.12-0.001-0.001-0.001-0.001-0.002-0.004 0 0-0.003-0.002-0.004-0.002-0.019-0.016-0.041-0.033-0.063-0.050-0.043-0.033-0.090-0.071-0.143-0.112-0.037-0.028-0.078-0.061-0.124-0.097-0.21-0.168-0.477-0.377-0.771-0.608-0.037-0.028-0.073-0.058-0.111-0.086-0.080-0.063-0.165-0.129-0.249-0.195-0.068-0.054-0.137-0.108-0.206-0.162-0.032-0.024-0.063-0.048-0.095-0.072-1.113-0.876-2.358-1.859-2.482-1.957-0.23-0.182 0.011-0.489 0.239-0.306 0.071 0.059 1.302 1.029 2.53 1.995 0.124 0.098 0.248 0.195 0.37 0.293 0.027 0.019 0.054 0.043 0.081 0.063 0.217 0.171 0.431 0.34 0.637 0.499 0.076 0.060 0.151 0.119 0.225 0.178 0.549 0.432 1 0.79 1.214 0.957 0.086 0.067 0.133 0.104 0.133 0.104 0.331 0.26 0.809 0.204 1.069-0.125l0.020-0.026c0.261-0.329 0.205-0.809-0.123-1.069z"></path>
<path d="M16.426 20.637l-0.001 0.002c0.123 0.098 0.244 0.195 0.362 0.287-0.116-0.094-0.238-0.191-0.36-0.289z"></path>
<path d="M19.12 18.298c-0.032-0.025-0.062-0.050-0.093-0.074l-0.002 0.002c0.032 0.024 0.064 0.049 0.095 0.072z"></path>
<path d="M23.5 11.977c-0.052-0.094-0.176-0.139-0.276-0.1l-1.226 0.475c-0.099 0.039-0.261 0.033-0.357-0.014l-3.641-1.764c-0.097-0.047-0.259-0.058-0.361-0.025l-2.84 0.923c-0.101 0.033-0.255 0.113-0.341 0.177 0 0-1.948 1.465-2.669 1.937-0.911 0.597 0.152 1.835 1.269 1.367 1.253-0.524 3.482-1.472 3.482-1.472 0.098-0.042 0.246-0.022 0.33 0.045l6.454 5.133c0.084 0.067 0.223 0.069 0.31 0.006l2.39-1.741c0.086-0.063 0.115-0.191 0.062-0.285l-2.587-4.661z"></path>
<path d="M15.358 19.619c-0.409-0.141-0.855 0.077-0.995 0.486l-0.552 1.608c-0.14 0.408 0.077 0.853 0.486 0.994s0.854-0.077 0.994-0.486l0.553-1.607c0.14-0.409-0.077-0.854-0.487-0.994z"></path>
<path d="M13.666 18.676c-0.41-0.141-0.855 0.077-0.995 0.486l-0.552 1.607c-0.14 0.409 0.078 0.855 0.486 0.995s0.854-0.077 0.994-0.486l0.553-1.608c0.14-0.408-0.077-0.854-0.487-0.994z"></path>
<path d="M11.774 18.293c-0.409-0.141-0.855 0.077-0.995 0.486l-0.334 0.972c-0.14 0.409 0.077 0.854 0.486 0.994s0.854-0.077 0.994-0.486l0.334-0.972c0.14-0.408-0.078-0.854-0.486-0.994z"></path>
<path d="M9.861 17.957c-0.409-0.14-0.855 0.077-0.995 0.486l-0.12 0.351c-0.14 0.409 0.077 0.854 0.486 0.995s0.854-0.077 0.995-0.486l0.12-0.352c0.14-0.409-0.077-0.854-0.486-0.995z"></path>
<path d="M31.086 14.399l-2.763-5.071c-0.079-0.145-0.263-0.2-0.409-0.12l-3.669 1.998c-0.146 0.080-0.2 0.263-0.121 0.41l2.762 5.071c0.079 0.145 0.264 0.2 0.41 0.12l3.668-1.998c0.146-0.079 0.2-0.264 0.121-0.41z"></path>
<path d="M7.754 11.206l-3.669-1.998c-0.146-0.080-0.33-0.025-0.409 0.12l-2.763 5.072c-0.079 0.146-0.025 0.33 0.12 0.409l3.668 1.998c0.146 0.079 0.33 0.025 0.409-0.12l2.763-5.071c0.080-0.146 0.025-0.33-0.12-0.41z"></path>
</svg>
