<?xml version="1.0" encoding="utf-8"?>
<!-- Generator: Adobe Illustrator 15.0.2, SVG Export Plug-In . SVG Version: 6.00 Build 0)  -->
<!DOCTYPE svg PUBLIC "-//W3C//DTD SVG 1.1//EN" "http://www.w3.org/Graphics/SVG/1.1/DTD/svg11.dtd">
<svg version="1.1" id="Calque_1" xmlns="http://www.w3.org/2000/svg" xmlns:xlink="http://www.w3.org/1999/xlink" x="0px" y="0px"
	 width="448px" height="448px" viewBox="0 0 448 448" enable-background="new 0 0 448 448" xml:space="preserve">
<g display="none">
	<path display="inline" d="M177.04,152.906l-75.552,75.558c-3.542,3.537-5.455,8.277-5.455,13.356
		c0,5.426,2.159,10.542,6.071,14.451c3.912,3.913,9.061,6.076,14.452,6.076c5.04,0,9.817-1.961,13.351-5.458l75.554-75.562
		L177.04,152.906z"/>
	<path display="inline" d="M147.654,123.518l6.112-6.109l67.487,67.527c4.466,4.424,10.54,6.864,17.095,6.864
		c7.453,0,14.86-3.159,20.357-8.651c10.81-10.818,11.604-27.633,1.82-37.488l-46.854-46.824l-2.37-1.854
		c-4.979-3.876-10.266-7.173-15.688-9.851c-13.321-6.656-27.74-10.057-42.879-10.057c-25.611,0-49.711,9.958-67.864,28.012
		c-18.165,18.057-28.188,41.88-28.223,67.044c-0.033,26.328,10.915,51.905,30.863,72.058c-0.412-4.846,0.447-9.718,2.54-14.147
		c1.339-2.841,3.126-5.422,5.355-7.654l75.56-75.561L147.654,123.518z"/>
	<path display="inline" d="M363.13,105.092c-18.192-18.057-42.294-28.015-67.866-28.015c-24.483,0-47.619,9.1-65.466,25.712
		l36.798,36.806c13.183,13.183,12.362,35.459-1.785,49.675c-7.172,7.102-16.819,11.188-26.468,11.188
		c-8.825,0-17.061-3.329-23.173-9.409l-2.3-2.3l-75.555,75.552c-3.605,3.642-5.563,8.524-5.423,13.704
		c0.104,5.287,2.232,10.295,6.042,14.111c3.878,3.906,9.033,6.067,14.456,6.067c5.077,0,9.816-1.923,13.352-5.46l79.404-79.363
		l8.44,8.441l-79.364,79.405c-3.535,3.533-5.455,8.273-5.455,13.359c0,5.422,2.162,10.538,6.071,14.457
		c3.919,3.901,9.067,6.063,14.455,6.063c5.049,0,9.817-1.952,13.355-5.453l79.367-79.406l7.408,7.416l-79.362,79.396
		c-3.608,3.642-5.528,8.519-5.426,13.703c0.104,5.285,2.232,10.293,6.042,14.106c3.88,3.92,9.026,6.076,14.452,6.076
		c5.079,0,9.819-1.925,13.354-5.458l81.631-80.946c14.146-14.144,27.982-27.979,39.994-39.958
		c20.186-20.22,31.271-45.932,31.241-72.434C391.323,146.966,381.294,123.143,363.13,105.092z"/>
</g>
<path display="none" d="M243.944,306.193l-22.221-52.18l-25.354,60.053L101.333,272.5l2.203,49.355l119.261,55.277l137.871-67.805
	l-1.84-63.039L243.944,306.193z M106.696,163.971l117.211-51.839l121.434,41.134l-124.16,59.096L106.696,163.971z M262.184,70.867
	l-37.998,33.755l-39.062-29.812l-137.47,56.919l47.971,38.523L52.24,237.254l137.471,60.115l31.976-75.795l28.516,67.082
	l143.986-75.11l-39.246-59.497l45.404-42.289L262.184,70.867z"/>
<g>
	<path d="M280.723,366.145c0,0-0.032-0.043-0.083-0.043c-0.952-0.773-8.587-6.949-12.51-13.131c0,0-1.259-0.043-2.376-10.193
		c-1.638-14.369-3.009-25.523-3.009-25.523H185.32c0,0-1.399,11.154-3.01,25.523c-1.164,10.15-2.402,10.193-2.402,10.193
		c-4.174,6.572-12.603,13.162-12.603,13.162s-5.503,5.537,1.439,6.494c0.286,0.039,0.603,0.078,0.969,0.125
		c0.317,0.039,0.637,0.039,0.923,0.039c2.007,0.086,5.939,0.156,11.117,0.205c1.56,0,3.611,0.043,6.101,0.043
		c8.949,0.043,23.276,0.086,37.966,0.086c8.51,0,17.082,0,24.842-0.043c5.255-0.043,9.705-0.043,12.96-0.043
		c2.126-0.043,4.051-0.043,5.817-0.043c3.213-0.08,5.738-0.119,7.389-0.162c0.639-0.043,1.163-0.043,1.523-0.082
		c2.124-0.164,3.331-0.643,3.935-1.326c1.192-1.406-0.05-3.455-0.921-4.529C281.008,366.418,280.723,366.145,280.723,366.145z"/>
	<path d="M410.359,74.875H225.285h-2.56H37.643c0,0-9.015,0.414-9.015,7.625v220.527c0,0,0.609,8.422,9.015,9.014
		c8.095,0.576,174.162,0.051,186.877,0c18.733,0.055,177.93,0.564,185.839,0c8.416-0.588,9.014-9.014,9.014-9.014V82.5
		C419.372,75.289,410.359,74.875,410.359,74.875z M396.171,285.389H52.28V97.738h343.892V285.389z"/>
</g>
<g display="none">
	<path display="inline" d="M119.817,131.985c12.428,0,22.488-10.074,22.488-22.487c0-12.42-10.061-22.487-22.488-22.487
		c-12.426,0-22.487,10.067-22.487,22.487C97.33,121.911,107.384,131.985,119.817,131.985z"/>
	<path display="inline" d="M216.685,172.804l-72.704-25.89c0,0-14.411-4.795-23.972-4.795c-12.385,0-24.344,4.795-24.344,4.795
		l-72.718,25.89c-5.478,1.729-8.51,7.566-6.786,13.045c1.728,5.471,7.553,8.513,13.038,6.793l57.467-21.087v176.439
		c0,7.173,5.825,12.995,12.992,12.995c7.178,0,12.996-5.822,12.996-12.995v-95.017c0.034,0.028,0-0.297,0-0.484
		c0-3.955,3.212-7.16,7.17-7.16c3.948,0,7.154,3.205,7.154,7.16c0,0.188-0.027,0.513,0,0.484v95.017
		c0,7.173,5.825,12.995,13.002,12.995c7.167,0,12.989-5.822,12.989-12.995V171.555l57.458,21.087
		c1.044,0.326,2.096,0.476,3.132,0.476c4.413,0,8.514-2.827,9.908-7.269C225.196,180.37,222.163,174.532,216.685,172.804z"/>
	<path display="inline" d="M328.19,131.985c12.426,0,22.479-10.074,22.479-22.487c0-12.42-10.054-22.487-22.479-22.487
		c-12.42,0-22.48,10.067-22.48,22.487C305.709,121.911,315.762,131.985,328.19,131.985z"/>
	<path display="inline" d="M425.057,172.804l-72.708-25.89c0,0-14.411-4.795-23.972-4.795c-12.385,0-24.334,4.795-24.334,4.795
		l-72.729,25.89c-5.468,1.729-8.513,7.566-6.786,13.045c1.728,5.471,7.557,8.513,13.045,6.793l57.464-21.087v176.439
		c0,7.173,5.821,12.995,12.996,12.995c7.173,0,12.988-5.822,12.988-12.995v-95.017c0.035,0.028,0-0.297,0-0.484
		c0-3.955,3.22-7.16,7.168-7.16c3.962,0,7.159,3.205,7.159,7.16c0,0.188-0.034,0.513,0,0.484v95.017
		c0,7.173,5.823,12.995,12.996,12.995c7.183,0,12.99-5.822,12.99-12.995V171.555l57.463,21.087c1.04,0.326,2.088,0.476,3.13,0.476
		c4.418,0,8.52-2.827,9.913-7.269C433.563,180.37,430.531,174.532,425.057,172.804z"/>
</g>
<g display="none">
	<path display="inline" d="M288.61,29.264H159.376c-26.14,0-47.312,21.559-47.312,48.149v293.176
		c0,26.588,21.177,48.147,47.312,48.147H288.61c26.145,0,47.327-21.56,47.327-48.147V77.418
		C335.937,50.828,314.754,29.264,288.61,29.264 M224.012,393.285c-12.737,0-23.053-10.303-23.053-23.026
		c0-12.719,10.315-23.013,23.053-23.013c12.709,0,23.017,10.294,23.017,23.013C247.029,382.982,236.726,393.285,224.012,393.285
		 M306.763,327.961H141.238V82.784h165.525V327.961z"/>
</g>
</svg>
