<?xml version="1.0" encoding="utf-8"?>
<!-- Generated by IcoMoon.io -->
<!DOCTYPE svg PUBLIC "-//W3C//DTD SVG 1.1//EN" "http://www.w3.org/Graphics/SVG/1.1/DTD/svg11.dtd">
<svg version="1.1" xmlns="http://www.w3.org/2000/svg" xmlns:xlink="http://www.w3.org/1999/xlink" width="32" height="32" viewBox="0 0 32 32">
<path d="M20.052 26.153c0 0-0.002-0.003-0.006-0.003-0.068-0.055-0.613-0.496-0.894-0.938 0 0-0.090-0.003-0.17-0.728-0.117-1.026-0.215-1.823-0.215-1.823h-5.53c0 0-0.1 0.797-0.215 1.823-0.083 0.725-0.172 0.728-0.172 0.728-0.298 0.469-0.9 0.94-0.9 0.94s-0.393 0.395 0.103 0.464c0.020 0.003 0.043 0.006 0.069 0.009 0.023 0.003 0.046 0.003 0.066 0.003 0.143 0.006 0.424 0.011 0.794 0.015 0.111 0 0.258 0.003 0.436 0.003 0.639 0.003 1.663 0.006 2.712 0.006 0.608 0 1.22 0 1.774-0.003 0.375-0.003 0.693-0.003 0.926-0.003 0.152-0.003 0.289-0.003 0.416-0.003 0.23-0.006 0.41-0.009 0.528-0.012 0.046-0.003 0.083-0.003 0.109-0.006 0.152-0.012 0.238-0.046 0.281-0.095 0.085-0.1-0.004-0.247-0.066-0.323-0.026-0.034-0.046-0.054-0.046-0.054z"></path>
<path d="M29.311 5.348h-26.623c0 0-0.644 0.030-0.644 0.545v15.752c0 0 0.043 0.602 0.644 0.644 0.578 0.041 12.44 0.004 13.348 0 1.338 0.004 12.709 0.040 13.274 0 0.601-0.042 0.644-0.644 0.644-0.644v-15.752c-0-0.515-0.644-0.545-0.644-0.545zM28.298 20.385h-24.564v-13.404h24.564v13.404z"></path>
</svg>
