<?xml version="1.0" encoding="utf-8"?>
<!-- Generated by IcoMoon.io -->
<!DOCTYPE svg PUBLIC "-//W3C//DTD SVG 1.1//EN" "http://www.w3.org/Graphics/SVG/1.1/DTD/svg11.dtd">
<svg version="1.1" xmlns="http://www.w3.org/2000/svg" xmlns:xlink="http://www.w3.org/1999/xlink" width="32" height="32" viewBox="0 0 32 32">
<path d="M24.403 19.925c-1.218 0-2.324 0.467-3.16 1.226l-8.99-4.585c0.036-0.234 0.060-0.472 0.060-0.716 0-0.138-0.009-0.273-0.021-0.407l9.075-4.628c0.82 0.694 1.878 1.113 3.035 1.113 2.597 0 4.702-2.105 4.702-4.702s-2.105-4.703-4.702-4.703c-2.597 0-4.703 2.105-4.703 4.703 0 0.143 0.009 0.285 0.021 0.425l-9.064 4.622c-0.821-0.7-1.884-1.125-3.047-1.125-2.597 0-4.703 2.106-4.703 4.703s2.106 4.703 4.703 4.703c1.047 0 2.011-0.347 2.793-0.926l9.309 4.746c-0.005 0.084-0.013 0.167-0.013 0.252 0 2.597 2.106 4.703 4.703 4.703s4.703-2.105 4.703-4.703c0-2.596-2.106-4.702-4.703-4.702z"></path>
</svg>
