<?xml version="1.0" encoding="utf-8"?>
<!-- Generator: Adobe Illustrator 15.0.0, SVG Export Plug-In . SVG Version: 6.00 Build 0)  -->
<!DOCTYPE svg PUBLIC "-//W3C//DTD SVG 1.1//EN" "http://www.w3.org/Graphics/SVG/1.1/DTD/svg11.dtd">
<svg version="1.1" id="Calque_1" xmlns="http://www.w3.org/2000/svg" xmlns:xlink="http://www.w3.org/1999/xlink" x="0px" y="0px"
	 width="368.5px" height="368.5px" viewBox="0 0 368.5 368.5" enable-background="new 0 0 368.5 368.5" xml:space="preserve">
<g>
	<rect x="62.648" y="119.102" fill="#010101" width="164.213" height="197.898"/>
	<rect x="235.282" y="119.102" fill="#010101" width="71.577" height="197.898"/>
	<path fill="#010101" d="M158.117,72.832c19.359,0,28.038,21.006,28.038,42.059h21.031c0-29.474-18.1-63.091-49.069-63.091
		c-30.977,0-49.071,33.617-49.071,63.091h21.028C130.074,93.838,138.756,72.832,158.117,72.832z"/>
	<path fill="#010101" d="M186.154,57.341c0,0,6.578,4.841,13.363,15.582c0,0.004,3.067-1.289,7.668-1.069
		c19.336,0.917,28.04,21.984,28.04,43.038h21.029c0-29.474-18.105-64.066-49.069-64.066c0,0-0.18-0.004-0.451-0.006h-0.275
		C203.519,50.829,192.215,51.278,186.154,57.341z"/>
</g>
</svg>
