<?xml version="1.0" encoding="utf-8"?>
<!-- Generated by IcoMoon.io -->
<!DOCTYPE svg PUBLIC "-//W3C//DTD SVG 1.1//EN" "http://www.w3.org/Graphics/SVG/1.1/DTD/svg11.dtd">
<svg version="1.1" xmlns="http://www.w3.org/2000/svg" xmlns:xlink="http://www.w3.org/1999/xlink" width="32" height="32" viewBox="0 0 32 32">
<path d="M3.756 9.439h16.538v19.931h-16.538v-19.931z"></path>
<path d="M21.142 9.439h7.209v19.931h-7.209v-19.931z"></path>
<path d="M13.371 4.779c1.95 0 2.824 2.116 2.824 4.236h2.118c0-2.968-1.823-6.354-4.942-6.354s-4.942 3.386-4.942 6.354h2.118c0-2.12 0.874-4.236 2.824-4.236z"></path>
<path d="M16.194 3.219c0 0 0.662 0.488 1.346 1.569 0 0 0.309-0.13 0.772-0.108 1.947 0.092 2.824 2.214 2.824 4.334h2.118c0-2.968-1.823-6.452-4.942-6.452 0 0-0.018-0-0.045-0.001h-0.028c-0.296 0.001-1.435 0.046-2.045 0.657z"></path>
</svg>
