<?xml version="1.0" encoding="utf-8"?>
<!-- Generated by IcoMoon.io -->
<!DOCTYPE svg PUBLIC "-//W3C//DTD SVG 1.1//EN" "http://www.w3.org/Graphics/SVG/1.1/DTD/svg11.dtd">
<svg version="1.1" xmlns="http://www.w3.org/2000/svg" xmlns:xlink="http://www.w3.org/1999/xlink" width="32" height="32" viewBox="0 0 32 32">
<path d="M8.049 8.978c0.948 0 1.716-0.769 1.716-1.716s-0.768-1.716-1.716-1.716c-0.948 0-1.716 0.768-1.716 1.716s0.767 1.716 1.716 1.716z"></path>
<path d="M15.442 12.093l-5.548-1.976c0 0-1.1-0.366-1.829-0.366-0.945 0-1.858 0.366-1.858 0.366l-5.55 1.976c-0.418 0.132-0.649 0.577-0.518 0.995s0.576 0.65 0.995 0.518l4.386-1.609v13.465c0 0.547 0.445 0.992 0.992 0.992s0.992-0.444 0.992-0.992v-7.251c0.003 0.002 0-0.023 0-0.037 0-0.302 0.245-0.546 0.547-0.546s0.546 0.245 0.546 0.546c0 0.014-0.002 0.039 0 0.037v7.251c0 0.547 0.445 0.992 0.992 0.992s0.991-0.444 0.991-0.992v-13.465l4.385 1.609c0.080 0.025 0.16 0.036 0.239 0.036 0.337 0 0.65-0.216 0.756-0.555 0.132-0.418-0.1-0.864-0.518-0.995z"></path>
<path d="M23.951 8.978c0.948 0 1.715-0.769 1.715-1.716s-0.767-1.716-1.715-1.716c-0.948 0-1.715 0.768-1.715 1.716s0.767 1.716 1.715 1.716z"></path>
<path d="M31.344 12.093l-5.549-1.976c0 0-1.1-0.366-1.829-0.366-0.945 0-1.857 0.366-1.857 0.366l-5.55 1.976c-0.417 0.132-0.65 0.577-0.518 0.995s0.577 0.65 0.996 0.518l4.385-1.609v13.465c0 0.547 0.444 0.992 0.992 0.992s0.991-0.444 0.991-0.992v-7.251c0.003 0.002 0-0.023 0-0.037 0-0.302 0.246-0.546 0.547-0.546 0.302 0 0.546 0.245 0.546 0.546 0 0.014-0.003 0.039 0 0.037v7.251c0 0.547 0.444 0.992 0.992 0.992s0.991-0.444 0.991-0.992v-13.465l4.385 1.609c0.079 0.025 0.159 0.036 0.239 0.036 0.337 0 0.65-0.216 0.756-0.555 0.131-0.418-0.1-0.864-0.518-0.995z"></path>
</svg>
