<?xml version="1.0" encoding="utf-8"?>
<!-- Generated by IcoMoon.io -->
<!DOCTYPE svg PUBLIC "-//W3C//DTD SVG 1.1//EN" "http://www.w3.org/Graphics/SVG/1.1/DTD/svg11.dtd">
<svg version="1.1" xmlns="http://www.w3.org/2000/svg" xmlns:xlink="http://www.w3.org/1999/xlink" width="32" height="32" viewBox="0 0 32 32">
<path fill="#000" d="M17.598 21.21c-6.080 5.317-13.67 11.133-14.703 10.099-1.034-1.035 4.781-8.625 10.095-14.705l4.608 4.606zM28.639 14.372l-2.155-2.155c0.943-1.396 1.232-2.394 1.135-3.164l1.607-1.608-2.464-2.466-1.642 1.642c-1.368-0.128-3.418 0.913-7.126 4.62-1.366 1.368-3.061 3.201-4.815 5.202l4.621 4.626c2.005-1.755 3.836-3.45 5.205-4.818 0.979-0.981 1.766-1.84 2.401-2.607l1.356 1.355-4.383 4.383c-0.348 0.346-0.348 0.905 0 1.251 0.346 0.346 0.906 0.346 1.252 0l5.009-5.008c0.346-0.346 0.346-0.906 0-1.252z"></path>
</svg>
