<?xml version="1.0" encoding="utf-8"?>
<!-- Generator: Adobe Illustrator 15.0.2, SVG Export Plug-In . SVG Version: 6.00 Build 0)  -->
<!DOCTYPE svg PUBLIC "-//W3C//DTD SVG 1.1//EN" "http://www.w3.org/Graphics/SVG/1.1/DTD/svg11.dtd">
<svg version="1.1" id="Calque_1" xmlns="http://www.w3.org/2000/svg" xmlns:xlink="http://www.w3.org/1999/xlink" x="0px" y="0px"
	 width="448px" height="448px" viewBox="0 0 448 448" enable-background="new 0 0 448 448" xml:space="preserve">
<g display="none">
	<g display="inline">
		<path d="M375.487,266.546h-47.395v-36.316c0-7.113-5.076-12.903-11.283-12.903h-86.203v-35.869h47.41
			c10.92,0,19.818-8.893,19.818-19.815v-60.756c0-10.943-8.891-19.832-19.818-19.832H169.977c-10.929,0-19.818,8.889-19.818,19.832
			v60.753c0,10.923,8.889,19.814,19.818,19.814h47.412v35.87h-85.441c-6.638,0-12.029,5.81-12.029,12.906v36.31H72.508
			c-10.93,0-19.818,8.893-19.818,19.832v60.76c0,10.92,8.885,19.809,19.818,19.809h108.031c10.922,0,19.825-8.889,19.825-19.809
			v-60.752c0-10.944-8.896-19.833-19.825-19.833h-48.541l-0.05-35.999h182.92v35.999h-47.41c-10.934,0-19.818,8.889-19.818,19.833
			v60.755c0,10.92,8.885,19.812,19.818,19.812h108.029c10.918,0,19.824-8.893,19.824-19.812v-60.755
			C395.311,275.435,386.418,266.546,375.487,266.546"/>
	</g>
</g>
<g display="none">
	<path display="inline" d="M8.921,301.798l33.833,8.564h41.613c0-10.132,3.386-19.318,9.015-26.826H8.921V301.798z"/>
	<path display="inline" d="M397.215,217.782l-23.889-71.695v-17.924h-74.889v155.374H164.91c5.656,7.508,9.045,16.694,9.045,26.826
		H313.59c0-24.695,20.08-44.746,44.834-44.746c17.393,0,32.432,9.913,39.857,24.42c2.656,5.209,4.336,11.034,4.73,17.139
		c0.084,1.062,0.227,2.126,0.227,3.188h35.842v-74.656L397.215,217.782z M319.584,217.782v-53.77h41.84l17.869,53.77H319.584z"/>
	<path display="inline" d="M129.201,277.538c-18.178,0-32.88,14.732-32.88,32.824c0,18.152,14.703,32.884,32.88,32.884
		c18.093,0,32.796-14.731,32.796-32.884C161.997,292.271,147.294,277.538,129.201,277.538z M129.201,328.288
		c-9.944,0-18.01-8.007-18.01-17.926c0-9.858,8.065-17.924,18.01-17.924c9.83,0,17.895,8.065,17.895,17.924
		C147.101,320.281,139.035,328.288,129.201,328.288z"/>
	<path display="inline" d="M358.424,277.538c-18.18,0-32.883,14.732-32.883,32.824c0,18.152,14.703,32.884,32.883,32.884
		c18.094,0,32.852-14.731,32.852-32.884C391.276,292.271,376.518,277.538,358.424,277.538z M358.424,328.288
		c-9.912,0-17.924-8.007-17.924-17.926c0-9.858,8.012-17.924,17.924-17.924c9.885,0,17.926,8.065,17.926,17.924
		C376.35,320.281,368.309,328.288,358.424,328.288z"/>
	<rect x="9.179" y="104.754" display="inline" width="273.858" height="168.479"/>
</g>
<g>
	<path d="M399.611,325.148c-1.757-6.846-8.898-11.025-15.951-9.325l-123.631,29.913c-0.451,0.108-0.854,0.296-1.293,0.449
		c3.672,7.494,5.867,15.783,6.27,24.546c0.455-0.062,0.917-0.054,1.374-0.165l123.632-29.901
		C397.067,338.955,401.361,332.012,399.611,325.148z"/>
	<path d="M171.206,315.893c7.723-3.562,16.263-5.708,25.28-6.091c-0.066-0.453-0.083-0.901-0.198-1.351L134.622,67.334
		L68.411,24.819c-6.071-3.898-14.229-2.268-18.236,3.637c-3.997,5.889-2.332,13.827,3.73,17.726L111.562,83.2l59.201,231.428
		C170.881,315.068,171.057,315.479,171.206,315.893z"/>
	<path d="M177.318,204.395c0.882,3.372,4.41,5.403,7.867,4.536l100.307-24.916c3.473-0.854,5.559-4.279,4.677-7.648l-17.809-67.782
		c-0.883-3.374-4.405-5.402-7.875-4.543l-100.304,24.92c-3.461,0.854-5.554,4.285-4.672,7.656L177.318,204.395z"/>
	<path d="M199.393,321.906c-29.354,0-53.159,23.133-53.159,51.696c0,28.558,23.806,51.698,53.159,51.698
		c29.37,0,53.163-23.141,53.177-51.698C252.556,345.039,228.763,321.906,199.393,321.906z"/>
	<path d="M397.956,293.332l-29.292-111.547c-1.457-5.551-7.256-8.899-12.965-7.483L190.615,215.31
		c-5.697,1.418-9.144,7.068-7.688,12.614l21.393,81.425c21.629,1.55,40.329,13.151,51.244,30.054l134.711-33.465
		C395.972,304.525,399.417,298.878,397.956,293.332z"/>
</g>
</svg>
