<?xml version="1.0" encoding="utf-8"?>
<!-- Generated by IcoMoon.io -->
<!DOCTYPE svg PUBLIC "-//W3C//DTD SVG 1.1//EN" "http://www.w3.org/Graphics/SVG/1.1/DTD/svg11.dtd">
<svg version="1.1" xmlns="http://www.w3.org/2000/svg" xmlns:xlink="http://www.w3.org/1999/xlink" width="32" height="32" viewBox="0 0 32 32">
<path d="M28.544 23.225c-0.125-0.489-0.636-0.788-1.139-0.666l-8.831 2.137c-0.032 0.008-0.061 0.021-0.092 0.032 0.262 0.535 0.419 1.127 0.448 1.753 0.032-0.004 0.066-0.004 0.098-0.012l8.831-2.136c0.504-0.122 0.811-0.618 0.686-1.108z"></path>
<path d="M12.229 22.564c0.552-0.254 1.162-0.408 1.806-0.435-0.005-0.032-0.006-0.064-0.014-0.096l-4.405-17.223-4.729-3.037c-0.434-0.278-1.016-0.162-1.303 0.26-0.285 0.421-0.167 0.988 0.266 1.266l4.118 2.644 4.229 16.531c0.008 0.031 0.021 0.061 0.032 0.090z"></path>
<path d="M12.666 14.6c0.063 0.241 0.315 0.386 0.562 0.324l7.165-1.78c0.248-0.061 0.397-0.306 0.334-0.546l-1.272-4.842c-0.063-0.241-0.315-0.386-0.563-0.325l-7.165 1.78c-0.247 0.061-0.397 0.306-0.334 0.547l1.272 4.841z"></path>
<path d="M14.242 22.993c-2.097 0-3.797 1.652-3.797 3.693s1.7 3.693 3.797 3.693c2.098 0 3.797-1.653 3.798-3.693-0.001-2.040-1.701-3.693-3.798-3.693z"></path>
<path d="M28.425 20.952l-2.092-7.968c-0.104-0.396-0.518-0.636-0.926-0.534l-11.792 2.929c-0.407 0.101-0.653 0.505-0.549 0.901l1.528 5.816c1.545 0.111 2.881 0.939 3.66 2.147l9.622-2.39c0.407-0.101 0.653-0.504 0.549-0.9z"></path>
</svg>
