<?xml version="1.0" encoding="utf-8"?>
<!-- Generator: Adobe Illustrator 15.0.2, SVG Export Plug-In . SVG Version: 6.00 Build 0)  -->
<!DOCTYPE svg PUBLIC "-//W3C//DTD SVG 1.1//EN" "http://www.w3.org/Graphics/SVG/1.1/DTD/svg11.dtd">
<svg version="1.1" id="Calque_1" xmlns="http://www.w3.org/2000/svg" xmlns:xlink="http://www.w3.org/1999/xlink" x="0px" y="0px"
	 width="448px" height="448px" viewBox="0 0 448 448" enable-background="new 0 0 448 448" xml:space="preserve">
<g>
	<g>
		<defs>
			
				<rect id="SVGID_1_" x="33.001" y="47.618" transform="matrix(-0.9639 -0.2661 0.2661 -0.9639 380.3185 499.5307)" width="382" height="352.765"/>
		</defs>
		<clipPath id="SVGID_2_">
			<use xlink:href="#SVGID_1_"  overflow="visible"/>
		</clipPath>
		<path clip-path="url(#SVGID_2_)" d="M381.891,369.815c1.347-4.875-0.203-13.563-2.108-16.555
			c-9.28-14.582-30.887-25.58-51.591-46.03c-20.731-20.459-24.084-16.741-28.996-15.773c-4.94,0.958-31.637,24.941-43.182,31.776
			c-7.33,4.359-15.284,1.227-18.16-0.588c-64.116-42.37-95.936-146.747-95.936-146.747c-4.727-8.271,3.759-13.62,3.759-13.62
			c15.99-9.3,23.116-13.575,32.949-21.171c17.769-13.753-2.013-88.156-3.253-103.235c-1.28-15.092-30.062-17.589-30.062-17.589
			c-55.783-6.615-88.3,60.685-84.179,91.512C86.225,300.655,225.477,459.188,339.66,416.75l-0.002,0.009
			C339.657,416.757,370.906,409.608,381.891,369.815"/>
	</g>
</g>
</svg>
