<?xml version="1.0" encoding="utf-8"?>
<!-- Generator: Adobe Illustrator 16.0.0, SVG Export Plug-In . SVG Version: 6.00 Build 0)  -->
<!DOCTYPE svg PUBLIC "-//W3C//DTD SVG 1.1//EN" "http://www.w3.org/Graphics/SVG/1.1/DTD/svg11.dtd">
<svg version="1.1" id="Calque_1" xmlns="http://www.w3.org/2000/svg" xmlns:xlink="http://www.w3.org/1999/xlink" x="0px" y="0px"
	 width="448px" height="448px" viewBox="0 0 448 448" enable-background="new 0 0 448 448" xml:space="preserve">
<path d="M399.2,369.6c-10.3-16.1-34.2-28.3-57.1-51c-23-22.7-26.7-18.5-32.1-17.5c-5.5,1.1-35,27.6-47.8,35.2
	c-8.1,4.8-16.9,1.4-20.1-0.7c-71-46.9-106.2-162.5-106.2-162.5c-5.2-9.2,4.2-15.1,4.2-15.1c17.7-10.3,25.6-15,36.5-23.4
	c19.7-15.2-2.2-97.6-3.6-114.3c-1.4-16.7-33.3-19.5-33.3-19.5C77.8-6.4,41.8,68.1,46.3,102.2c27.8,209.1,182,384.7,308.4,337.7l0,0
	c0,0,34.6-7.9,46.8-52C403,382.5,401.3,372.9,399.2,369.6z"/>
</svg>
