<?xml version="1.0" encoding="utf-8"?>
<!-- Generated by IcoMoon.io -->
<!DOCTYPE svg PUBLIC "-//W3C//DTD SVG 1.1//EN" "http://www.w3.org/Graphics/SVG/1.1/DTD/svg11.dtd">
<svg version="1.1" xmlns="http://www.w3.org/2000/svg" xmlns:xlink="http://www.w3.org/1999/xlink" width="32" height="32" viewBox="0 0 32 32">
<path fill="#000" d="M27.278 26.415c0.096-0.348-0.015-0.969-0.151-1.183-0.663-1.042-2.206-1.827-3.685-3.288-1.481-1.461-1.72-1.196-2.071-1.127-0.353 0.068-2.26 1.782-3.084 2.27-0.524 0.311-1.092 0.088-1.297-0.042-4.58-3.026-6.853-10.482-6.853-10.482-0.338-0.591 0.268-0.973 0.268-0.973 1.142-0.664 1.651-0.97 2.354-1.512 1.269-0.982-0.144-6.297-0.232-7.374-0.091-1.078-2.147-1.256-2.147-1.256-3.985-0.472-6.307 4.335-6.013 6.537 1.792 13.49 11.739 24.814 19.895 21.782l-0 0.001c-0-0 2.232-0.511 3.017-3.353z"></path>
</svg>
