<?xml version="1.0" encoding="utf-8"?>
<!-- Generator: Adobe Illustrator 15.0.0, SVG Export Plug-In . SVG Version: 6.00 Build 0)  -->
<!DOCTYPE svg PUBLIC "-//W3C//DTD SVG 1.1//EN" "http://www.w3.org/Graphics/SVG/1.1/DTD/svg11.dtd">
<svg version="1.1" id="Calque_1" xmlns="http://www.w3.org/2000/svg" xmlns:xlink="http://www.w3.org/1999/xlink" x="0px" y="0px"
	 width="368.5px" height="368.5px" viewBox="0 0 368.5 368.5" enable-background="new 0 0 368.5 368.5" xml:space="preserve">
<g id="Your_Icon">
	<path fill="#010101" d="M314.415,162.766l-3.425-26.05l21.626-31.641l-31.859-45.771L260.94,74.546l-22.771-15.242l-5.692-35.631
		l-52.354-6.739l-18.2,35.033l-25.017,7.346L105.018,37.23L62.91,59.312l12.392,37.859L59.711,123.4l-38.869,6.476l-5.715,54.358
		l33.574,11.174c0,0,13.075,35.172,9.658,35.172c-3.4,0-23.898,30.555-23.898,30.555l27.315,42.943l45.53-18.105l21.601,18.105
		l3.417,39.553l53.489,7.936l15.917-35.049l23.923-5.67l36.391,20.375l39.823-27.145l-11.374-37.332l11.374-22.578l43.24-9.084
		l9.116-54.227L314.415,162.766z M184.711,257.367c-42.456,0-76.838-32.734-76.838-73.133c0-40.405,34.382-73.148,76.838-73.148
		c42.354,0,76.798,32.743,76.798,73.148C261.509,224.633,227.065,257.367,184.711,257.367z"/>
</g>
</svg>
