<?xml version="1.0" encoding="utf-8"?>
<!-- Generated by IcoMoon.io -->
<!DOCTYPE svg PUBLIC "-//W3C//DTD SVG 1.1//EN" "http://www.w3.org/Graphics/SVG/1.1/DTD/svg11.dtd">
<svg version="1.1" xmlns="http://www.w3.org/2000/svg" xmlns:xlink="http://www.w3.org/1999/xlink" width="32" height="32" viewBox="0 0 32 32">
<path d="M27.303 14.134l-0.297-2.262 1.878-2.748-2.767-3.975-3.458 1.324-1.977-1.324-0.494-3.094-4.546-0.585-1.58 3.042-2.172 0.638-2.769-1.918-3.657 1.918 1.076 3.288-1.354 2.278-3.375 0.562-0.496 4.72 2.916 0.97c0 0 1.135 3.054 0.839 3.054-0.295 0-2.075 2.653-2.075 2.653l2.372 3.729 3.954-1.572 1.876 1.572 0.297 3.435 4.645 0.689 1.382-3.044 2.077-0.492 3.16 1.769 3.458-2.357-0.988-3.242 0.988-1.961 3.755-0.789 0.792-4.709-3.457-1.571zM16.040 22.349c-3.687 0-6.672-2.843-6.672-6.351s2.986-6.352 6.672-6.352c3.678 0 6.669 2.843 6.669 6.352s-2.991 6.351-6.669 6.351z"></path>
</svg>
