<?xml version="1.0" encoding="utf-8"?>
<!-- Generated by IcoMoon.io -->
<!DOCTYPE svg PUBLIC "-//W3C//DTD SVG 1.1//EN" "http://www.w3.org/Graphics/SVG/1.1/DTD/svg11.dtd">
<svg version="1.1" xmlns="http://www.w3.org/2000/svg" xmlns:xlink="http://www.w3.org/1999/xlink" width="32" height="32" viewBox="0 0 32 32">
<path d="M19.184 24.010c0.707 0 1.289-0.581 1.289-1.289v-11.042c0-0.707-0.581-1.263-1.263-1.263-0.707 0-1.263 0.556-1.263 1.263v11.042c-0.051 0.707 0.531 1.289 1.238 1.289zM28.457 3.947h-11.193v-1.516c0-0.708-0.581-1.289-1.289-1.289s-1.263 0.581-1.263 1.289v1.516h-11.193c-0.708 0-1.263 0.632-1.289 1.339 0 0.707 0.556 1.339 1.289 1.339h1.617v20.163c0 2.224 1.794 4.068 3.992 4.068h13.745c2.198 0 3.992-1.845 3.992-4.068v-20.138h1.617c0.707 0 1.289-0.657 1.263-1.339 0-0.733-0.581-1.364-1.289-1.364zM24.414 26.688c0 0.859-0.682 1.567-1.541 1.567h-13.72c-0.859 0-1.541-0.733-1.541-1.592v-20.214h16.828l-0.025 20.239zM12.816 24.010c0.682 0 1.263-0.581 1.289-1.263l-0.025-11.067c0-0.707-0.556-1.263-1.263-1.263s-1.263 0.581-1.289 1.263v11.042c0.025 0.707 0.581 1.289 1.289 1.289z"></path>
</svg>
