<?xml version="1.0" encoding="utf-8"?>
<!-- Generated by IcoMoon.io -->
<!DOCTYPE svg PUBLIC "-//W3C//DTD SVG 1.1//EN" "http://www.w3.org/Graphics/SVG/1.1/DTD/svg11.dtd">
<svg version="1.1" xmlns="http://www.w3.org/2000/svg" xmlns:xlink="http://www.w3.org/1999/xlink" width="32" height="32" viewBox="0 0 32 32">
<path d="M8.972 4.384c0 1.925 0 0 0 0v3.853h3.878v-3.853h5.819v3.853h3.878v-3.853c0 0 0 1.925 0 0 0-3.853-1.941-3.853-3.878-3.853-1.941 0-1.941 0-5.819 0s-3.878 1.928-3.878 3.853z"></path>
<path d="M28.366 7.275c0-0.531-0.438-0.963-0.969-0.963h-23.275c-0.534 0-0.969 0.434-0.969 0.963v1.925c0 0.531 0.438 0.963 0.969 0.963v0c0.534 0 0.969 0.434 0.969 0.963v19.263c0 0.531 0.438 0.962 0.969 0.962h19.394c0.534 0 0.969-0.434 0.969-0.962v-19.262c0-0.531 0.438-0.963 0.969-0.963v0c0.534 0 0.969-0.434 0.969-0.963l0.006-1.925zM10.909 26.538c0 0.531-0.438 0.962-0.969 0.962v0c-0.534 0-0.969-0.434-0.969-0.962v-14.281c0-0.531 0.438-0.963 0.969-0.963v0c0.534 0 0.969 0.434 0.969 0.963v14.281zM16.728 26.538c0 0.531-0.438 0.962-0.969 0.962v0c-0.534 0-0.969-0.434-0.969-0.962v-14.281c0-0.531 0.438-0.963 0.969-0.963v0c0.534 0 0.969 0.434 0.969 0.963v14.281zM22.547 26.538c0 0.531-0.438 0.962-0.969 0.962v0c-0.534 0-0.969-0.434-0.969-0.962v-14.281c0-0.531 0.438-0.963 0.969-0.963v0c0.534 0 0.969 0.434 0.969 0.963v14.281z"></path>
</svg>
