<?xml version="1.0" encoding="utf-8"?>
<!-- Generated by IcoMoon.io -->
<!DOCTYPE svg PUBLIC "-//W3C//DTD SVG 1.1//EN" "http://www.w3.org/Graphics/SVG/1.1/DTD/svg11.dtd">
<svg version="1.1" xmlns="http://www.w3.org/2000/svg" xmlns:xlink="http://www.w3.org/1999/xlink" width="32" height="32" viewBox="0 0 32 32">
<path d="M30.346 7.057c-1.057 0.469-2.191 0.785-3.382 0.927 1.216-0.729 2.149-1.883 2.589-3.258-1.138 0.674-2.398 1.165-3.739 1.429-1.074-1.145-2.605-1.859-4.298-1.859-3.252 0-5.888 2.636-5.888 5.888 0 0.462 0.052 0.911 0.152 1.342-4.893-0.245-9.233-2.589-12.136-6.152-0.507 0.87-0.798 1.881-0.798 2.96 0 2.043 1.039 3.845 2.619 4.901-0.965-0.030-1.873-0.295-2.667-0.736-0.001 0.024-0.001 0.049-0.001 0.074 0 2.853 2.030 5.233 4.723 5.774-0.493 0.135-1.014 0.207-1.551 0.207-0.379 0-0.748-0.037-1.108-0.106 0.749 2.339 2.925 4.042 5.501 4.089-2.016 1.58-4.554 2.521-7.313 2.521-0.475 0-0.944-0.028-1.404-0.083 2.605 1.671 5.7 2.646 9.026 2.646 10.83 0 16.753-8.973 16.753-16.754 0-0.255-0.005-0.509-0.017-0.762 1.15-0.83 2.148-1.867 2.938-3.048z"></path>
</svg>
