<?xml version="1.0" encoding="utf-8"?>
<!-- Generated by IcoMoon.io -->
<!DOCTYPE svg PUBLIC "-//W3C//DTD SVG 1.1//EN" "http://www.w3.org/Graphics/SVG/1.1/DTD/svg11.dtd">
<svg version="1.1" xmlns="http://www.w3.org/2000/svg" xmlns:xlink="http://www.w3.org/1999/xlink" width="32" height="32" viewBox="0 0 32 32">
<path d="M9.656 8.126c0 3.901 3.758 7.063 6.154 7.063 2.428 0 6.154-3.162 6.154-7.063v0.055c0-3.932-2.756-7.118-6.154-7.118s-6.154 3.186-6.154 7.118v-0.055z"></path>
<path d="M16.111 16.889h-2.227l0.932 1.237v2.887h1.987v-2.887l0.933-1.237z"></path>
<path d="M20.6 14.942c0 0-3.008 3.821-3.677 5.924l-1.113 0.076-1.113-0.076c-0.67-2.103-3.677-5.924-3.677-5.924-6.769 1.435-6.957 9.278-6.957 9.278s3.272 7.176 11.575 7.547c0.038 0.002 0.305 0.002 0.343 0 8.304-0.371 11.576-7.547 11.576-7.547s-0.187-7.843-6.956-9.278z"></path>
</svg>
