<?xml version="1.0" encoding="utf-8"?>
<!-- Generator: Adobe Illustrator 18.1.1, SVG Export Plug-In . SVG Version: 6.00 Build 0)  -->
<svg version="1.1" xmlns="http://www.w3.org/2000/svg" xmlns:xlink="http://www.w3.org/1999/xlink" x="0px" y="0px"
	 viewBox="0 0 3000 3000" enable-background="new 0 0 3000 3000" xml:space="preserve">
<g id="Calque_2_-_copie">
</g>
<g id="Calque_2_-_copie_2">
</g>
<g id="Calque_1">
</g>
<g id="Calque_1_-_copie">
	<g>
		<path fill="#FFFFFF" stroke="#515696" stroke-width="70" stroke-miterlimit="10" d="M2192,861.5c160.7,0,290.9-130.3,290.9-291
			c0-160.6-130.2-290.9-290.9-290.9c-160.7,0-291,130.2-291,290.9C1901.1,731.2,2031.3,861.5,2192,861.5z"/>
		<path fill="#FFFFFF" stroke="#515696" stroke-width="70" stroke-miterlimit="10" d="M2495.8,943.8l-610.6-0.3
			c-155.6,0-287.9,97.7-342.5,237.3h322.5c116.5,0,211.1,94.7,211.2,211.1v429.6h484.3v-420.5h58.3v420.5h250.8v-492.1
			C2869.8,1134.4,2720.7,943.8,2495.8,943.8z"/>
		<path fill="#FFFFFF" stroke="#515696" stroke-width="70" stroke-miterlimit="10" d="M1775.3,1270.8H374.2
			c-116.4,0-211.2,94.7-211.2,211.1v825.3c0,116.4,94.7,211.1,211.2,211.1H451V2690c0,17.6,350.2-171.7,350.2-171.7h974.2
			c116.5,0,211.1-94.7,211.1-211.1v-825.3C1986.4,1365.5,1891.8,1270.8,1775.3,1270.8z"/>
	</g>
</g>
</svg>
