<?xml version="1.0" encoding="utf-8"?>
<!-- Generated by IcoMoon.io -->
<!DOCTYPE svg PUBLIC "-//W3C//DTD SVG 1.1//EN" "http://www.w3.org/Graphics/SVG/1.1/DTD/svg11.dtd">
<svg version="1.1" xmlns="http://www.w3.org/2000/svg" xmlns:xlink="http://www.w3.org/1999/xlink" width="32" height="32" viewBox="0 0 32 32">
<path fill="#000" d="M23.949 8.665c1.846 0 3.342-1.497 3.342-3.343 0-1.845-1.496-3.342-3.342-3.342s-3.343 1.496-3.343 3.342c0.001 1.846 1.497 3.343 3.343 3.343z"></path>
<path d="M27.439 9.611l-7.014-0.003c-1.787 0-3.307 1.122-3.934 2.726h3.705c1.338 0 2.425 1.088 2.426 2.425v4.935h5.563v-4.83h0.67v4.83h2.881v-5.653c0-2.24-1.713-4.429-4.296-4.429z"></path>
<path d="M19.162 13.367h-16.095c-1.337 0-2.426 1.088-2.426 2.425v9.48c0 1.337 1.088 2.425 2.426 2.425h0.882v1.972c0 0.202 4.023-1.972 4.023-1.972h11.191c1.338 0 2.425-1.088 2.425-2.425v-9.48c-0.001-1.337-1.088-2.425-2.426-2.425z"></path>
</svg>
