<?xml version="1.0" encoding="utf-8"?>
<!-- Generated by IcoMoon.io -->
<!DOCTYPE svg PUBLIC "-//W3C//DTD SVG 1.1//EN" "http://www.w3.org/Graphics/SVG/1.1/DTD/svg11.dtd">
<svg version="1.1" xmlns="http://www.w3.org/2000/svg" xmlns:xlink="http://www.w3.org/1999/xlink" width="32" height="32" viewBox="0 0 32 32">
<path d="M31.167 9.857c-0.325-2.58-2.003-4.354-4.533-4.533 0 0-7.573-0.168-10.595-0.168-0.012 0-0.025 0-0.038 0s-0.025 0-0.038 0c-3.022 0-10.595 0.168-10.595 0.168-2.529 0.178-4.208 1.953-4.533 4.533 0 0-0.337 3.331-0.337 6.052s0.337 6.052 0.337 6.052c0.265 2.591 1.837 4.357 4.533 4.533 0 0 6.17 0.337 10.595 0.337 0.012 0 0.025 0 0.038-0s0.025 0 0.038 0c4.425 0 10.595-0.337 10.595-0.337 2.696-0.176 4.268-1.942 4.533-4.533 0 0 0.337-3.331 0.337-6.052s-0.336-6.052-0.336-6.052zM12.873 20.268v-8.654l8.252 4.327-8.252 4.327z"></path>
</svg>
